<mxfile host="Electron" modified="2024-05-01T21:54:44.528Z" agent="Mozilla/5.0 (Windows NT 10.0; Win64; x64) AppleWebKit/537.36 (KHTML, like Gecko) draw.io/21.6.8 Chrome/114.0.5735.289 Electron/25.5.0 Safari/537.36" etag="wcQ3jpZVHf4lr65W3L95" version="21.6.8" type="device">
  <diagram name="Página-1" id="ohMvu7W5FreZn-_4AP8s">
    <mxGraphModel dx="2209" dy="690" grid="1" gridSize="10" guides="1" tooltips="1" connect="1" arrows="1" fold="1" page="1" pageScale="1" pageWidth="827" pageHeight="1169" math="0" shadow="0">
      <root>
        <mxCell id="0" />
        <mxCell id="1" parent="0" />
        <mxCell id="HfGgFGkd712wuSvMLE6i-1" value="" style="rounded=0;whiteSpace=wrap;html=1;fontStyle=0;labelBackgroundColor=none;" parent="1" vertex="1">
          <mxGeometry x="-420" y="180" width="1110" height="780" as="geometry" />
        </mxCell>
        <mxCell id="HfGgFGkd712wuSvMLE6i-2" value="" style="rounded=0;whiteSpace=wrap;html=1;labelBackgroundColor=none;" parent="1" vertex="1">
          <mxGeometry x="-462.46" y="180" width="60" height="780" as="geometry" />
        </mxCell>
        <mxCell id="HfGgFGkd712wuSvMLE6i-7" value="" style="rounded=0;whiteSpace=wrap;html=1;labelBackgroundColor=none;" parent="1" vertex="1">
          <mxGeometry x="-402.46" y="300" width="70" height="660" as="geometry" />
        </mxCell>
        <mxCell id="HfGgFGkd712wuSvMLE6i-9" value="&lt;font style=&quot;font-size: 24px;&quot;&gt;Monitoramento de hardwares nos computadores da estação de metrôs&lt;/font&gt;" style="text;html=1;align=center;verticalAlign=middle;whiteSpace=wrap;rounded=0;rotation=-90;" parent="1" vertex="1">
          <mxGeometry x="-690" y="537" width="515.09" height="47.82" as="geometry" />
        </mxCell>
        <mxCell id="HfGgFGkd712wuSvMLE6i-18" value="" style="shape=image;verticalLabelPosition=bottom;labelBackgroundColor=default;verticalAlign=top;aspect=fixed;imageAspect=0;image=data:image/png,iVBORw0KGgoAAAANSUhEUgAAAgAAAAIACAYAAAD0eNT6AAAABHNCSVQICAgIfAhkiAAAAAlwSFlzAAAOxAAADsQBlSsOGwAAABl0RVh0U29mdHdhcmUAd3d3Lmlua3NjYXBlLm9yZ5vuPBoAABpZSURBVHic7d178G1nXd/xNzkniYQQbq0oYjmgGBCiDlRHBTQqiFxkbDvTdqalTeWixVttnU6nzgg604udisQgImqZ0enojP6hwgACSizYekEHK4gikJiEWygEc4LCIZf+sZIRMTm/3++stffa+/e8XjPPP7DXWt/fznOe9dnPWutZBQAAAAAAAAAAAAAAAAAAAAAAAAAAAAAAAAAAAAAAAAAAAAAAAAAAAAAAAAAAAAAAAAAAAAAAAAAAAAAAAAAAAAAAAAAAAAAAAAAAAAAAAAAAAAAAAAAAAAAAAAAAAAAAAAAAAAAAAAAAAAAAAAAAsN/utXYBAFt0onp89cTq0dWl1UOr+1cXV+evVxoDOFN9vPpYdX31p9U7q7dUf1Ddts1iBADguLugelr17Oop1SXrlgN36y+qN1Q/V722+tS65QDsrwdVP1h9uLpD0/ao3Vi9qHpgABzaRdV/qk63/kCuaXPazdUPNfVpAM7iWdW1rT9wa9qS7ZrqmQHwt1xYXdn6A7WmbbL9bHXvFuImQGDfPaR6VfW4tQuBLXhr00zXB+buSAAA9tkjql+rvnDtQmCLrq2eWr1rzk4EAGBfPbJ6c/XgtQuBFXyoaT2Ld5/rDgQAYB89pGnxlIevXQis6JrqCZ3j5QABANg3n1X9Vq75Q9XvNc0EnDnqhieWrwVgo65sugkKqM9rWt3ydUfd0AwAsE++ufrVtYuAHXNH0zoBrznKRgIAsC8uqt6e6/5wd/68ekzTy4YOxSUAYF+8KFP/cE/uX91aXX3YDcwAAPvggU3PPt935Tpgl52uHlbdtHYhAEv5wZZfVvW66qrqm6pHVffZ2l/DqO7T1NeeVr20ur7l+/ULt/bXAGzYBS37St8bqufmEijrO1k9r3pfy/XvD1Xnb/OPANiUb2m5wfFXchmB3XPfpqdblurn3hwIHAu/1DKD4o9V5225djis85ouSS3R139hy7UDLO5E0w1NcwfE12TKn913XtMs1dz+flP6O7DnvqL5g+ENmfZnf1xSvb/5/f7xBx3IdBiwy564wD5e2PR4FOyDm5vWvJjrSQvsA2A1P9W8X0HXZSqU/XOyaeZqTt9/+UEHMQMA7LJHzdz+l6vblijkTpc1vYzo7dUtLXPDlra/7ZamvvCS6rEt59amewHmuHSJQgDWck3zBuinLVTHhdXLmsLE2icdbTfbrU2L+1zQMp4xs573LFQHwCo+0rxB8JEL1HBh9Rsz69DGab/eMiHg0pl13LhADQCr+WTzBsGLF6jhJ2bWoI3Xrmq+i2fW8ImDDuBlQMAuu2Pm9nPHuMuqt+V+KY7mtupLq3fM3M9G+79ODXDPnptxkqM7UT1n7SIOomMD3LMnr10Ae+spaxdwEJcAgF229iWA0y1zHwHjOd20qt8cG+3/AgCwy9YOAHOPz9jW7n/uAQAA/iYBAAAGJAAAwIAEAAAYkAAAAAMSAABgQAIAAAzo5NoFABxj1lrZb8d6HQgzAAAwIAEAAAYkAADAgAQAABiQAAAAAxIAAGBAAgAADEgAAIABCQAAMCABAAAGJAAAwIAEAAAYkAAAAAMSAABgQAIAAAzo5NoFABxjx/p98uw3MwAAMCABAAAGJAAAwIAEAAAYkAAAAAMSAABgQAIAAAxIAAC4Z6fXLoC9dfPaBRxEAAC4Z9evXQB767q1CziIAABwz96wdgHsrdevXcBB7rV2AQBnMXcp3blj3GOrt1UnZu6HsdxWfUn1xzP3s9H+bwYA4J69vXr52kWwd368+Sf/jTMDAOyytWcAqi6oXlN9wwL74vh7Y/X06lML7MsMAMCKzjQN6C9tmtqFu3Nb9WMtd/LfODMAwC7bhRmAT/eY6jnVU6pT1cUL75/9ckt1bdMNfz/T8tP+G+3/AgCwy3YtAMA2uQQAACxLAACAAQkAADAgAQAABiQAAMCABAAAGJAAAAADOrnCMU9Uj6+eWD26urR6aHX/pkU1zl+hJuB4mvsc9dLOVB+vPtb0quE/rd5ZvaX6g6w0yBZta5GMC6qnVc9uWkHrki0dF2Bf/EXT64d/rnpte7KcLBu11ysBPqj67uoF1d/Z8LEAjosPVy9rWlv+oyvXwnr2MgBcVH1/08nfWtkA5+Z09ZLqv1Z/uXItbN/eBYBnNaXWh21g3wAjurb6rurVK9fBdu3NuwAurK6sfiUnf4AlnapeVf1sde91S+G4WGoG4CFNnfNxC+0PgLv31qaZ1g+sXQgbt/OXAB5R/Vr1hQvsC4CDXVs9tXrXynWwWTsdAB5Zvbl68Mz9AHA0H2paT+XdaxfCxuxsAHhI0+IVD5+xDwDO3TXVE3I54LjayZsAP6vpmr+TP8B6Ht504/UFaxfC/jnXAPAjueEPYBd8efXf1i6C/XMulwC+ufrVpQsB4JzdUT2zes3ahbConboH4KLq7Zn6B9g1f149pullQxwPO3UPwPfn5A+wix5W/fu1i2B/HGUG4IFNz57edzOlADDT6aYgcNPahbCIjc4AHMUPNhWzZLuuuqr6pupR1X2WKhZgB92naax7WvXS6vqWH1dfuLW/hk2b2xcWcUHT6ymX6qA3VM+tTixVIMAeOlk9r3pfy42vH6rO3+YfwcbsRAD4lgUKuav9Si4jAHy6+zY9XbXUOPvM7ZbPhuxEAPilBQq5o+k1wUu+gRDguDiv6ZLoEmPtL2y5djZj9QBwoumGkrmFvCZT/gBnc17TLOnc8famjLfHweoB4CsWKOKGTPsDHMYl1fubP+4+ftuFs7iNBoDDTMc/8Vyq/gwvbHo8BYCzu7l60QL7edIC+2BwP9W8BHJdpqIAjuJk08zpnLH35VuvmqVtdAbg5CEKeNS5VP1pfrm67Qifv6zpEcFvqE5lbQBgf328aQG1N1Y/3bSU+mHc2nQvwAtmHPvSGdtCNb1vek4Cedohj3Nh9bKmsDA39Wiapu1au7Vp8Z/Dvrr3GTOP955DHofdNbfPndVhZgAuOZeqP827D/GZC6vXVl8381gAu+pE9R3Vo5t+GJ054POHGTvPxo3XnNVhbgK8eOYxPnCIz7wkJ39gDF9f/cghPve+mceZ++ONY+4wLwo4cBph5jEuq96WBYKAcdxWfWn1jgM+t+nxl9220f/+u3DSfW67UQfAtpyonrN2EYxtF068T167AIAVPGXtAhjbLlwCON38+wwA9s3pDr5O7xLA2Db6338XAsDc/QPsq02PjwLAfjv29wAAAFsmAADAgAQAABiQAAAAAxIAAGBAAgAADEgAAIABHeZtgLvOc67AWqxjwt4yAwAAAxIAAGBAAgAADEgAAIABCQAAMCABAAAGJAAAwIAEAAAYkAAAAAMSAABgQAIAAAxIAACAAQkAADAgAQAABiQAAMCABAAAGJAAAAADEgAAYEACAAAMSAAAgAEJAAAwIAEAAAYkAADAgAQAABiQAAAAAxIAAGBAAgAADEgAAIABCQAAMCABAAAGJAAAwIAEAAAYkAAAAAMSAABgQAIAAAxIAACAAQkAADAgAQAABiQAAMCABAAAGJAAAAADEgAAYEACAAAMSAAAgAEJAAAwIAEAAAYkAADAgAQAABiQAAAAAxIAAGBAAgAADEgAAIABCQAAMCABAAAGJAAAwIAEAAAYkAAAAAMSAABgQAIAAAxIAACAAQkAADAgAQAABiQAAMCABAAAGJAAAAADEgAAYEACAAAMSAAAgAEJAAAwIAEAAAYkAADAgAQAABiQAAAAAxIAAGBAAgAADEgAAIABCQAAMCABAAAGJAAAwIAEAAAYkAAAAAMSAABgQAIAAAxIAACAAQkAADAgAQAABiQAAMCABAAAGJAAAAADEgAAYEACAAAMSAAAgAEJAAAwIAEAAAYkAADAgAQAABiQAAAAAxIAAGBAAgAADEgAAIABCQAAMCABAAAGJAAAwIAEAAAYkAAAAAMSAABgQAIAAAxIAACAAQkAADAgAQAABiQAAMCABAAAGJAAAAADEgAAYEACAAAMSAAAgAEJAAAwIAEAAAYkAADAgAQAABiQAAAAAxIAAGBAAgAADEgAAIABCQAAMCABAAAGJAAAwIAEAAAYkAAAAAMSAABgQAIAAAxIAACAAQkAADAgAQAABiQAAMCABAAAGJAAAAADEgAAYEACAAAMSAAAgAEJAAAwIAEAAAYkAADAgAQAABiQAAAAAxIAAGBAAgAADEgAAIABCQAAMCABAAAGJAAAwIAEAAAYkAAAAAMSAABgQAIAAAxIAACAAQkAADAgAQAABiQAAMCABAAAGJAAAAADEgAAYEACAAAMSAAAgAEJAAAwIAEAAAYkAADAgAQAABiQAAAAAxIAAGBAAgAADEgAAIABCQAAMCABAAAGJAAAwIAEAAAYkAAAAAMSAABgQAIAAAxIAACAAQkAADAgAQAABiQAAMCATq5dwALuWLsAANg3ZgAAYEACAAAMSAAAgAEJAAAwIAEAAAYkAADAgAQAABjQLgSA02sXALCCm9cugLHtQgC4fu0CAFZw3doFMLZdCABvWLsAgBW8fu0CGNu9DvGZuUvtHnSMx1Zvq07MPA7Avrit+pLqjw/43KbHX3bbRv/7H2YG4MzMAu57wP//9urlM48BsE9+vINP/pfMPMYnZ27PMXeYAHDLzGN87iE+82+rX595HIB98Mbq+w7xuc+beRw3GXJWhwkAczvRFxziM2eqp1cvbZoaAzhubqt+rGms+9QhPv+ImcfzhBVndZgAMPcu/Wcc8nNnqu+qvrT60aZLA3NnHwDWdEvTWPbipmv+39PhTv5Vz5x5bE8ZcFaHuUHkFdXzZhzjhurh1a0z9gEwkpPVtc27DPCT1bcvUMuDqq++sz2uevCd/9uDmm7e/nj14eq91Z9Uv129qbpxgWOPbvWbQL/3ziLmtDkBAmA039b8cfd7Zhz/4upbq9+qbj+HY99e/Z/qBdUDZtQxurl9YLYvX6CI93Xw0wAA1P2qDzR/3H38ORz7QdVLmu79mnv8u9rp6r93uBvC+ZtWDwAnqpsWKOS1edYf4GzOq17V/PH2Ix1tobfzq+c3TdsvdeL/zPbx6kXVBUeoa3SrB4CqX1ygkDuqq9qN1QcBds15TU9CLTHW/vwRjnuqeutCxz1Me2uHezqMHQkAz1qgkLvaq5q/wAXAcXK/6tUtN84e9umrpzXNFmzr5H9X+4vqmw//9QxrJwLA+S07NfT+pummk0sVCLCHTjbd8LfENf+72oc63Nj6/Ka1CbZ98r+rfap6zuG/qiHtRACo6drN0h3ghuplTQtjPLrpzlOA4+riprHuGU1j3w0tP67+wCHqeHbrnvzvarcnBJzNRgPAUZ4RfGDTc6nu5gfYTTc3XdO/6Syf+Zam+7p2ZQb21uofNl0e5m+a+yt+9suA7vLR6sp5tQCwQS/u7Cf/z6/+R7tz8q+plv9ZXbp2IaM56ipB967e0bSyHwC74z1Nr1f/xD38/yeqq6snbqugI/r96iuzauyn25kZgKq/qr773GsBYAPuqL6zez751/QGwl09+de0cJHzyxad6zrBVzV1NgDW96NNr1W/Jw+orml63HCXna6+qPrg2oXsiJ2aAbjL9zUt5gDAun6n+g8HfOZ72/2Tf003mZ8tyLCgOW8K+uzqLdUjF6oFgKN5b/WEzv6L+QFNT3DtywJst1R/r7PfzDiKnZwBqGlhoKc3LToBwHZ9sHpqB0+X/+P25+Rf01oJ/3TtIkYwd13+d1dfVf3ZArUAcDjXVF/bNAYf5B8teNw/bHrF76OqC5tWiX109V3VHy14nGcvuC827HOq3239VaU0TdOOe/vt6sEdzoOaltyde8y/alqy+GxTyudV337nZ+ce7/bq7x7ybzzO5n6PZ7XUm/k+WH119cOHOSgA5+QV1dd0+EuvT27+oj+faLrc+5OdfXy/vXr5nZ892+OIh3Gv6vKZ++AAS76a99amO1Gf2TQ9BcAy3tP05r5vq84cYbvLFjj2v6nedITPv6n6dwsc9ysX2AdnsWQAuMtrqsdUP9T0TCcA5+bm6oVNK/y97hy2f+zM4/9h06zDUb28+fcEWBp4wzYRAGq6BvTC6mFNbxG8cUPHATiObmwaQ081/Zg61yn1L55Zx0HT/vfk9s4tOHw6j5hv2Jx1AI7i/KbHVf559Y1Nz6UC8Nc+Wr2+6cU4r2uZNfFvbN7NdI+q/vQct/3ipnfHnKsPN603M7K599Sd9Ry/rQDw6U5UX1Y9qalzXdr0hqr7N60CdcEKNQFsw5mmS6Mfq66r3lW9s3pz9bamX85LuqlpbD1Xn1V98hy3vaj6+Ixjf/LO449sowEAzsUVzX885dSWa95lp5r/fV6x5Zq3ZaOPQQ3g4837/uacgC+Zeew54eG42IvHABnL187c/to7G5Nrm/99zP1vwvF0lCcG7s6pGds+bOaxPzJzew4gAHAuLp+5/dUL1HDcXD1z+8sXqIHj589nbv/kGdt+48xjf3jm9hxAAOCoTjV/+v4355dx7Mz9Tk7lsgp/27Uzt39+53aeOFF968xje3pswwQAjuryBfZx9QL7OG6uXmAfly+wD46X987c/rKmxYeO6jua/wji78/cHljYK5t3U4pVIu/ZNc37bl+5/ZI3zk2A8/yD5n+Hf1l93RGO+eSmew/mHvfp5/QXHy/6PzvFSWpzhKu/zQA4z/1a7mVAL+jss8Ynqu9pmZP/7VkvpvR/dsip5nfIK7Zc8z65ovnf76kt17xpBsD53tL87/Gu9n+r72ya3r+oae2Wy5rW/n/Hgsf5Xxv5JvaP/s/OuCInqE06lYD1mQyA872g5U7M22r/YiPfxP7R/9kZr2xeZ7xm+yXvnWua9x2/cvslb5QBcL6Lqv/X+if1w7aP3VkzG+7/ngLgKC6fuf3VC9Rw3F09c/vLF6iB4+Uvq59eu4gj+OmmmoEdcar5afSKLde8j65o/vd8ass1b5IZgGV8btMv67V/3R/UPpyb/z6dGQB2wuUL7OPqBfZx3F29wD4uX2AfHC8fqP7j2kUcwouaXmAE7JBXNi+JXrP9kvfWNc37rl+5/ZI3xgzAcs6r/nfr/8q/p/a71cmN/fX7Sf9nJzgpbY+w9dcMgMu6tPpo65/sP7N9uPp7G/y795X+z+pONb8jXrHlmvfZFc3/vk9tueZNMQAu72uqT7T+Sf+udlv11I3+xftL/+dILquurN5e3dL6/7i1/W63NPWll1SPbfvm1s/d+5dNq+2t3b9uzY+Ds9H/OZQLq5c1pem1/1Frx7PdWr20uqDtmVsz9+yfNC3xu2Z/evbG/8r9pv9zoAur32j9E4Q2Rvv1thcC5tbK2X1d69wTcFP1zC38fftO/+dAP9H6JwVtrHZV2zG3Tg72RdVvtb2+86bc8HdY+j9ndVmm/bXtt1urx7R5c+vkcM6r/nWbXSzoo00vDbL+zOHp/5zVla1/MtDGbC9u8+bWyNF8TvVfqo+0XD/5WNMCP/ff3p9xbOj/nNWSr+DUtKO0P2rz5tbIubmo+vbqN6szHf17P1O9rnpelvadY6P9/14bKZltOl1dvHYRDOl0dcmGjzH3JG6Mm+++1ddXT6oeUT2semh1/p3//5mmGYN3Nv0g+aOmG0Ut6TvfRvu/fxz7z68c1rTpMUQAYGQb7f9uxgCAAQkAADAgAQAABiQAALvszMzt77tIFbB9c2+w/eRBHxAAgF12y8ztP3eRKmD7Pm/m9jcf9AEBANhlBw5iB/iCRaqA7XvEzO1PH/QBAQDYZdfP3P4Zi1QB2zf3ZUnXLVIFO81Kacyx6/3nFTPru746uYU6YUknqxua1/dfftBBzAAAu+ydM7d/aPWvligEtug5zb8HYO6/HfbArv+CY7ftev/58gVqfF+eBmB/3K/6QPP7/eO3XTjbt+sDOLtt1/vPiaY15efW+do79wW77LzqVc3v7x/JDP8Qdn0AZ7ftQ//5xQXqvKO6KoMiu+u86qUt09d/fsu1s5J9GMDZXfvQf561QJ13tVe1+TcYwlHdr3p1y/VzT78MYh8GcHbXPvSf86sbF6j1rvb+6vl5OoD1nay+rWWu+d/VPpS+PYx9GMDZXfvSf160QK2f2W6oXlY9vXp0dfG2/hiGdXFTX3tGU9+b+6jf3bUfOGwx3pW9/5zEWdO2xpAHVtfmbn44m5urU003zh7IDTHAPvhodeXaRcCOe3GHPPmXGYDjwAwAa9rmGHLv6h3Vw7d4TNgX76keW33isBuYAQD2xV9V3712EbCD7qi+syOc/EsAAPbLq5uelQb+2kuq1x11I5cA9p9LAKxpjTHkwuot1d9f4diwa36n+prqzFE3FAD2nwDAmtYaQz67KQQ8cqXjwy54b/WE6oPnsrFLAMA+urHp+f0PrV0IrOSD1VM7x5N/CQDHwem1C2BYN698/HdXX1X92cp1wLZdU31t07+BcyYA7L/r1y6AYV23dgFNA+HXVL+3diGwJb/TFHzfNXdHAsD+e8PaBTCs169dwJ0+WH119cO5J4bj7RVNgXeRS19uAtx/j63elneds123VV9S/fHahXyGpzc9JmixII6T9zQ953/kR/3Oxklj/93YdEf0V6xdCEN5afVzaxdxN/6s6VfSbdXjmh4ZhH11c/Wfq39W/cnSOzcDcDxcUL2m+oa1C2EIb2z6pf2ptQs5wAOaVg58QVNIhn1xY/Xj1VUdYW1/xnVBU2e5teVfL6lpdzT1rSur89sv51fPrH6h6aVCa3+PmnZ37SPVzzf11ZNtgRmA4+cx1XOqpzS9FtI7zpnjlqbX8L6++pl275r/UZ2ovqx6UvWo6tLq86v7N71q+IL1SmMAZ5oe3f5Y01M076reWb256V6u29crDQAAAAAAAAAAAAAAAAAAAAAAAAAAAAAAAAAAAAAAAAAAAAAAAAAAAAAAAAAAAAAAAAAAAAAAAAAAAAAAAAAAAAAAAAAAAAAAAAAAAAAAAAAAAAAAAAAAAAAAAAAAAAAAAAAAAAAAAAAAAAAAAAAAYP/8f0Pc/aaHUzWlAAAAAElFTkSuQmCC;rotation=-90;" parent="1" vertex="1">
          <mxGeometry x="-396.53" y="442.96000000000004" width="58.14" height="58.14" as="geometry" />
        </mxCell>
        <mxCell id="HfGgFGkd712wuSvMLE6i-19" value="&lt;font style=&quot;font-size: 18px;&quot;&gt;Computador da estação&amp;nbsp;&lt;/font&gt;" style="text;html=1;align=center;verticalAlign=middle;whiteSpace=wrap;rounded=0;rotation=-90;" parent="1" vertex="1">
          <mxGeometry x="-413.03" y="360" width="85" height="40" as="geometry" />
        </mxCell>
        <mxCell id="HfGgFGkd712wuSvMLE6i-20" value="Inicio do processo de monitoramento ViaTech" style="text;html=1;align=center;verticalAlign=middle;whiteSpace=wrap;rounded=0;" parent="1" vertex="1">
          <mxGeometry x="-317.46" y="190" width="103.25" height="39.36" as="geometry" />
        </mxCell>
        <mxCell id="HfGgFGkd712wuSvMLE6i-90" style="edgeStyle=orthogonalEdgeStyle;rounded=0;orthogonalLoop=1;jettySize=auto;html=1;exitX=0.5;exitY=1;exitDx=0;exitDy=0;entryX=0.5;entryY=0;entryDx=0;entryDy=0;" parent="1" source="HfGgFGkd712wuSvMLE6i-22" target="HfGgFGkd712wuSvMLE6i-33" edge="1">
          <mxGeometry relative="1" as="geometry" />
        </mxCell>
        <mxCell id="HfGgFGkd712wuSvMLE6i-22" value="Gerar Dados do hardware" style="rounded=0;whiteSpace=wrap;html=1;" parent="1" vertex="1">
          <mxGeometry x="-242.46" y="390" width="120" height="60" as="geometry" />
        </mxCell>
        <mxCell id="HfGgFGkd712wuSvMLE6i-24" value="" style="endArrow=none;html=1;rounded=0;exitX=0.016;exitY=0.359;exitDx=0;exitDy=0;exitPerimeter=0;" parent="1" edge="1">
          <mxGeometry width="50" height="50" relative="1" as="geometry">
            <mxPoint x="-402.46000000000015" y="513.94" as="sourcePoint" />
            <mxPoint x="688.88" y="510" as="targetPoint" />
          </mxGeometry>
        </mxCell>
        <mxCell id="HfGgFGkd712wuSvMLE6i-27" value="" style="shape=image;verticalLabelPosition=bottom;labelBackgroundColor=default;verticalAlign=top;aspect=fixed;imageAspect=0;image=data:image/png,iVBORw0KGgoAAAANSUhEUgAAAFAAAABSCAYAAADD2VOmAAAAAXNSR0IArs4c6QAAENVJREFUeAHlnW2MFdUZxx/kvu0bu8uLWFx1UbCCbyiWd3VLamqRtNqCJWkDC9b2ky39Zi0BtCX2QxNpoDGalJc20dKmaqukkiZCMQS0axZSGkFCgLpSP6jsssnuum9TfsPzXM5eZu7Mvbt3WfAkw8w9M+fMOf/zf/7Pc87MLCKXMHmeV+N5XoPneas9z9vqed5uz/NOeJ53xrs4kd+s12zUMg2XsPmX5tYKGAAAxlAlgGcQ6i9Nr0p8V8/zas8htS6EWUMFotUDmI2wu8TdKn31yjY6VFA6efKkZ1tBBQdejMkjC5cfKwsB7syZM962bdu8xsZGr76+3hORi7YZM2b457nuxAlwKTg9d1kAqU6BxkYmgFu/fr1XU1NzEWDkAWbQOQAG7D179kTeI+cCkG8svd0VeQdlXSx6bNy4cQA4DQ0NHnnNzc0ewLqJ37t37/bBhokuQwEZVhaYkJSRZdae58VmHWAZCBwDTiEJE4aBVgd76inQtEcEG0d1dnZO7u/vPxgHADpoGodpvvrqq3GKhV4TBCSSUEjq6+tbLyKjijS6wRVT8E7GaTCmaeBhhgWyJe8tcoHkPgXWv7W1tbV2WID0PI/RGtXd3X1Xf39/bPDMGaxYseIijcuLTgEnt27dmh0kzLoQNmJFwwWib7ZxA2KYYMyjUxwPxZbraAznXDailWHXWhln31xqEE3zYjEvFzxX9AdzDChuwnvnOhHYaKwvxKT7+/v3YGFmaYMTOS1NZWyFaB4dzA05BgOaWxY9tUQs6J5zzdYdQEB0y1n5oH1fX99GEbnK+j1YEH3NW79+PRXGjjfoiNuxoTpmUNwEMLl1MwW0hPmuXr3avwZGxo0Z+/r6fjpoFloFgIe7t0ZF7QlPcjs1VL8xV0uYaVC9BuDBgxeiq3Xr1mWvjQtiT0/PV+l7sd7ZZx6FOzs7F1qjo/au2QR1brB51G/JDcjdegGQ68hz9Y+BNV10Td3qC9ifaGtrG4s5FwPiKNBvaWkZFzdcoQG5MwS3Y4M9ds3XAAqqEwDDtNEd4Dgg9vT0/EZERsfWQ7tQzfeqnp6epwNGJjArzKSCOllMHlpmKd+9ggDkfrCRaaMLYhxzxgLNqcRyKAbehx9+OMUaHLVHrIMEvRigwsq89tpr2WaEmS9lwwC0ehkIA5E2RyUNbRJmyopPIJZZ3YO2fX1926Mqt/Ol8rrWafYWEOcz3zgAcg3tpR4GIk7q7Ox8bOnSpaPNqVwEomZYADm6EPZFdcgFodhjV//ymW9cAHEmDIgNShSI+AERSYQCCB/15OiGhoZEb2/v76MqtfOldBwGuDv7iLpflAlbnVxXSGpvb18CiGbKuTY8CopiusePH58at+LhYB8dduO/qBlOqQDs7e39p4ikFKcBoY2ZLpnJzz///BdxAYxig432YPe26IrJRdVVKgDBpLW19WtYqLLwPIjmdaHnlClT0nHjvuFiH4BZyo3vgsAsJYBdXV2bYaEDIo7Xj7Qx3+Tp06e/bo2N2g8X+1wHEsfblxJAlvFEJANW+AzzxlARWqa7u7v/EAWcnS913Gfsevjhh+2WHseWH7YvMYAeJIOFNkMRRHH69OlklPX19R3KtjbPQVQoEda5YvLdKVeUA6H+UgOoZpyZOXNmUq1XEvX19ZkDBw5Mz4PZgFP5ZgLFgJSvjM1A4jiQQgBkYNzwaEAH8/zo6enZO2nSpHJjIRqI+ZZ9/PHHy/KUy54aTucBILYQGseBFAIg17rykO1gjIPt27dfq1oIdpKaOHFiRUdHx29jlPWG03zppCViQX5HbTA1DGxmIIBGH+LOQuz+7v748eOLIJ2yUDLjx4+v6u7uftu9KOw4jpBHdTLueXeybyvL+cpyPfJi635cSx5liSUHA5qLx2efffYkZkzYJ3V1dSBZ3d/ff8q9KOzYbVy+zgzFOXeyX4juci2MRW5Kkdrb258XkSo1Y6kQEd7fi0xhpjEUYAXV4a4B5mM+g4pDKMQ0YSOOBLBti6uJXV1dOyGdiOBMpPKVV165MxK9c69exdWhIDCKyaOD3JOO5TLfNc04bXevoc7c+mifKxnu9bnH3d3d/xaRGnwHAFYdOnTom7kXBf3Ox4JiACq0zGBNEwuijrD7xgWwt7f3v9XV1bUTJkyoBMDq5ubmbwUBlpsXJ5ANa1wx+cWYZm6b+Y0Wxhn8uAD29/e3isg4XwdrampqmpqaLsyXglqgeYBAp/BopdzoCPcarNc0nQsy16ABjQsgcIjIeBEZAwNr33nnnUfy4OafsgDandxHlSnmPJ22gSqmvJXhMaYNRBBYQXmFAFhZWXm170iqqqrG7d+//9t247C9eWA0pJRpsPeJ0rkg4CyvEABFZCKORKqqqsbv27fvO1GgWMfQEo6DtiiTg8VB5cizsubp3UWEqLZxnvJxgm0DK2gfF8Bzr360KYC1UllZOeGFF16YHdXIoCkc2mIxFDe3iX9YXa4HzC0LcCQTe1uFDqvLzQfsuDoXBJzlxQUQLywiXxKRsT6AK1eujFyJCQLQZQnH7m+3g3ZsDWXvXkvdFjQbEMZIKxu0h7l02q13MMdxAezo6NhfXl4+yQdQRBDDOmgZ1EjLg125jYNRBhzHUU/63c7ijNyyHNsgwcJ8CSlw2ZzbrmJ/xwWwvb19FwzEf+CFry4rK7uuq6vrP/kazbISDeMmTJuCNjqWLwFQUDnyXFDCBgJWAnSxAEWViwtgS0vLc2VlZdcOAPCTTz75S77O03gDMN91xZ4DwHz1h02/okAp5HxcAA8cOPBDEWFN8DwDM5nM9R988EHk40xuQIPi6FOhQMJC6uZdPjehc6Uw1yBg4wK4ffv2xQMAxIRff/3177kNDzq2TprHDLqmmDzTPjpgMsDe7hfU2VLkxQFQQ5gbRQQncp6BInLdsmXL7urt7T2bDwBCCxoe50b56nHPART1US/aZzpn3rgUQIXVGadfra2t/xCRG9ULX3AiIjK1ra3tXbdzQcdmTkPBQhc8wpihDkvCgArLjwNgU1PTkwAIA82JTCCMSafTNx0+fPjZINDcPGMhjQjzlu71Yce5YNnAhHVuOPLjALhmzRpeuJxcXl5+PpBmKocgZjKZyYsWLYqckQCI+9I2YYXpVhhYbv5wOoVCQY8C8OzZs++m0+kviwhfe17DmqA/F8aeM5kMtLyltbX1X26Hw47deSd6heATbAMQD7dt4215mMr1NLDQTg3n9VEA7tu3b006nZ4qItdnFxN8FM/P60D1lpdffnlVGGjkA5DNV4ezc8Nxr3wA4mAXL148V0Sm4HR1BlctLKhCx0wmc4OIQM/bgrwx62sjQadKCWQ+AD/66KO/ish0EbkJn+EuqAIga1ugCrq3Hjly5PlcFg53TFZKoMLqzgfg6tWrvyEi01TqiAGzK9LVLGlpZI0OTnvwwQcX5LJwKAGkrpG0mSSFAdjS0vI3EbnDHEhFRcU1uhLDs2H/AfE4dSS+DnJxU1PTr10WDiWAbr0j4ZgoAlaGAfjEE088hLQRKzPtzS6mivhP5SrVkUzkZDqdvjmVSt2WTCbvam9vP2od/KICePjw4RdFZIbq342swqjFZp8L83Sdp+x+QK0iiVjeuWXLlh99kQHs7Ow8/cADD9yPRaZSqVs0gLY5MObLazH+Pzyew4yJruu5OJVK3ZFMJu8+duzYHwHxi8jAt95662kRuRvH6pqv81A9I7xcKSIVY8aM4ctEzJhwxvfGmPHChQsXMhJDCaCtRI+UvU0KXA2EOCJyD5aIY2X+W1ZWVof5aujHax1pGJjSNy7NjFko9GclyWSSwjM3bNjw/SVLlpwNc/9XSr4BCGFEZDYWiD8QkZszmUy9ed+xY8disdn3A3nXFxZWwsKKigpiQljIlAXqIqCz6urqNsLCK3mDiR0dHf97/PHHHzH2pVIp2HeTsY9nwfpOjL0nff77EH1VCxb6iwvGQgQUFjIiBw8e/J05lSt1/8wzzyynr6p9txGV4BfUP4zLYZ//ii/fiKR40ZI3VTWkIVAk3pmaSqVuRQuTyeRXRGTu0aNHd1yp4O3ateuXIjLH2Kfa50/deJVDtY/YL6Mf24Cd+B/ZqCAijNUscRHvsMSl7hsW4o1mici8U6dO7bzSQFTw5ipRkK1blX03wD51smif/4a+87XShS+VVAuJb2pVC/35cSqV8uNCHRnoPb+5uXnLlQBiT09P+5tvvrkhkUjMM9MlhNOFFT9w1hiZNYMKjVqS+tGh/6kX/8DChH5w47NQtZCgkekdOuCbsoj4piwiCy53EAFv7dq1KxOJxHxMN5lMovUWtmC615nnxXHo++QXfbHp/4EJRTTrkf03j/StBSJwJtKpVOp29NABcf6OHTt+hue63NjY1tZ2rLGxcakyj3U+i/n8oFkjESYWOFV7H5q4L2Hs8/hbYv4/5/4EnH1wrd8+EONgygTX1/DYU6d4TGcAET3ElKH9ghUrVjx6OYF45MiRP82ZM4flKZ95EAJi4DDV2ibz0MjmvIR4Km9mugO+F8aR2N9LsA8P+XauXF02j+7wyjek0+kpGhdlQxs8MyCKyL3vvfcef/R1xCYGefPmzT9OJBL3Kni0fZYGzLfbfFcXTImH+bN4Nuc10zWswG1gUhYS22DK0BU9RDyhMc9N/ADbcSp3J5PJWYlEIgviqlWrHj1x4sTfRxKKaB2DO3v2bL4wWmCap1KEJN3O4wy1MnQP8LC+rNfVT+LwFb7jGIjcwF8uC/0ZiqOHgFiv7h2nguBaeAOI8xndRCJx35o1ax779NNPL/ylsEuAqAE3f/78Rco62pY1WxEZAJ6u9aF7WJ0PnnldHK0SLBxA00P9jBMm+p/BqgZAZ97kYq6MZ2aqN91WbTR+IgilgTSU7f7ly5d/d7gZacDNmjXrIQZT24LMMMhot2meMY/Fk+uJ94iBa2trq/kGBPD4rBWn4X5gPZBvzi8AdEHUYBFTNqdS6yz/23x5msZNjOY9yWQSEH3notpIB+4DyJ07dz5bKlYCGgO1adOmnzBwIsKG1gEclkGQzAIB3pZA2QePZxwO88zjIl22WACRzHTD2efgyKEJZTY+tKmeCisvZVqMyOgx4WbVgob582adEs1LJBJoDh0BSL9jMOOll176+fvvv/9nAKXzhVo4ZU6fPv022gZoAKb1+4xzwGMwGVRmUcgNssMsgyeQrDoRYWSZp9YWCJ6SKweqkJ968VXKQkYhrcteeCVzLOgFc2YaQoMIA/yFWB3p2RpnYda+pwZIZ7NO37927drHAOKNN9741d69ezc1NTVtAxw2jsmHwU899dQP5s2bxzMKYxl1+HXq3vew6tgMOAZ1hloKsyqWpwhVLFA2zcsGy+o08AdsRSWfhU58mAWRqLya1xpExmukznNSGoQuYtKYhzkYZi7oDvrD5pu3iXoOmPz3FllQjbGWl0gkGhQkwMsOhNaVNVWHcZgr0sKSPINrnhYNR8sn6gtCBMp+rKezMaIQrA/wYpttGMpUQEW+OfONLOaMyCK2uHv96IQGZdmooQ5BN2aN6RiQppEAacwcwE4zeQUpyzA1S9M1yvig6aBQLwNFXDdTg/07dUEUiWFwGWTaiOXwDMjiPDSPiMP+pEm0xw1DKyjfzNlAZJTwUPq14hhdqaBBNAxNYYTRRswak3GBhBV4QTRpjpqaMRNQDVjAZfPzkAINQcib65gojoG6qJe4lAEj0EeTpxFy8eaZTs2wFGI8nAUyhBxlva0zTYvNvP8DCYh1t6k/TqsAAAAASUVORK5CYII=;rotation=-90;" parent="1" vertex="1">
          <mxGeometry x="-397.21999999999997" y="674.5" width="59.51" height="61" as="geometry" />
        </mxCell>
        <mxCell id="HfGgFGkd712wuSvMLE6i-28" value="&lt;font style=&quot;font-size: 18px;&quot;&gt;Sistema ViaTech&lt;/font&gt;" style="text;html=1;align=center;verticalAlign=middle;whiteSpace=wrap;rounded=0;rotation=-90;" parent="1" vertex="1">
          <mxGeometry x="-412.34999999999997" y="594.5" width="89.78" height="40" as="geometry" />
        </mxCell>
        <mxCell id="HfGgFGkd712wuSvMLE6i-30" value="&lt;font style=&quot;font-size: 18px;&quot;&gt;Funcionario&lt;/font&gt;&lt;div&gt;&lt;br&gt;&lt;/div&gt;" style="text;html=1;align=center;verticalAlign=middle;whiteSpace=wrap;rounded=0;rotation=-90;" parent="1" vertex="1">
          <mxGeometry x="-393.15" y="830" width="88.07" height="60" as="geometry" />
        </mxCell>
        <mxCell id="HfGgFGkd712wuSvMLE6i-91" style="edgeStyle=orthogonalEdgeStyle;rounded=0;orthogonalLoop=1;jettySize=auto;html=1;exitX=1;exitY=0.5;exitDx=0;exitDy=0;entryX=0;entryY=0.5;entryDx=0;entryDy=0;" parent="1" source="HfGgFGkd712wuSvMLE6i-33" target="HfGgFGkd712wuSvMLE6i-40" edge="1">
          <mxGeometry relative="1" as="geometry" />
        </mxCell>
        <mxCell id="HfGgFGkd712wuSvMLE6i-33" value="Receber dados Da maquina" style="rounded=0;whiteSpace=wrap;html=1;" parent="1" vertex="1">
          <mxGeometry x="-242.46" y="643.6300000000001" width="120" height="60" as="geometry" />
        </mxCell>
        <mxCell id="HfGgFGkd712wuSvMLE6i-35" value="" style="endArrow=none;html=1;rounded=0;exitX=1;exitY=0.5;exitDx=0;exitDy=0;entryX=0;entryY=0.5;entryDx=0;entryDy=0;" parent="1" target="HfGgFGkd712wuSvMLE6i-22" edge="1">
          <mxGeometry width="50" height="50" relative="1" as="geometry">
            <mxPoint x="-242.46" y="415" as="sourcePoint" />
            <mxPoint x="167.54" y="530" as="targetPoint" />
          </mxGeometry>
        </mxCell>
        <mxCell id="HfGgFGkd712wuSvMLE6i-97" style="edgeStyle=orthogonalEdgeStyle;rounded=0;orthogonalLoop=1;jettySize=auto;html=1;exitX=0.5;exitY=1;exitDx=0;exitDy=0;entryX=0.5;entryY=0;entryDx=0;entryDy=0;" parent="1" source="HfGgFGkd712wuSvMLE6i-40" target="HfGgFGkd712wuSvMLE6i-77" edge="1">
          <mxGeometry relative="1" as="geometry" />
        </mxCell>
        <mxCell id="HfGgFGkd712wuSvMLE6i-40" value="Exibir dados na dashboard" style="rounded=0;whiteSpace=wrap;html=1;" parent="1" vertex="1">
          <mxGeometry x="-92.46000000000001" y="643.6300000000001" width="120" height="60" as="geometry" />
        </mxCell>
        <mxCell id="HfGgFGkd712wuSvMLE6i-100" style="edgeStyle=orthogonalEdgeStyle;rounded=0;orthogonalLoop=1;jettySize=auto;html=1;exitX=0.5;exitY=1;exitDx=0;exitDy=0;entryX=0.5;entryY=0;entryDx=0;entryDy=0;" parent="1" source="HfGgFGkd712wuSvMLE6i-41" target="HfGgFGkd712wuSvMLE6i-48" edge="1">
          <mxGeometry relative="1" as="geometry" />
        </mxCell>
        <mxCell id="HfGgFGkd712wuSvMLE6i-41" value="&lt;font style=&quot;font-size: 18px;&quot;&gt;x&lt;/font&gt;" style="rhombus;whiteSpace=wrap;html=1;" parent="1" vertex="1">
          <mxGeometry x="187.54" y="651.23" width="40" height="37.54" as="geometry" />
        </mxCell>
        <mxCell id="HfGgFGkd712wuSvMLE6i-45" value="" style="endArrow=none;html=1;rounded=0;exitX=1;exitY=0.5;exitDx=0;exitDy=0;entryX=0;entryY=0.5;entryDx=0;entryDy=0;" parent="1" source="HfGgFGkd712wuSvMLE6i-41" target="HfGgFGkd712wuSvMLE6i-59" edge="1">
          <mxGeometry width="50" height="50" relative="1" as="geometry">
            <mxPoint x="77.53999999999999" y="638.63" as="sourcePoint" />
            <mxPoint x="407.54" y="683.63" as="targetPoint" />
          </mxGeometry>
        </mxCell>
        <mxCell id="HfGgFGkd712wuSvMLE6i-98" style="edgeStyle=orthogonalEdgeStyle;rounded=0;orthogonalLoop=1;jettySize=auto;html=1;exitX=0.5;exitY=1;exitDx=0;exitDy=0;entryX=0.5;entryY=0;entryDx=0;entryDy=0;" parent="1" source="HfGgFGkd712wuSvMLE6i-48" target="HfGgFGkd712wuSvMLE6i-50" edge="1">
          <mxGeometry relative="1" as="geometry" />
        </mxCell>
        <mxCell id="HfGgFGkd712wuSvMLE6i-48" value="Emitir Slack" style="rounded=0;whiteSpace=wrap;html=1;" parent="1" vertex="1">
          <mxGeometry x="237.54000000000002" y="730" width="120" height="60" as="geometry" />
        </mxCell>
        <mxCell id="fxni8d-Tm6VKHtBTrwnm-75" style="edgeStyle=orthogonalEdgeStyle;rounded=0;orthogonalLoop=1;jettySize=auto;html=1;exitX=1;exitY=0.5;exitDx=0;exitDy=0;entryX=0;entryY=0.5;entryDx=0;entryDy=0;" parent="1" source="HfGgFGkd712wuSvMLE6i-50" target="fxni8d-Tm6VKHtBTrwnm-72" edge="1">
          <mxGeometry relative="1" as="geometry" />
        </mxCell>
        <mxCell id="HfGgFGkd712wuSvMLE6i-50" value="Receber alerta" style="rounded=0;whiteSpace=wrap;html=1;" parent="1" vertex="1">
          <mxGeometry x="237.54000000000002" y="860" width="120" height="60" as="geometry" />
        </mxCell>
        <mxCell id="HfGgFGkd712wuSvMLE6i-52" value="&lt;span style=&quot;font-size: 14px;&quot;&gt;Hardwares funcionando corretamente?&lt;/span&gt;" style="text;html=1;align=center;verticalAlign=middle;whiteSpace=wrap;rounded=0;" parent="1" vertex="1">
          <mxGeometry x="152.54" y="602.46" width="110" height="30" as="geometry" />
        </mxCell>
        <mxCell id="HfGgFGkd712wuSvMLE6i-53" value="Não" style="text;html=1;align=center;verticalAlign=middle;whiteSpace=wrap;rounded=0;" parent="1" vertex="1">
          <mxGeometry x="167.54" y="705.5" width="60" height="30" as="geometry" />
        </mxCell>
        <mxCell id="HfGgFGkd712wuSvMLE6i-56" value="&lt;div&gt;&lt;span style=&quot;background-color: initial;&quot;&gt;Sim&lt;/span&gt;&lt;br&gt;&lt;/div&gt;" style="text;html=1;align=center;verticalAlign=middle;whiteSpace=wrap;rounded=0;" parent="1" vertex="1">
          <mxGeometry x="247.54000000000002" y="643.63" width="60" height="30" as="geometry" />
        </mxCell>
        <mxCell id="HfGgFGkd712wuSvMLE6i-95" style="edgeStyle=orthogonalEdgeStyle;rounded=0;orthogonalLoop=1;jettySize=auto;html=1;exitX=0.5;exitY=0;exitDx=0;exitDy=0;entryX=0.75;entryY=0;entryDx=0;entryDy=0;" parent="1" source="HfGgFGkd712wuSvMLE6i-59" target="HfGgFGkd712wuSvMLE6i-33" edge="1">
          <mxGeometry relative="1" as="geometry">
            <Array as="points">
              <mxPoint x="427.54" y="570" />
              <mxPoint x="-152.46" y="570" />
            </Array>
          </mxGeometry>
        </mxCell>
        <mxCell id="fxni8d-Tm6VKHtBTrwnm-8" style="edgeStyle=orthogonalEdgeStyle;rounded=0;orthogonalLoop=1;jettySize=auto;html=1;exitX=1;exitY=0.5;exitDx=0;exitDy=0;entryX=0.5;entryY=1;entryDx=0;entryDy=0;" parent="1" source="HfGgFGkd712wuSvMLE6i-59" target="HfGgFGkd712wuSvMLE6i-65" edge="1">
          <mxGeometry relative="1" as="geometry" />
        </mxCell>
        <mxCell id="HfGgFGkd712wuSvMLE6i-59" value="&lt;font style=&quot;font-size: 18px;&quot;&gt;x&lt;/font&gt;" style="rhombus;whiteSpace=wrap;html=1;" parent="1" vertex="1">
          <mxGeometry x="407.54" y="653.63" width="40" height="37.54" as="geometry" />
        </mxCell>
        <mxCell id="HfGgFGkd712wuSvMLE6i-60" value="&lt;span style=&quot;font-size: 14px;&quot;&gt;Deseja encerrar o monitoramento?&lt;/span&gt;" style="text;html=1;align=center;verticalAlign=middle;whiteSpace=wrap;rounded=0;" parent="1" vertex="1">
          <mxGeometry x="367.54" y="699.9999999999999" width="120" height="30" as="geometry" />
        </mxCell>
        <mxCell id="HfGgFGkd712wuSvMLE6i-62" value="&lt;div&gt;&lt;span style=&quot;background-color: initial;&quot;&gt;Sim&lt;/span&gt;&lt;br&gt;&lt;/div&gt;" style="text;html=1;align=center;verticalAlign=middle;whiteSpace=wrap;rounded=0;" parent="1" vertex="1">
          <mxGeometry x="477.53999999999996" y="643.63" width="60" height="30" as="geometry" />
        </mxCell>
        <mxCell id="HfGgFGkd712wuSvMLE6i-64" value="Não" style="text;html=1;align=center;verticalAlign=middle;whiteSpace=wrap;rounded=0;" parent="1" vertex="1">
          <mxGeometry x="377.54" y="623.63" width="60" height="30" as="geometry" />
        </mxCell>
        <mxCell id="HfGgFGkd712wuSvMLE6i-65" value="" style="ellipse;whiteSpace=wrap;html=1;aspect=fixed;fillColor=#FF3D44;" parent="1" vertex="1">
          <mxGeometry x="585.04" y="577" width="35" height="35" as="geometry" />
        </mxCell>
        <mxCell id="fxni8d-Tm6VKHtBTrwnm-31" style="edgeStyle=orthogonalEdgeStyle;rounded=0;orthogonalLoop=1;jettySize=auto;html=1;exitX=1;exitY=0.5;exitDx=0;exitDy=0;entryX=0;entryY=0.5;entryDx=0;entryDy=0;" parent="1" source="HfGgFGkd712wuSvMLE6i-66" target="fxni8d-Tm6VKHtBTrwnm-29" edge="1">
          <mxGeometry relative="1" as="geometry" />
        </mxCell>
        <mxCell id="HfGgFGkd712wuSvMLE6i-66" value="" style="ellipse;whiteSpace=wrap;html=1;aspect=fixed;fillColor=#17E000;" parent="1" vertex="1">
          <mxGeometry x="-290.15999999999997" y="232.55" width="38.73" height="38.73" as="geometry" />
        </mxCell>
        <mxCell id="HfGgFGkd712wuSvMLE6i-70" value="Monitoramento de hardware finalizado" style="text;html=1;align=center;verticalAlign=middle;whiteSpace=wrap;rounded=0;" parent="1" vertex="1">
          <mxGeometry x="545.04" y="537" width="130" height="40" as="geometry" />
        </mxCell>
        <mxCell id="HfGgFGkd712wuSvMLE6i-92" style="edgeStyle=orthogonalEdgeStyle;rounded=0;orthogonalLoop=1;jettySize=auto;html=1;exitX=1;exitY=0.5;exitDx=0;exitDy=0;entryX=0;entryY=0.5;entryDx=0;entryDy=0;" parent="1" source="HfGgFGkd712wuSvMLE6i-77" target="HfGgFGkd712wuSvMLE6i-41" edge="1">
          <mxGeometry relative="1" as="geometry" />
        </mxCell>
        <mxCell id="HfGgFGkd712wuSvMLE6i-77" value="Visualizar&lt;div&gt;Dashboard&lt;/div&gt;" style="rounded=0;whiteSpace=wrap;html=1;" parent="1" vertex="1">
          <mxGeometry x="-92.46000000000001" y="860" width="120" height="60" as="geometry" />
        </mxCell>
        <mxCell id="HfGgFGkd712wuSvMLE6i-85" style="edgeStyle=orthogonalEdgeStyle;rounded=0;orthogonalLoop=1;jettySize=auto;html=1;exitX=0.5;exitY=1;exitDx=0;exitDy=0;" parent="1" source="HfGgFGkd712wuSvMLE6i-52" target="HfGgFGkd712wuSvMLE6i-52" edge="1">
          <mxGeometry relative="1" as="geometry" />
        </mxCell>
        <mxCell id="fxni8d-Tm6VKHtBTrwnm-1" value="" style="rounded=0;whiteSpace=wrap;html=1;labelBackgroundColor=none;" parent="1" vertex="1">
          <mxGeometry x="-402.46" y="180" width="70" height="120" as="geometry" />
        </mxCell>
        <mxCell id="fxni8d-Tm6VKHtBTrwnm-3" value="&lt;span style=&quot;font-size: 18px;&quot;&gt;Cliente&lt;br&gt;&lt;/span&gt;" style="text;html=1;align=center;verticalAlign=middle;whiteSpace=wrap;rounded=0;rotation=-90;" parent="1" vertex="1">
          <mxGeometry x="-402.46" y="210" width="85" height="40" as="geometry" />
        </mxCell>
        <mxCell id="fxni8d-Tm6VKHtBTrwnm-6" value="" style="shape=image;verticalLabelPosition=bottom;labelBackgroundColor=default;verticalAlign=top;aspect=fixed;imageAspect=0;image=data:image/png,iVBORw0KGgoAAAANSUhEUgAAAgAAAAIACAYAAAD0eNT6AAAABHNCSVQICAgIfAhkiAAAAAlwSFlzAAALEwAACxMBAJqcGAAAABl0RVh0U29mdHdhcmUAd3d3Lmlua3NjYXBlLm9yZ5vuPBoAACAASURBVHic7N13fFvl9fjxjyTL8t57xo4dJ3bi7IQMMliBsCGkbGgplFG6oIP+OoBSWlqg49tSoIWWPcMKJOyEhAyy42wnsR3vvbcs6ffHDS0jw773SlfjvF8vvQJBz7mHxJKOnvs85zEhhPBVQUA6kAUkAylA0tFfY4EYIAqIPPoIPzrODER/IU4PMHj0n/uBPqALaPvCox1oAaqPPmqAKqDXLf9nQgi3MxmdgBDihExANjAOKAIKgFxgFJAJWA3LTNEGlAMHgP1HH6VH/73PwLyEECchBYAQ3iMIKASmHX1MRfnQDz/RIC/lRCkEtgLbjv66Heg0MikhxP9IASCEcSKB2cCpwDyUD/wwQzNyLxfKzMBaYA3wCcptBCGEAaQAEMJzgoA5wCLgTGDS0d8LZOUoxcAHwHtAs7HpCBE4pAAQwr2SgAuBc4DTURbliWNzAJuAFUcf21FmDYQQQgifkA38AGWKewjlQ0weI39UA39GuU0iX1aEEEJ4pXjgNmA9xn9w+uPjCPAgMGO4fyFCCCGEuwQDS4A3gQGM/5AMlMde4E6U3gdCCCGEx2QAP0VZwW70h2EgP4ZQFg9ehvH9EIQQQvgpM3Aeykp1B8Z/+Mnjy48jwE9QOiAKIYQQmtmAa4E9GP8hJ4+TP/qAp1EaKAkhhBAjFgv8CmjE+A81eYz84QSWA6d89S9WCCGEOJZ44G6UHvdGf4jJQ5/Hpyg9GIQQQoiviQN+j3IKntEfWPJwz2MVsAAhBCDNNYQIBb6Hsqrf5xaQmc0WwqOiiYyOJSwiipCwCMIiIgkJiyAkNAxrsA2rLQRrsI1gW8jRMWaswbb/xhiy23E4hgBwOR3YBwcY6O9ncKCPgf4+Bvv76e/roa+7k+7Odnq7u+jt7qCvpxuXy2XI/7dG76L8fZcYnYgQRpICQAQqC3A9cA+QbmwqJxcSFk5sQjLR8UnEJiQTE5dIZEwcYZHRmM1mQ3JyOIbobG2mo62ZjtZmOlubaWtpoK2pHsfQkCE5jYATeAb4JXIgkQhQUgCIQHQq8FeUw3i8TrAthKS0LOJT0klIySAhJZ3wyGij0xo2p9NJR0sjzQ21tDTU0FxXTXN9DU6nw+jUjqUP5WfhPqDb4FyE8CgpAEQgyQD+AFyOF/3sh4SGk5KVQ0pGDimZOcQmpmAyeU16uhiy22mqraS+upz6qnIaa6twDNmNTuuLqoE7gJeNTkQIT/Gvdxkhji0I5XCeu4FwY1MBk8lMYmoGGbkFpOfkk5CS4Xcf+CfjGLJTV1lGVdkBqssO0NXeanRKn/sQ+C5wwOhEhHC3wHrXEYFoMvAvYIqRSVgsQaRmj2bUmCKy8goJCTO8DvEqHa1NVB7cR9n+nbQ01BqdziDwR+A3KGc8COGXpAAQ/ioU5Rv/j1BmADzOZDKTNiqP0YWTyM4v/NLKe3F8nW0tlB8ooXxfCa1N9Uamshf4JrDJyCSEcBcpAIQ/ykA5oc+Qb/2xiSnkj59K7riJhEVEGpGC32htrKO0ZDOH9+5goL/PiBQcKMcQ3w30G5GAEO4iBYDwNxHAemCCJy9qCbKSO3YCBZNmkpSW5clLBwTH0BBHDu7hQMlm6o4cNiKFfSjbRmU2QPgNKQCEv3kA5VQ4j4iIimHclNmMKZ6GLSTUU5cNaG1N9ezZuo7De3d4ut+AHfgFyoyA05MXFsIdpAAQ/iQc5fCeMHdfKCElg/HT5zKqYIJhjXgCXX9vN/t3bGLvtg3093p0C/8HKCdEGrpAQQitpAAQ/uR84C13XiAlM4dJs08jLTvPnZcRIzBkt3Ng52fs2rSG3u4uT122AeWWwLueuqAQepMCQPiTO1CmZ3WXlj2aSbNPJyUzxx3hhQ4cQ3YOlGymZOMn9HZ3euKSLpQOgncjtwSED5ICQPiTu4D79QyYkJLBtPlnk5Y9Ws+wwo0cQ0Ps3bqenRtXMTjgkYX7bwNXAx2euJgQepECQPiTq1EOeNEsKjaeqaeeRc7YCcjLxDcN9PWyY8PH7Nu+EafD7ecQlAIXoewWEMInyDub8CdpKD3dVf9cW4NtTJp1GkXT5mC2WPTLTBimq72FTatWcOTgXrdfCqUIdes6FCH0Iu9wwp90AeOBwpEPNZFTMIHTL7mGzNEFmGRlv9+whYSRO24iyRk5NNVXMdDX67ZLoRw01Q+sc9dFhNCLFADCr8w56xJzQ3X5JQ7H0LBnAaLjEjn9oquYMGMewbYQd6YnDBQZE0dB8TTMZjNNdVW4nG5Zt2cCzgBiULYLutxxESH0IAWA8BMu0w0/Dv1+fGraPxLTsoIqD+7F4Thxkxiz2cLEUxay4PzLiYqN91Cewkhms4XUrFxyCoppaailp8tt6/ZOQelGuRzwaLciIYZL1gAIn3f9D+6OsQTbnnPB4s9/r6O1iY0fLqem4uAxx2TkFjB9wTnEJiR7LE/hXVwuJ3u2rGPr2g9wDNnddZn1wHlAm7suIIRaUgAIn/atn/0uFxfLcR37vn9bcwPVZaX0dCrvv+FRsWTkjpEPfvFfHa1NrF3xKo21le66xA5gEUqXSiG8hhQAwmfd8OP757hMpteAJKNzEb7N5XKyY/3H7Fi/CpfLLWsDDqCsDah2R3Ah1JA1AMIn3fDj333LZTK9AkQZnYvwfSaTidSsXFIyc6itOIR9cEDvSyQAl6I0DWrVO7gQasgMgPApd999t/lIT8gDJpPrTqNzEf6pv6+HtSteperwfneErwbmA2XuCC7ESMgMgPAZl132sqU/svMJE9xqdC7CfwVZgxldOBFLkJW6ysN6h48CLgbeANr1Di7ESEgBIHzC7bf/1UZi44smuMLoXEQgMJGcMYrE1AyqDu8/6ZbSEYpG2RmwDKV5lRCGkFsAwutdc+cfw4PM9tdNmM40OhcReDrbWvjo9Wdoa27QO3QpsACo0zuwEMMhBYAwihk4G7gMpWFKCMo2qXXAk0A5wC0/+13sgJN3gFkG5SkE9sEBPn7jueP2ldBgB8qaAI+cXyzEF0kBIIxQAPwHpVvasTiAh8+79ua/JKVkr0QpEIQwlNPhYO3KVzm8d4feoT8EzgUG9Q4sxInIGgDhaZOAVShFwPGYgTmdba03jC6clGUyycE8wngms5lRY4oYsttprDmiZ+hcYDTwup5BhTgZKQCEJ6WhfPinDOfJ3R1tIU6nk7TsPPdmJcSwmUgflU9wSCi1+t4OmACEoxwgJIRHSAEgPCUUeB8YO5JBTXVV5E+YKqf0Ca+SlJZFTHwiVYf269k5cDbKOpgtegUU4kSkABCeYAKeBUa8it/lchEaFk5yxijdkxJCi9iEZJLSs6ko3YVTv6OFzwI+BSr0CijE8cjNVeEJvwaWqh3cVFelYypC6CctezRnXHItliCrXiGtwKuA3PcSbicFgHC3bwC/0hKgr6dbp1SE0F9adh6nX3w1FkuQXiHjUBYERuoVUIhjkQJAuNM04N9o3G5qDbbpk40QbpKRM4aFF16J2aLbXdXxwFPIVm3hRrIGQLhLNMr+Zs1H9eYUTCBtlMyICu8WHZdIbGIKR0r34HK59Ag5DugANuoRTIivkhkA4S7/RNnfrNmogvF6hBHC7bLzC5l//jcwm3V7a32A4zfMEkITKQCEO9yM0uJXs6y8cSSkZOgRSgiPyCmYwMzTz9crnBV4CYjXK6AQn5NbAEJvxSirmDWviAoNj+SsJddjDQ7WnpUQHpSYmsHgwABNtZV6hIsGioAX9AgmxOekABB6Ckdp9pOqNZAlKIizLvsmMfGJ2rMSwgDpo/Jpa6qno7VJj3BjgCZgsx7BhAC5BSD09XeUhUsamZh79qUkpWVpDyWEQUwmE/PPW6rnLaw/oBQCQuhCCgChlwuA6/QINGn2QkYXTtIjlBCGCrIGc+al1xIRFaNHuDDgeZR1AUJoJrcAhB7igJVAhNZAo8aMZ/ZZFyLbn4W/sAbbSMvO4/DeHTgdDq3h0oAh4BPtmYlAJwWA0MOjwBytQeKT0zjz0uv0bKYihFcIDY8gMjqWitLdeoSbCywH6vUIJgKX3AIQWp0DXKs1SLAthNMuupogq8xuCv+UO24iYyfN1COUFaXPhlTKQhP5ARJaRKFM/UdrDXTq4iWkyIl/ws+lZedRXXaAvp4uzaGANqRLoNBAZgCEFn8AMrUGGTdlFrnjJuqQjhDezRIUxMILrtTrfIvfAjl6BBKBSWYAhFqnAn9D42q9uKRUTrvgSj1bpwrh1WyhYXqtB7CiHBv8vPasRCCSAkCoYQZeQ5mGVM0aHMzZS79NaLjmzQNC+JTYxBT6erpprq/RGmoMsB04oD0rEWjka5dQ45vAFK1BTjnjAqLjEnRIRwjfM2PhuUTG6NLi/yFAzswWIyYzAGKkIlG+/UdqCZKRW8CMBYv1yUgIH2S2WIhPSuXg7m1aQ8UBXcA67VmJQCIzAGKkfonGXv/WYBtzFl2sUzpC+K6UzBzGTpqhR6hfoMMZHCKwSAEgRmI08D2tQWYsXEx4pOadg0L4hekLztHj9RAJ/EaHdEQAkQJAjITme42pWbkUTJyuUzpC+D5rsI1TFy9Bh/bX16PLYVwiUEgBIIZrFnChlgBBVitzz74E6fMvxJelZeeRVzRZaxgLcI8O6YgAIQWAGK67tQaYPOcMvVY9C+F3Zp5+LrbQMK1hlqDDDh0RGKQAEMMxCzhLS4DImHgKp87WKR0h/I8tJIzJc07XGsYE3KdDOiIASAEghkPztOLMhYuxWIL0yEUIvzV20kyi4xO1hjkHHU7nFP5PCgBxMrOAM7UESM0eTVZ+oU7pCOG/zGaLXv0xfq5HEOHfpAAQJ3OvlsEmk5lTTjtPr1yE8HuZo8eSPipfa5jFyFoAcRJSAIgTmQOcoSVAwaQZxCam6JSOEN7IRVdHG421lbQ11eNwDGmOOGPhYkwmzW/PP9GciPBrclNWnMgdWgYHWYOZon1RkxBeaXCgn5LPPuHQ7m30dnf+9/eDrFYyR49j0uzTiE1IVhU7NjGFMcXTOLBzk5YUl6CcFnhISxDhv+QsAHE8o4C/o2GWqGjabLLzi3RLSAhv0VRXxYrnH6O6rBT74MCX/pvT6aS9uYEDOzZhHxwgOSMbs2Xkb7UJKens274Rl9OpNk0zEAy8ozaA8G9SAIjj+X/AXLWDg6zBnHbhlQRZg3VMSQjjdbQ2887zjzHQ13uSZ7porK2kbN9OYuITiYodWQ8Ma7CN3q5OrUcGFwKPAn1aggj/JAWAOJYw4BkgVG2Aomlz5Nu/8EMu3nv5Sbo724c9YnCgn8N7d9DZ3kpK5qgRFcWxCcnKLIDLpSZZACvQAGxUG0D4LykAxLF8E1iqdrB8+xf+qvLQfvZs+VTV2Lameg7u2kpoRCRxScM7uC84JJSu9hZaG+tUXfOo0Si381RXEcI/yS4AcSy3aRlcOGUWIWHheuUihNeoPLhX0/j+vh7WvPMyK154nI7W5mGNKT5lASaTpvMz8oCztQQQ/kkKAPFVpwHFagdbLEEUTVO9dEAIr9bW3KBLnPqqct586q/s3rwW50kW+UXHJTKqYILWS96qNYDwP1IAiK/6ppbBOWMnEBoeoVcuQniVoSG7frHsdjatWsHbzz5CS0PtCZ878ZQFaDxFcxEwvPsOImDIGgDxRRHAEyhbh1SZe/alhEVG6ZeREF6k6tA+OttbdI3Z293FwV1bsA8Okpw+6phbBkPDI6mvLqe7o03tZcwoiwHXa0hV+BmZARBfdAmg+uZ9Uno2CakZOqYjhHdJycxxS1yn08muTWt4/ck/UVNx8JjPGTtxhtbLXK81gPAvUgCIL7pay+DCKbP0ykMIrzS6aDKWIPc1UO3qaOO9l//N2hWvfK3PQHZ+kdbba4WA5ipC+A+5BSA+lwb8FZVFYVhEFHPOvliP/uVCeK1gWwi4XNRVlrn1Oq2NdRzcvY2wiCjijp6lYTKbGejvo6G6QktoO7BChxSFH5ACQHzuOygLhVQpmjaHtOw8HdMRwjslZ+TQ2das246A4xmyD3KkdA9NddUkp2cTHBJKZEw8+7Zpuo2fCfwZ6QkgkAJA/M8jgOpj++aefQm20DAd0xHCO5lMJkYVFGGxBFFfXaGlS9+wdLa1cKBkM0HWYNJz8miqrdKyEDEC+Bg4ol+GwldJASAAcoH71Q5OSstiwsz5OqYjhLczkZwxitxxxbQ1N2hZnT8sTqeDmvJSKg/tIyUrV+ttgG5gpT6ZCV8mBYAAuBYNncKKZ84nMTVTx3SE8A220DDyiqYQGh5BQ3UFTofDrdfr6+mmsUbzl/cM5DaAQAoAobgPZRZgxMwWC6cuXiJ9/0XAMplMJKZmkD9+Cp3trXS0Nhmd0slEAh8AVUYnIowlBYCIQjkoRNXPQmbeOMZMmKZvRkL4IGuwjdxxE4lPTqehugL74IDRKZ1IA/CR0UkIY0kBIM4HrlA7eMrcM4hNSNYxHSF8W3RcImOKpzHQ33fSFr8GigQeMzoJYSzZtC3OVzvQbLGQkVugZy5C+IVgWwhzFl3MuVfeREx8ktHpHMtElN4fIoDJDEBgMwOPorL9b1p2HmOKp+ubkRB+JCIqhoJJMwiyBtNQXYHLdeKT/zzIBOwGdhidiDCOzAAEtsmA6q8nGaPl278QJ2M2WyieOZ8LrvsuSWlZRqfzRap3/gj/IAVAYDtVy+DM3LF65SGE34tNSOa8q29mzqKLsQbbjE4H4DQ0njEsfJsUAIFtrtqBMfFJRMXG65mLEAHARMHEGVz67TsYNabI6GQSAZnGC2CyBiCw/RllNfCI5RdPJX1Uvs7pCBEYrME2csYWE5+cTn1VuZFbBkuAbUZdXBhLCoDANQa4S+3gyXNOJypGZgCE0ELZMjidoSE7zfXVRqTQDrxuxIWF8eQWQOBSPf1vMpm9bTGTED4r2BbCKaefz+IrbiI6PtHTl9e0Dkj4NpkBCFy3o+wCGLH45FQKp87WOR0hAltEVAwFxdPBBU21VW4/ZfCoGKAV2IKcDRBwpAAIXA8ACWoG5o4tJiN3jM7pCCHMZjNp2aPJyi+kpaGW3u5OT1z2HOBM4DPA6w8yEPqRAiAwhQEPonIL0ISZ87y1u5kQfiE0PIIxxdMIj4yivqrc7acMApnAjShNwdYCbr+gMJ4UAIFpEnCT2sEzTzvfW/YxC+G3TCYTCSnp5I+fQld7mydOGbSgrA26HKVLYIW7LyiMJQVAYFoEXKhmYGRMPJNmLdQ5HSHE8SinDBYTHZdIfXUFQ/ZBd18yDrgGSAU+Bbz6WEOhnhQAgekaYJaagWlZueSMLdY5HSHEycQmpjCmeBr9PT20Nta7+3ImYBpwLVAG7Hf3BYXnSQEQmO4ERqsZmDO2mNSsXJ3TEUIMR1CQlez8QpIzRtFQc4TB/j53XzIS5ZZAFvARYHf3BYXnSAEQmP4IRKgZWDh1tiwAFMJgkTFxjJ04HbPZTGNtpSe2DE5GuXX4OtDr7osJz5BGQIEnEUhWOzg2QfVQIYSOLEFWJs85gwuuuY2ElAxPXHIq8B4qjw8X3kdmAALPROAGNQMtQVZmLFyMySQHiAnhLULDIxlTPI1gWygNNUdwOt26gy8VpY34K+68iPAMKQACz1xgiZqB8UmpjJ00U+d0hBBamUwmktKzGF04ifbWJrraW9x5uULgAMpWQeHD5BZA4MlUOzA6zuN9yoUQIxARHcuiy77J/HOXEhLm1pn6PwDB7ryAcD+ZAQg8lwOqvsZnjh5LWnaezukIIfQWl5RK/oSp9PV00drkli2D0SiNgra7I7jwDJkBCDzZagdGREbrmYcQwo1CQsOZd+5S5ZTBOFXHfpzMNe4IKjxHZgACz49RFvKMWMGkmXIbQFcuWhvrqS4vpbGmkq72FoJDQgm2hRidmPAjEdGxjJkwHadziOa6aj23DGYBfwX69QooPCvI6ASEx2WpHRgRFaNnHgGtbN9Otq/7kI7W5q/8FxPpo/KYvuAc4pJU1WlCfE2Q1cr0BYvJHTeJT99dRktDrR5hzcB04AM9ggnPkxmAwBIC3K928NR5iwgKsuqYTuDp7e5i9fIXKdm4moG+Y/dT6WpvpbRkM/bBAZLTR2G2yMtU6CMsIpIxxdOxBttorDmC0+nUGnIjsFmH1IQB5J0lsMSjtAEeMWuwjSlzz9Q5ncBStm8nHyx7itamupM+1+Vy0VhTSdn+EmITkomMifNAhiIQmEwmktOzyR03kY6WJrraW7WE2wKs1icz4WmyCDCwqF7FZwsJ1TOPgNLf28PHbzzH6uUvMtA/si6qXe0tvPvSE6x55xV6u7vclKEIRJExsWSPKcJslu+BgUrWAAQW1QWALExTw8XhPTv4bNUK+nu7NcU5tGcbRw7uYdLs0yiaOkduCwhNujraWPfuMmqPHNYcSo98hDGkAAgsUWoHWqUAGJHm+mo2fricxtpK3WLaBwfYvHolpSWbmbHwXDJHj9UttggULvZt28iWNe9iHxzUI+BBPYIIY0gBEFhkBsDN+nq62brmPQ7u3uq2E9o6Wpv5YNlTpGblMm3+2SSmqm7uKAJIV3sLa1cuo76qXM+w0gjIh0kBEFhUzwBIAXBi9sEB9mxdx67P1mAfHPDINesqy1j+zD/Izi9k6ryz5JhmcUyOoSF2bV5DycbVDNnteobeDVTpGVB4lhQAgUX1DIA12KZnHn5jcKCfPVvWsXfrOgb6+wzIwMWRg3uoPLSP/PFTmDz3DMKlY6M4qvLQPj77+B13HQ70vDuCCs+RAiCwqP4aLwXAlw309bJn6zr2bl3P4IDxjdBcLielu7ZweO8O8sZPoXjmPCJj4o1OSxiks62ZjR+9TXXZAXddohf4p7uCC8+QAkAMi8lkMjoFr9BcV82+7Rsp278Tx9CQ0el8jcMxxIGdmygt2ULuuGKKT1lAbEKy0WkJD7EPDrBz42r2bP4Uh8OtP5+/B77axlL4GCkAhDgJx5Cdsv272Ld9A8111UanMywul5PDe3dweO9OsvLGMnHWQlks6MccQ3b2bttAyWefHLfDpI52An9090WE+0kBIMQxOB0OaioOUra/hMqDez22sE9/LioP7aPy0D5Ss0dTNHUOmaMLMJmkB5g/cDodlO7czI4Nq+jt7vTEJVuBpcgBQH5BCgAhjhqy26mvKqOidA9HSveMuGuft6s7cpi6I4eJiIph7KSZjCmeTkhYuNFpCRWUGR7lQCmNrXxHoh1YBJR66oLCvaQAEAGtrbmBmvJSasoPUl9d7pX39fXW3dnOljXvsX3dR4waO4Fxk08hKU31IZHCg4bsdkp3bWHPlk89+cEPyof+RcA+T15UuJcUACJg2AcHaK6rprG2ksbaSprqqujv7TE6LcM4HEMc3rOdw3u2E5+cxrjJs8gdN5Egq5z46G36e3vYu20D+7dvpL/Poz+zLpTV/j8GPHKPQXiOFACBRXVrOjXHhvZ2d1F1eB/tLY24nE5soWFERscRGaM8wiIiAX13F7hcLvp6uujubKeztZn2lkbamhtob2mku6PNbd35tDhn1gTuvGoRf3npQ95au8OQHFoaavn03WV89vHbjCoYT17RFFIyc2T3h8E6WprYs209B3dtxTGkaxOf4TgCfBv40NMXFp4hBUBgUf3VwT44/DU/A/29bF79Lgd3bTnhB64lKIiIqFhsIaEEh4RiCw3DZgvFFqr8e1DQsb+JDvb343Q5GOjrY6C/l8H+Pvr7eunp6qC3qxOn0zHi/z8jpCZE89D3vsElC6YAMKc4jw827eWOv75EaWWDITnZBwc4uGsrB3dtJSIqhryiKeSMK5athB40ZLdTfmAXpSWbaaiuMCIFF/AY8BPksB+/JuV9YLkaeEbNwJyxxSy84IqTPq+ro433Xn6SzjbZInw8wdYgbr1kIT+//lyiwr/em2nQPsSjr3/C759eQWund9yiiIlPImdsMTljJ0jLYTdpaajlQMlmyvbuMLK5VAVwA/CxUQkIz5ECILCcD7ylZmD6qHwWLf3WCZ/jGLKz/JlHaG2qV3OJgHD+3In87tZLycs4+Ydoa2cPDzyzkn+8tppBu/csToxNSCYrr5DMvLEkpmbKbQINOlqbqTiwi/IDu2htrDM6nVqgANBydrXwIfLKDSzzgE/UDExMzeT8a2494XN2bVrD5tUr1YT3ezOLcrn3pguZP7lgxGPLa5u5+19v8srHW3A6vWsNQ0hYOJm5Y8kcPZa0UXlyaNQwdLQ0UV66i4r9u7ytWN4MzDA6CeE5UgAElomAqlVm0fGJXHrDj074nJcffYDuznY14f3WxPxMfn3DBSyePUFzrN1lNfzmyeW8tXanVy5mNJnMJKSkk5o9mrTsPJLTs7AcZx1HIHEM2amvrqC24hDVZQdoazZmfccwvI+yz18ECFkEGFg61A60n+SeZGdbi3z4f8GMohx+cvU5nDt7gm5T5ONz03npvpvZdqCSe554i/c27tYlrl5cLidNdVU01VVRsnE1lqAgElMzSUrLIjEti8TUzKM7P/yby+WitbGO2opD1FQcpKGmwlf6S3i0sYAwnhQAgUV1AdDf14vL5Truh1lPl+rQfsNsNnHWjCJ+eMWZqqb6h2tKQRZv/uG7bNpTzh+eXck763d55YyAY2iI+qpy6qvK//t7EVExJKZlkZSWSUJKBjEJydhCQg3MUrve7i6a66tpqquiuU751RtOiFRBCoAAIwVAYOkEhlDx9+50OOjr6SIsIkr/rHxcUmwU1587m2+dP5dRqQkeu+6Mohxe/d2t7Cmv5cHn3uOVjzYz5Bh5vwZP6u5sp7uznfL9Jf/9vbCIKGITkolJSCImPpnYhCSi45O8rjAYHOins7WZjrZmOlqaaG9ppKmuyp+K3xajExCeJWsAAs8RQFXf1/OuvuW4LWN7uzt58ZHfacnLp5hMJuZPHsONF87j/LkTCbYaX0sfqW/hTy98wFMr1tE33F50mAAAIABJREFU4PGmMbqzBtuIiIohPCrm6K/RREQq/x4cEqr0j7CFYg0O1nwtx5Cd3p5u+ro76evtpqerk/7ebnq7OunqaKW9pYm+Hr/fEn8L8KjRSQjPkQIg8KwF5qoZuPDCK8kpOP5itree/hvN9TVq8/IJBVkpXLxgMlctOoX8TO9sjtPS0c2Tb3/K42+soarB/2d1zWYLwSEh2EJCsQbbALAEWbFYvl6UOZ0OhuyD2AcHcTqGGBzoZ2hoyIgue97oAmC50UkIz5ECIPA8B1ypZuCMhYsZP/3U4/738v0lrHrrBbV5ea1xo1K5dOFUFs8uZkqB7xya43S6WLlhF39ftopVW/d75ToB4VWmANuNTkJ4jvHzlsLTqtQO7Ok88b3OnLHFlB/YRcUB71qdPlKhNiszi3I5Y3ohF82fPKymPd7IbDZx7pxizp1TzJ7yWv6xbBUvfrCJ7r4Bo1MTOksflU/BpJl8/MZzaDjyo1bHlIQPkAIg8KguAIazzW/+uUtxOV0cObhH7WU8LtRmZUZhLvMmj2HBlAKmjRuFzQvu6eupKCeNv915Fb+/bQmvrdrKUyvWs37XYZkV8GEWSxC5hRMpmjaXuMSUo02FVP99DgBN+mUnfIF/vcuJ4ahUO7Cj9eTvD5YgK6dffBUHd29n54ZVXncmQFhIMEU5aRTnZ1I8OoOJ+RlMLsj2uw/844kItXHt4tlcu3g2h2uaeHblBp55dwPVjW1GpyaGKSIqhjHF0ymYOJ3Q8P/1VdD4WisHvHsLidCdrAEIPKq7AZrNZq754T3HXFx1PB0tTTQ31NDd0UZXRytdHW10d7TR09mu6ojh4bBZg8hKiSc7JZ7sVOXXnLQEJozOID8zCYvZ7Jbr+iqn08Wqbft5ZuUGVqwvobPHJ/ew+zWTyUzm6AIKJs4gI3cMJtPXf4ZLNq5my5r31F5iOcoiQBFAAuNrj/iiwyiV/og/BZ1OJx0tTcQlpQ57THR8ItHxiceMVVqymfXvvzHSNABl7/33v3EGcVFhxEVFEBcVRmxUOPFR4aTER8sBNSNgNps4fdo4Tp82jv5BOx9t3sdrn2xjxboS2rp6jU4voMXEJzG6cBJ546cQHhl9wud2tGqaASjVMlj4JikAAk83ypGfuWoGtzU3jKgAOB6z2awpjsVi4o4rz9Kch/iykGDrfxcOOpxOPttdxrLV23jloy00tnUanV5ACIuIYlTBeHIKJpCcMWrY41qbNJ0meFDLYOGbpAAITCWoLQB0PL0sMjpO9dj6lk76B+2EBMthM+5iMZuZXZzH7OI8HrhtCZ/uPMj7n+3hoy37KDlULQsIdRQZHUtWfhHZ+YUkZ4wa8QyW0+mkvaVRSwoyAxCApAAITLuAi9QM1PP40tDwcCxBVlVNWFwuF1UNrV7bjMffBFnMLJhSwIIpyhkHja2dfLRlH+9v2svHW/bR0CqzAyMVFZtAXtFksvILiUtM0RSro7VJ64FDvr13V6giBUBgUv1i13MGAExERMfQ0aJu99GR+hYpAAySFBfFFWfN5IqzZuJyudh1uIYPN+9lzfZSNu0tp7Wzx+gUvd7EWQvIHz9Vl1itjZqm/2uRLYABSQqAwLRL7cCerg76e7sJCYvQJZHIqFj1BUCdnF3iDUwmE8V5GRTnZfCjK5R1GXXN7Ww7UMmG3YdZV3KI7Qcq6R+UdrtfFBEVq1uslgZNLbhV7QoSvk8KgMB0EOgHQtQMbq6vISNXn+NuI6LVvwkeqZcCwFulJsRwbkIM584pBmDAPsSO0ko276tgy74KDhypp7SygZ7+wO1KGKnhZ/+rNJ7BUXLypwh/JAVAYBoC9gGT1Qxurq+WAkCMiM0axMyiXGYWfXntaVVDKwerGiitamB/RT2lVQ2UVtZ7ZWMimzWI0RlJ5B19RITZuPcJdWfnmM1mwk6yrW+4XC4XLQ2auvhKARCgpAAIXNtQWQA01VXrloSWb0EVcgvA52Umx5GZHMdp08Z96fd7+wepbmyjqb2LupYOGlo6aGrvoqapneb2buqa22lo66Snb0Bz46LYyDCiI8KIjgglOiKUtIQYUuKiSU+KISU+mvSEGDKS4shIisVs/t/q/E93qt85FxYZjVmnhlQdrU3YBzXNpGzVJRHhc6QACFxbgBvUDNTzyN/wqBjVY2UGwH+FhQQzJiuZMVnDW+Tpcrlo7+4DoKO7F5cLOnv6cDj/t1XRYjYRFR569J/NREWEEBMRpjpHLWtQdJ3+11aQtyM9AAKWFACBa4vagX09XfR0dZy0MxmAwzGEfWAA+6DycDqdmEwmgm0hhISFa3ojbGiVXgBCYTKZiI1UPsw//9XdKjQUoBFRsbhcTvp6ev772gCwBtsIslqxBtsItg1viY7GgnwbGk4QEr5NCoDAVYJyAphNzeDm+pqvFQA9XR3UV5bRVFdFR2sznW3NdHd24HIdv+e/JUj9h7f0AhBGqmxQXwCU7d/JoT3bTthMyRpsIzougajYBGISkkjJyCExNRNL0JfftpvrNc0AbNYyWPg2KQAC1yBKETBdzeDm+mqy8sbRUF1B2f4SqssO0N0x8oVbapoAfZH0AhBG0XILYDhNe+yDAzTX13zpG77FEkRiWiajCiaQUzABW2goLdp6AKieCRS+TwqAwLYFlQXAod3bOLR7Gz1dHTqnNDLSC0AYxYg1KA7HEPVV5dRXlfPZR2+TkJKutYiWAiCASQEQ2FS/+I3+4P9cZUOr0SmIAORwOg3fquhyOWmqq9ISognlYDARoORg9MDm8/f/ZAZAGKG2qR37kMPoNLTy+de/0EYKgMC2F/Dppu1aVmILoZafbEGVAiDASQEQ2Bz4eB/wI/XNRqcgApCfzDzJ/f8AJwWA8OlvAfUtnXLIjPA4P5l5kg6AAU4KAOHT3wI+7wUghCdp6QHgJaoBTfsHhe+TAkD4dAEAfnM/VvgQP7gF4NMzf0IfUgCIUpR+4D7LD96MhY/xg6LT5wt/oZ0UAMIMNBidhBZ+8GYsfIg39ADQQaPRCQjjSQEgHgQKjE5Ci8p6WQMgPMdPegA8BBQZnYQwlhQAge1G4AdGJ6GVn6zIFj7CT2acooDlQJLRiQjjSCvgwDUHeMQTF7JZLSTHRBARYsViMdPW1Udbdz89A/ps35NeAMKT9JxxsphNxEaEEBsRSkhwEL39drr7B2lo90h/rhzgWeBs4PhHdgq/JQVAYIoCnsFNf/+jkmJYWJzN7LEZFGUlkp4Qidlk+trzBuwOSioa2VRaw2elNawqOaLqeg2tSi+AkGD1RwsLMVwVGgrOpJhwFk3OZVp+KjPy08hIiDrm87r7Bymrb2dTaS3r91WxZk8lA3a33HY4E2UW8GF3BBfe7evvyiIQPAVcq2fAIIuZi2cVcOX88UzLSx3xeJcLxtz8CP2DJz8m9Vh2PXePHAssPOI7DzzNU++sVzX2hxfO5EcXzRzxuM7eAd7adJAnPtjBoVrd17wMADNQjgcXAURmAALP6ej44W8ywWVzCvnRRTNJj4/UFCcjPpJDdepWVx+pb5ECQHiElm2nGQnqXiNRYTauXjCeK+cX8c7mQ/zu1XVUNXWqzuMrbMBjwGzApVdQ4f1kEWBgCQL+rFew3JQYlt11GQ/dcIamD//PHW86dDikF4DwFC2LADPi1f+MA5hNJs6fkc9H913NbedOO+atNZVOAa7SK5jwDVIABJbvAOP1CHThzDG88+vLmZ4/8un+48nUUgD4x8ps4eW09gDQ8jP+RaHBQfxsyWyevfMiEqJCdYkJ/B4I1yuY8H5SAAQOG/BzPQLdungq//eds4kICdYj3H9pmUWQXgDCE7T0ALCYTaTGReiaz6mFmbz1i2+QkxyjR7h04CY9AgnfIAVA4LgSSNMa5CeXzOKuy+ag38zj/2j5diS9AIQnVGo4eCo1NoIgi/5vuZmJUbz6s0vJTorWI9wPANlOEyCkAAgMJuBOrUG+deZEbj9/ug7pHJumNQAG9wIYsKvbvSBOzpv+bLUtANRn+v9YkmLCee6Oi0iICtMaKgu4XIeUhA+QXQCBYR5QqCXAzIJ0fnn5qTqlc2xaZgDqWzzfC2B9ySEef3MNq7cdoL6lA7PZRF5GEufMmsDtl51ORlKsx3LxJwP2IZ5c/ikvf7SZkoPV9PQPEBYSzMyiXC4/YwZXLpqJNchiSG7ldeoLTb3u/x9PdlI0j9xyNlf88XUcTk2L+b+D0idE+DkpAAKDpoo+OtzG376ziCCzeyeMEqLCCAkOUtULwOVyUdXQ6pGtgAP2IW7743M8++6GL/2+0+mitLKB0soGHn1tNQ9+byk3XjjP7fn4k50Hq7jiV49TVtP0pd/v7R9k1db9rNq6n7++/CEv3vcdQ7Z9VjaonwFIV7kFcCRmjc3g1nOn8X/LNZ32OxvIBtR15hI+Q24B+D8rcJmWAD+5ZBYpsfouXjoWkwnS49S/SXpiJ4DD6eTSnz3ytQ//rxqwD3H7Q8/zpxc/cHtO/mLnwSrOuP2hr334f9We8loW3vbgSZ/nDlpuAbh7BuBzP7hgBrkpmhYFmoArdEpHeDEpAPzffCBe7eCC9HiuWjBBx3ROLDPRu3sBPPDMSj7cvHfYz/9/j77Glv0V7kvITwzYh7jiV4/T1ds/rOc3t3dx7T1P4NQ21T1iRvYAGK7gIAt3LZmjNcwleuQivJsUAP5voZbBt58/HYvZcx2jM7RsBdSwQns42rt7+fMIv9E7nS7u/udbbsrIfzz1zroRf6Pfsr+CN9fucFNGX+ctPQCGY9GU0YzLTNASYjLKmSHCj0kB4P9U34ROjY3gvOn5euZyUt7cDfC9jXvo7BneN9QvWrV1P01tXW7IyH+8umqrqnGvfKTpXveI1DV3eFUPgBMxmeDGsyZrCRGEcmKo8GNSAPi3EED1vr1LZo/16Ld/8O5eANsOqFsT5XA62V1Wo3M2/mXbfnV/tjsPVumcyfFpmf53Vw+AE1k8PY8wm6ZdMbKC1c9JAeDf8lE6AKri6W//4N29ANq7e1WPrWvu0DET/2IfctDdN6BqbF2L5/5ctcwwpXtw+v9z4TYrCydkawlRpFcuwjtJAeDfxqgdGBsRQmGWpnuIqmhZA/B5LwB3MWk4PXvA7r68fJ1ZwyyTO/++v0pLD4AsAwoAgDmFmVqGe/4bgPAoKQD8W57agdPyUvU8aWzYEqPDCQlW157i814A7mJTmRd4Vzc7b2Mxm7Go7DHhdLoYcjh1zujYvL0HwLHMHKOp+3cu0ivGr0kB4N+y1A7MT4vTM49hM5m0zQK4sxeAzaqhAFDR3CiQaCuuPDML4As9AL4qJzlGSwOvYMDz3ZaEx0gB4N9ULzsepc/pYqp4604Am1X9giqZATgxLS2cPVVcadlm6qkeAF9lDbJonX0wZupCeIQUAP5N9Ys3Okz12kHNtMwAVDW67xZAeKj6PxNPnlHgi7T82WqZPRguh9Op6faSUTMAoPm17Lm9i8LjpADwb+GqB4YY94GlZQagotZ9MwDZKepvi6QnGjej4guyU9Q1q4yNDCM8xP3Fqi/1APiqiNBgLcNlBsCPSQHg31TPjQ45PNti9Ys03QLQsFDrZBZMKVC1Yt1iNjN/suoNGQFh4dSxHh03UhUadgAY0QPgi+xDmhZJyvYVPyYFgH9T3X6ud2BQzzxGxFsXAaYmxHD+3IkjHnfZ6dNIiJEvUidy3eLZhKpoWnPrpZo6XQ+blrUlWgpaPfT0a3otSwtLPyYFgH9T/eJtaFff9EarrMRo1WPrWzrcujf897cuISYibNjPj4+O4L7vXOy2fPxFRlIsd1137ojGXLloJnMnemarupaZJaMLgMYOTa9lKQD8mBQA/k11m7SyevWHnmiVEBWmuheA0+neXgA5aQm8/NubiQ4PPelzYyPDeOW3N5ORFOu2fPzJj69axI0XDq/77JkzCvnbHVe5OaP/qazXsAPAoB4AAB09AzR3aioApIWlH5MCwL+VqR24r8q9bXVPxJt7AQDMmzyGtY/9jDOmFx73OYtOGc+nj9/F7GLVvZgCjslk4v/uuJLHf3YtKfHHngWKCLVxz40X8voD3yUsRNPithHR8jNl5A6AfdWaXsftgPvP2BaGkS5P/u2A2oE7yhro7h8kwoNvsl+UHh/FoTp1sxBavq0N15isZN5+6HvsKa/l/c/2UHn0AyInLZGzTxnPmCzpn6LWtYtns/SM6Xy8ZT+b9pbR1N5NbGQYE0ZnsHj2BCLDQjyek5ZFgEb1AABYt0/TYUmq3z+Eb5ACwL+pfgEPOZ1s2FfNmZNz9cxn2DI1TJu6ewbgi4py0ijK0dRuVRxDSLCVxbMnsHj2BKNTweF0UtPUrnq8kbcAPtlVqWV4qV55CO8ktwD8Ww0apvBe22DcFwBv7QYoAk9dcweDKjs5Wswm0uKMKQDKG9rZUV6vJcROvXIR3kkKAP/mAlarHfzBjjKaO/v0y2YEtNw3rfDgDIDwf1pmlFIM7AHw0tq9uLS181ilUyrCS0kB4P9Uv4gH7A7+9f52PXMZtnQNiwC1nNomxFf54iFAXX2DPLNql5YQrcAOndIRXkoKAP/3sZbBT31UQpO2fcSqaO0FIIfvCL34Yg+Af6zYSmfvgJYQqwHPnLMsDCMFgP/bB6j+KtDdP8hvXlqrYzrD4829AERg8bUZgIrGdh5/b5vWMK/okYvwblIABIZntQx+Y+MBPtiuuqWAKt7eC0AEDi0/S1puZakx5HTyo399yIBd3cFFR3UCb+qUkvBiUgAEhucA1e8ILhf86IkPqW7xbFfQdA37p2UngNCLlgLA07cA/rhsA5sP1moNswwwZvWv8CgpAAJDDfC2lgDtPf1c+/CbtPf065TSyflKLwDhvxxOJ9WN6ttia/kZHqkX1+zhHyu36hHqMT2CCO8nBUDguF9rgIO1rVz78FseKwKkF4Awmq/0AFi+qZS7nlqlddsfwIfAZ9ozEr5ACoDAsQn4QGuQ7WX1XPq7ZdS2uv92gPQCEEbzhR4AT36wk+8++h5DTl0W7f9WjyDCN0gBEFjuQWkOpElpTQvn/PpFVpUc0SGl49M0A1Bv3GFGwn9UevH9/54BOz/45/v8+vlPcOrw1R9l699qPQIJ3yBnAQSWdSg7Aq7RGqi1u4/r/vwmV8wbz12XzSYmXP8DWlo0HGPa0NrJgH0Im9X7f8SdThe7y2o4Ut+CzRrE6IwkRqcnGp2WJt19A+woraS5o5v4qHCKctOJiwo3Oq0R0zKTNGh30NEzQHS4TceMFKtKjvDL51ZzpFG303rtwO16BRO+wWR0AsLjkoH9QIxeAWMjQrjp7Clcf1oxEaHaTw/cU9nEA8vWa55h2P38veRlJGnOx136Buz86cX3efyNNdS3fPmNPD8zmTuuPIvrFs/GZPKdl+n+I/Xc9+Ry3ly7A/vQ/zaeBFnMnDWziHtuvIgJo9MNzHBkbn7gGf7zzjrV46PDbdxyzlS+deYkQlX2tfiirYfq+MvyTe6YfXsQ+LHeQYV38513FqGnm3DDSt/I0GAumDmGS2ePZcroVCzm4f94tff0s3zTQV5bv5+th+v0WMzEOw9/n9OnjdMeyA2O1Ldw0U/+xr6KuhM+76yZRTx3z42GHIE7Ui+8/xm3/vFZ+gbsx32OxWzm4e9/g+9cPN+Dmal3zg//zKqt+zXHiQqzcd70fC6dPZbp+WmMpKZr6epjxZZDLFu/n62HTvzzolIFMAHodkdw4b2kAAhcLwOXuSt4VJiNmQXpTMhOZHRKLCmxEYTZrNisFtp7Bmjv6ae5s5ed5Q3sKGvgQHWLXouY/uuRH1/Nt86fq2tMPbR19XLKDb8d9gKzM6YX8voDt2ENsrg5M/XeWVfC0v/3KI5h/h3+867ruOacWW7OSrvCK35JWU2TrjHjIkKZlJvMxJxk8tNiiYkIJSbcRmiwld4BOy2dfVQ1d1Ba28rm0lr2V7fodY//WAaBU1EWCYsAIwVA4IoEtgBjjE7EXX527Tnc/e0LjU7ja276/dM8vWL9iMbcfPEC/vzDy92UkTa7Dtew8NY/0N03/N7zYSHB7H3hN6TEqz/zwd2cThcxZ96uehugj/gh8GejkxDGkF0AgasLuPzor36potb7tgLWNLXxwvsj32b96OureeItz5/JcDLN7V0sueuREX34A/T2D/LIMu8+bbaupd3fP/xfBP5idBLCOFIABLbtwIWApmPDvJWWU9zc5cNN+760OG4kfvDnF1m2SpdOb7po7ezhgh//n+q98ivWazqu1u0q/LuZ1CrgenTYFix8lxQAYhXKTICm00O8kTe2A95/RP0iLvuQg2vveWLEtw/coamti0Xff5htBypVxzhQWa9jRvrz426SJcAl+GnhL4ZPCgAB8AawFPBco38PqGvuoH/w+CvSjTCgcUrZ4XRy8x+e4b5/vz3sBXd6215aybxbHmDX4RpNcYYcToYc3nvkfIV/NpPaBJwOtBudiDCeFADic68B56IcBeoXXC6XpoNc3CEzOU5zDKfTxX3/fpvz7vgrja2e++tyuVw89vonLLjlD5TXav9wTE2I9kirXLUq61uNTkFvH6B8+PtlZSNGzntffcIIHwOnAe7t8etBem/h0mrh1LG6xVq1dT/FV9/Ng8+95/bFagcq6znvjr/y/T+9oHkW43OnTfXOHg2fK6v1rp8djf4OLEb2+osvkAJAfNVWoBh4xehE9HCoutHoFL5kUn4m0wtzdIvX3t3LLx57nVO+fT8vfbhZ9QLD49l/pJ5b/vAsU669l4+27NMtrslk4tsXeF+Phi86cMS71ygMUxdwBfBdwK+3NIiR897OIsJIA8CrQCtKkxDt/X0NkpueyNmnjDc6jS8pzsvgmZUbcDr1W4Dd1N7FG59s5+kVG+gbsJMUG0V8dISqWN19A7y9roSf/v1VfvK3V9leWolL50Y0Vy6ayW1LTtM1pp46evq4+19vGZ2GVp+ifOtfY3QiwjtJIyBxMhkojUIuNToRNU6fNo53Hv6+0Wl8zb/eWst3H3zOrdcYk5XMWTOKKM7LYPzoDPIzk77WUtg+5KCuuYPdZTXsOlzN+l2HWb11v27T/McyMT+Tj/9+J+Eh+h+So5fNe8s59eYHjE5DrSbgp8B/kG1+4gS8/6g0YbRqYAlwFspxwqcYm87I7DhYZXQKx/TtC05l9+EaHn19tduuUVrZQGllw5d+z2I2Ex0RSojNSkdXHz39nt0JlhQbxav33+LVH/4Ae8prjU5BjR7gUeB+lNk7IU5I1gCI4XofmAWciQ+dGd7S0U1Vg3e+Fz74vaUsmFLg0Ws6nE5aO3uobWr3+Ie/NcjCc/d8W5edEO62ZV+F0SmMRAfwW2AUcCfy4S+GSQoAMVIfAguBQuB3gDu/YjuBT4Bb0LB6WUuzGncKsph5/t6bmJSfaXQqbhdkMfPkL77JqZN84+iJzdoKgKeAh1Fmz9zFAawErgLSgF8g2/vECEkBINTaB/wc5VvHHODXKB/WWr9W1gEvAbcBmcAClGnNLWoDrt91SGNK7hMXFc67f/khM4tyjU7FbYKtQTx7z41cdto0o1MZlt7+QfaUaWpy9ApwB5ANzAPuA9ai/bVRhVJcXAekoyzwex7o1RhXBChZAyC0cgLrjz7uBcKAcSinDI4FRgNxQMTRRzjK1qQOlHuW1cCho489wOHjXGczSjEwYp/uPKhmmMfERISx4k/fZ8ld/9Dl7HlvYrMG8dy9N3HenGKjUxm2rfsrtHYo/LxYdaJ88H9+ilMIMBHltZEP5AJJKK+JcMCGMtPVjvIaqQf2AweO/uo3/TmEd5ACQOitF6WXgN6n1qg+r3xHaRWdPf1EhYec/MkGCQ+xsex3t3LtPf/i7XUlRqeji7iocF74zU3Mn+zZdQ5afbhZU7+DaqDhOP+tH/js6EMIw8ktAOErVBcADqeT1du8/5t1WEgwr9x/Cw9+bynWIN9u0TF1bDbr/3mXz334A3y4ea+W4Zv1ykMId5MCQPiKSpT1Aaqs3LBbx1Tcx2Qy8d0lp/Hx339Mdkq80emMmMlk4rYlp7Hq7z9mVGqC0emMWEtHN9tLNS0a/USvXIRwNykAhC9Ze/KnHNvKDbt072bnTtPHjWLd4z/j8jNmYDL5Rr+u7JR4Xvv9rTz0vaUEW33z7uL7n+3R2qFxtU6pCOF2UgAIX/Ku2oH1LR1s3luhYyrulxATyX9+9S3WPvZTXc8P0FuozcovvnkeO565m3NmTTA6HU2WrdK0dKUZ2KVTKkK4nW/faBSBpgH4ESpbWEeEhXDWzCJ9M/KAtIQYrls8m9T4aLYdOEJPn2cb+ByP2WxiycJpvHL/rZx/6kSfX7fQ3t3L7Q89j8OpegfACuBlHVMSwq18Y25RiP/ZgbKVasRS4qM5vOx3WMy+O/E1aB9i+ac7+cvLH7JpT7khOUSGhbD0jOl8b+npFGSlGJKDOzz77ga+ff9TWkJ8G3hCp3SEcDvfvFEnAtlKVBYA9S0drN52gNOnefc59CcSbA3i0oVTuXThVNbuKOXxN9bw3me76ezpd+t1TSYTk8dkcsVZM7lu8Ryv3lKp1osfaFrA7wSW65SKEB4hMwDC18xDw0rrSxdO5bl7btQxHeM5nE4+213GstXbeHPNdqob23SJG2QxM70wh0sXTuWieZPJSIrVJa43KqtpYvxVv9KyAPBTlKOzhfAZUgAIX2NG6YiWoWZwsDWIQ6/cT1JclL5ZeZGqhtajx/vWsOtQNXvLa2nr7qWzu4/ur6wfCLKYiQoPJSYyjOyUeOXo4Nx0xo9OpzAnDZuPruYfqV889joPPveelhB3Ag/plI4QHiEFgPBFf0R5w1Xlnhsv5KfXnKNjOr5jyOGks6eP/gE70ZGhXn8srycM2ocYveQumtq61IZwobS8NmZRhhAq+e5qKBHIntMy+B+vrWbAPqRXLj4lyGImLirons8pAAAgAElEQVSctMQY+fA/6uWPNmv58Adl+l8+/IXPkQJA+KIdgOrWfvUtHbz0gerOwsKPuFwuHn7hA61hntYjFyE8TQoA4aue1zL44Rfe17LfW/iJN9fuYG95rZYQfSjH/wrhc6QAEL7qacCudvD+I/W8/NGWkz9R+LU/Pqu6ueTnXkc52loInyMFgPBVNcAyLQF++++3tZ77LnzY659sZ+v+I1rD/J8euQhhBCkAhC/7i5bBh6ob+c876/TKRfgQ+5CDXz3+htYwm4GNOqQjhCGkABC+bCMa34B/9fgbtHR065SO8BVPLF/LwaoGrWE0FaBCGM23T+8QAnqAJWoH9w3Y6ezpY/HsYh1TEt6so6ePK375OL39g1rC1AE3AQ59shLC82QGQPi6ZSidAVV78u1P2XagUqd0hLf75WNvaN33D0ozKk0VhBBGkwJA+Do7cJ+WAE6ni+899LyWPvDCR2zZX8G/3lqjNUwD8JgO6QhhKCkAhD/4D3BQS4At+yt4euV6fbIRXmnI4eTWPzyrR6H3ENCrQ0pCGEoKAOEPhoB7tAb5yd9eoaymSYd0hDd64q21lByq1hqmEXhEh3SEMJwUAMJfvADs0RKgs6ef6+59AvuQrOvyN06ni98/s0KPUL9GWXgqhM+TAkD4CyfwC61BNu+r4J4n3tIhHeFNtu6voK5Zc8O+vcC/dEhHCK8gBYDwJ28Amr/mPfzC+3y8ZZ8O6QhvcaCyXo8wd6LcbhLCL0gBIPzND4ABLQGcThc33P8fmts1bxUTXqJ/UPPn9nvASh1SEcJrSAEg/M1BlD3amtQ1d7D0F4/RP6j6vCHhRdISYrQM7wNu0ykVIbyGFADCH90PlGsNsr7kEDf89j/SH8APzJmYhzVIdePT3wCHdUxHCK8grYCFPxoCDgFXag20r6KOQbuD06aN1Z6VMExIsJXSygZ2l9WMdOhu4DqURaZC+BUpAIS/OgikA1O1Blq/6xCp8dFMKcjWnpUwzJSCbJ57byN9A8O+rdMHXAxUuS8rIYwjBYDwZ6uApUCc1kDvf7aHKWOzyctI0p6VMER0RCjTx+XwxprtDNpPuijQjjKD9JH7MxPCGFIACH82CGwBrkfjeheny8Ubn2ynOC+T/MxkPXITBshOjSc/PemeZau32oDM4zxtN3AB8uEv/JzJ6ASE8IDfoEOTIIBgaxBP/eoGLp4/WY9wwvP+HDLv5h8e/ec5wDnAGJR1IxUoW/0+BWTlp/B7UgCIQGAFPgTm6REsyGLmnz+/nivOnKFHOOEpLpbbGuIuNi1dKr2ehUBuAYjA4ETpEHg5EK05mMvF8k93kJ4Yy6QxWZqTE+5ngs9s/WEXmC68UlOTKCH8iRQAIlD0oEztXgMEaQ3mcsE763dhsZiZW5yHySSTaV5sjy0o6AzTwm92Gp2IEN5ECgARSGqBSpStXbr4ZNsBtpdWcvasCYQEW/UKK/RT6jDbzwiec0uj0YkI4W2kABCBpgRlW+BMvQIerGrk3Q27OWN6IbFR4XqFFdoddJjtC8Pn3l5rdCJCeCMpAEQgeh8YBxTpFbCxrYsXPtjExPxMctMT9QorVDPtc5jtp8mHvxDHJwWACEQuYDkwC8jVK2jfgJ2XPtzM0JCD2RNGY7HIURvGMG21Yz0j4tSbG4zORAhvJiuXRCCLROkWqLld8FdNGJ3OP39+PZPyj9drRgxHb/8gG3cfpr6lk9CQYAqykinMSTvRkI9sZuvFprk3yFnOQpyEFAAi0CUBa1GawejKGmThp9ecw0+vOUfLSXQBqaapjfufWsGzKzcw8JW2vXkZSfzs2nO4atEpX9p9YXKZngxOiL3FVLR00NP5CuGLpAAQAlJRGgUVuiP4xPxMHvvZtTIbMAwD9iH+8tKHPPD0Snr6T7xl/+L5k3nyF98i1GZ1uVyue0Pn33K3Z7IUwj9IASCEIg54F5jujuBms4mL50/htzdfzKjUBHdcwud9vGUfP/rLS+w/Uj/sMZcsnDLw/L03XRRy6s3vujE1IfySFABC/I9biwCAUJuV7y45nTuvXkR0eKi7LuNTSg5V8+t/vsnKDbvUhrgEeF3HlIQICFIACPFl0Sg7BE5150XioyP4f9efyw0XnIrNqrkxoU/adbiG3/77bd5cuwOXS9PZOxtRdnQIIUZACgAhvs4G/Au42t0XSoqN4qaL5vGdi+aTGBvp7st5he2llTzw9Eo9Pvg/5wRSgCY9ggkRKKQAEOL4vg88DLh9Q3+wNYglp03lh5efxYTR6e6+nMcN2odY/ulOnlj+KR9v2eeOS5wCfOaOwEL4KykAhDixbwD/AUI8dcEFUwr45nlzOX/uRMJCgj11WbcorWzg6ZXr+c8762lud+vW/Hko2zmFEMMkBYAQJzcdeBkY5cmLRoaFcOG8yVy6cAoLp471mcOGSisbWLZ6K6+t2squwzWeumw2ykFPQohhkgJAiOGJBZ5Ax5MERyI8xMaZMwpZdEoRC/5/e/cdZ1V953/8de+dXoChM4DUQTQihohUUbGXiKIuajZtN9WUTWKaa4yJ609/MZumJq7RGNNsMRo1algFG4IVBVFRdAUVDCBtCmXq749r9hcLOPecO/fce8/r+Xich3mE+Z7zGZhzz3u+51smjWdUff5MJWzZuYslz7zMA0tf5K+PPJPLh/7fvQCMz/VFpUJnAJC6LwF8CbiE9EDByIwY3I+DDxjH5H1GMnnfUUwYMzRnqw2+tn4zz7y8lidXrua+pS/wxPOraX3Han059mXgsigLkAqRAUDK3IeA6+iB5YODKistYdzwQYwfMZjxI4cwakh/hg/qy7CBdQzu1zujsQTtHZ1s2NzIaxs288ambazdsIWX127kmZfXsuLl19nStL0Hv5OMPQ7MANqiLkQqNAYAKZhK4HzgbCDvJ/JXlJVS16uKutpqKsrS5dZUVbB9RysdnZ1sbd5Oe0cnzdt30tiyk47Ozogr7pbngCMBt/yVJOXcJOAp0lsMe+Tm6CQ9HiMeCydIkvJWCXAO0EL0D8diP54Cpnfvn0WSpNwYClwJtBP9g7LYji2kF2ZyX2VJUt6aBNxH9A/NYjh2kQ5VgzL6F5AkKUIn4viAoEcbcBUwLOO/dUmS8kACOA5YRPQP1UI4dpLeiClvplhKkhTWLOBuon/I5uOxGbiI9K5+kiQVpX1I7zL4JtE/eKM+nga+ANSE+huVJKmAlAOnAfeQntse9cM4V0cj8FvgiPB/hZIkFbZbiP7BnKtjWpb+ziSFkIy6AEkAdERdQA5FunOQpDQDgCRJMWQAkCQphvJ+FzNJe/bjTx3J/iMH8tqbjby2sTH93zcbef3NRt7Y3Mzm5h10dWV2zvLSFAN6VzO8fy+G9a9leP9e/3sM69+LT132F1as2dgz35CknDAASAWuqryUvYf2Y++h/Xb7NY3bd6WPHa10dKS3+m3a0Up5aYqykvTy+lUVpfSqLKdXVTnlpXtecj+ZcCdxqdAZAKQY6FWVfrBL0t85BkCSpBgyAEiSFEMGAEmSYsgAIElSDBkAJEmKIWcBqNCVkt5CthKoJb3BTtVbRyENex8WdQE5dDgwMuoi3sc20hs0dZDevGjTW0dTlEVJ2WQAUCGoBiYABwDjgeGkH5jDST/8nZReWC6OuoAQWoF1wCvAauB/gGeBZW/9fxkuuSRFxwCgfLQf6a1ip5B+6DcAe16ZRsqNMtK9FyPf48+agKXAImDxW8fWXBUmZcoAoHwwCDgKOJL0g39ItOVIgdQCh7x1QPr1wWPA3W8dT2IPgfKIAUBR6QOcCJwGHIM/iyo+KWDaW8cFwOvALcAfgYcxDChizgJQLpUApwB/Bv4G/AY4AR/+iodhwJeBh4AXgG+S7v2SImEAUC7UAd8AXgZuBuZQWCP0pWxrAH4AvAbcRLqXQMopA4B60ljg56Q/5C4B9oq2HCnvlJJ+DbaY9ODBk3BWi3LEAKCeMBS4EngeOIv0ND5JezYDuBVYTjoUGATUowwAyqa+pH/TXwV8Bt/tS0HsR/q1wCPAzIhrUREzACgbUsBXSC+K8g3Sq/JJCucg4EHgBnx9ph5gAFBYHyT9m8pPgN4R1yIVmwQwD1hJetaAvWrKGgOAgqoEvkf64X9gtKVIRa+S9KyBJ4HJEdeiImEAUBAfID1Q6XzSS6NKyo39SS8idC4uj62QDADK1HjSH0Bjoy5EiqlS4EJgITAi4lpUwHyfpEykgBvJs3f9lZWV1NcPpaa2hrKycqoqq6isqqSsrHDWGnri8cdYt25t1GXkxCGHHEbvPn2iLmO3urq6aNy2jebmJlpaWmjZ3kJTYyNNTU10dHREXd4/mkV686GPAH+NuBYVIAOAMnEa6S7InEsmk4wePYb9JuzPfhMmMH78PgwfPpwh9UOpq6uLoqSs+pdPfIx1t8cjAHznu9/jgA9+MOoyMtbe3s6ra9awatWLrFr1IitXruSll1ax8rlnaWlpiaqsvsCdpMfjXIj7CygDBgBl4tRcXSiRSPCB/SZwyCGHcshhs5kyZSpVVVW5urz0LiUlJYweM4bRY8Zw9DHHArCrtY2tW7exbNnTPPboEh59ZDFPL13Kzp07cllakvRmQxOBjwI5vbgKlwFAmTigJ0+eTCaZPmMmc085lWOPPZ7+Awb05OWk0MrLShk4oB8zZ8xk4gGT+NRnzqK1tZWnlj7BnXfcxj3z76K5uTlX5ZxCehXOOcCGXF1UhcsAoEz0yLv/ceP25qMf/wQnnTyXwYOH9MQlpB6TSCSoqqqgvKyUrU1NQBlTpk5nytTpnHve91lw73zuuO1WFi9eRGfPjyGYCiwBjiK9+Za0WwYAZWID0D8bJ0okEhw2+3A+9/kvcOhhs0kkXPZchS1VkqJvn960tOygeXu6F768ooLjTpjDcSfMYcOG9fzu2l9x0w1/YPv27T1ZymjSKwgeQXo/Duk9OQ1QmXg47AmSySQnzz2VRUse48Y/3sJhsw/34a+ikUgkqKmpok/vWpLJt/9cDxw4iLO/+e/MX7iIz571JWp79erJUuqBB+jh13YqbAYAZeK3YRoffsSR3LvwAX559TWMG7d3tmoqCmFCUGdnZxYr6Z6uEGPNk8ni/9ipKC+jX10fSkve3cnap08dX/zy1/jvhQ/zpa+c3ZODWwcA9wD79tQFVNiK/05UNi0qKSm5LdNGDQ3j+PPtd3LDTX9iwv4Te6KugldVHfwh8GZj7gd9t+xqDdy2uiYeu0OnUkn61fWisuK9F8usqanhM5/7IrfftYCjjj62p8roTzoEuHCX3sUAoG7btm1b3xdW/c/g/Sd27yFeVl7ON751Dvc/+DAzZh7cw9UVtpqamsBt12/N7Rz0ri5YvyX4NcN8rwUnkaB3r1qqq3a/QeagwYP50c9+wX9d/RtGjBjZE1XUkw4Bg3vi5CpcBgB1y5YtW0a0diQe7tW7z5Rbb7uTeaefscevn3nwLO57YBHf/NY5lJUXzop8UendO/jKeGs2bMtiJd243sattOxqC9Q2kUjQu3deLSSZE7U1VdS+T8/HjJmzuOWO+Xz6s1/oidckI4E7gHh0v6hbnAWg97VpU9O+7V2dfwWGA/Tq1YvLf3Eln/3cWdx44/U8/dRTbNiwnurqGiZOPIC5p5zKrEMOjbboAjNq1OjAbR9YsYa29g5KS3KzN8y9T68O3Hbw4CFUVOz+t+FiVl1VQSIBjU277z0pKyvjy1/9OpOnTOXb3/gKmzdtymYJBwLXAXOBvFrTWNEwAGiPNm5s3Lsz0fUAJN41/W/C/hN9p58lYxsaArdt2tHKkpVrmbXfXlmsaPfmLw0+vbxh3LgsVlJ4qiorgD2HAIBp02dy6+3zOeebX2Xxww9ls4QTge8D38nmSVWYfAWg3dq4saU+keKvZGnuv3Zv3Li9SaWC/wb/+/ufyWI1u/fi2k08vmpd4PZ7jx+fxWoKU1VlBb26MRCyb79+XPHLX/PZz38x21Nl/530aoGKOQOA3tPWrVvrulId87vS7w7Vw2pra5mwf/B9lv669GWefOmNLFb03i7+42I6OoPPAZwxw8GgAFVVFVR3Y+ZHMpXii/92Nhf8nx+ECojvkAB+AwTvdlJRMADoXV57rauyrTN5ewL2i7qWOJk5c1bgtl1dcOGNi2jvwTUBHlzxKvcueyVw+1Qq5WyQf1BbXUllRfcGyJ409zR+evmVlFdUZOvyvYE/AKXZOqEKjwFAb9PV1ZWsqG66AZgZdS1xc8SRR4Vq/8RLb3DB9Vl9X/y/XtvYyJeunB/qHB86cDJ9+gSf7VCMetdWU1bavWfwoYcdzi9/9Tt69craLIrJpLcRVkwZAPQ2G7c0n0N6oJBybNr0GQwfPjzUOX597zJ+s2B5lipK29ayi0/+7A42N4dbcOif5p2epYqKSCJBn9413Z72N+lDB3Lt728MNW30Hb4FzMjWyVRYcjNvSAVhw5amWQm6fo3BMBKJRIJNmzfzyJLFoc6zcPlqdrW1M2Pf4aEHj61at5nTf3grL72xJdR5ysrLufTyK6jIXhd20UgkEpSWlLBz565ufX2/fv2ZdOBk7r7zDtrb28NePglMA67GqYGxYwAQAG80NQ1IdXTdA9hHG6ExY8dyzdVX0RFy29jHV73BslfWM2nMEPpUZ/7Q7ezq4uaHV/LZn9+VlZUGzzjznznp5Lmhz1OsUqkUXUBbW/ce6IOH1DN+/D7Mv/tOusJszJA2AOgC7gt7IhUWA4Do6upK7GzZdT3phUIUodraXqx9/XWWL3s69LlWr9/G7+5fwebmHYwf1p/ayvdek/4fdXR2sXD5aj7/i7v5w/0raG0P/0thSUkJV/3qWvrU1YU+VzErKyulra2djo7uDeQcMXIUQ4YO5b4F92Tj8tOAm4E3s3EyFQb3YRUbNzd+A7gk6jqUtmb1aqZPm0zrru51CXdHIgETRgzkmEljOGD0IIb170VtZTm72trZ0ryTl97YzAMrXmXBslfY0rwza9cFOP3Mj3DZ5Vdk9ZzFqqOzk02bt9KZwVTLK39xGZdf+uNsXP5u4LhsnEiFwQAQcxs3No4jxTLAl7N55OKLLuTH/1n4may2tpYljz3JoEHuQ9NdO3bsYltTc7e/vrOzk7M+80keXvRgNi5/PHBXNk6k/Odgr/ioIz3tZwYwBNJd/yS5Ah/+eeerXzubvUaMiLqM0P79O+f78M9QZWU55WXdn56fTCa5+JKfMHDgoGxc/j/x1XBsGACK3xxgEbAReOyt/70OWH7avNOv7ejsmB1lcXpvFRWVXHnVNZR2c454Ppp58Cw++S//GnUZBalXTXVGMzjq+vblkh9dmo3VAvcBzgx7EhUGk17xqgCuBS4C9uLdYW/Qc88+O/H++xZyzDHHUVXtLqH5pr5+KCWlpTz4wP1Rl5KxwYOH8Kdbb6empibqUgpSMpmkq6ur27MCAOqHDiWRTPLYo0vCXn4CcAXQc8tKKi8YAIpTgvS2n++78sq6detYuOBe5p1xZkH/tlmsDjpoCqtefJEXVj4fdSndVllZyXU3/pGGhnjv/BdWWWkJO3buymia3wcnTWLhgnvYtCnUYP6+wGog/FQU5TUDQHH6CHBed7/4zTc30tLSzOFHHNmDJSmIRCLBsccdz9KlT7L6leDr8OdKKpXil1f/mkMP881SWIlEggQJdrW2dbtNMplk3N7j+fMtN4e9/N6kewFCLzKg/GUAKD5J4FbSg/667dkVK/j4Jz5JVdX771Cm3EqlUhx73Ak8/tijvPbaq1GXs1ulpaX8/IpfMuekk6MupWiUlqbYsaM1o16AIUPqWbduLSuffy7MpfuTHjO0KsxJlN8cBFh8jgNGZ9po166dLFhwbw+Uo2yoqanhpptv4YQP5+c2DdXV1fzh+puYe8qpUZdSZBJUB1jJ8Wtf/3Y29gs4O+wJlN/sASg+lwJjgzRsaGhg1iGHZrcaZU1JSQkfPnEO7e3tPPbYo9lYAjYrRo0ezQ03/YkpU6dFXUpRKi1JsT3DsQCVlZVUVlXx0IP3h7n0SOB6YFOYkyh/2QNQXMYAgV/kb9+xPYulqCekUinOPe98rr/xZvr17x91Ocw5aS4L7nuICftPjLqU4pVIUFVZnnGzuafOC7s2QAL4VJgTKL8ZAIrLRwnxbzpkSH0WS1FPmn34ESx+5Ak++rFPdHsr2WwaPnw4v/nddVx9zbXU1tbm/PpxU11ZQaYLt5aXl/PxT4Z+fn8ccHpQkTIAFJczwjSeefCsbNWhHOjbty8//uml3DX/Xg7L0aj7vn378u1zzuXhR57guONPyMk1BYlkkoqKzJ/Dp51+JnXhNmEaCBwV5gTKX44BKB5TgG8FbTxq9GjO++73Qu8fr9yrr6/ntHmnc+RRR9PY2MjqV16hoyP0PvFvM2r0aP7tK1/jiiuv5tDDZrtmRASSiSQ7dma2QVRpaSntHe08+sjiMJduB/4c5gTKT37aF48fA18N2viCCy/i82d9MYvlKCpbt27l9ttu5a47/8IjSxbT0tIS6DxjxozlsNmzmXvKaUw+aEqWq1QQGzdt6fZ2wX/X3NTE7FlT2RF8jM82YBCQve0plRcMAMXjRaAhSMPKykqWrVgZtqtQeaitrY2lTz7BihXP8NKqF3n5pZfYvGUz27Zto6W5hYqKcqqra6iurmavESMZ29BAQ0MDU6ZOo75+aNTl6x2aW7bT3LIj43bnfPOr/OX2UL/EnwDcGeYEyj8lURegrBhPwIc/wIdPnOPDv0iVlpYyZeo0p+gViYryskAB4MNz5oYNAMdgACg6DgIsDqFGY5162rxs1SGpB5WUlJAqyXzo1tRpMxg0ONS2zMeHaaz8ZAAoDoGHgA8YMJCDZx2SzVok9aDysswHYCaTSY4/YU6Yy44i4AJjyl8GgMKXAqYHbXzc8SdQUuKbIKlQlJeVBWp3womh92hwnnCRMQAUvolA76CNjzr6mCyWIqmnlZWVQIDpug3j9mbgoFCvAWaEaaz8YwAofIFvyvLyCrv/pQKTIEFpgHEAAJMPmhrm0jPDNFb+MQAUvklBGx44eTKVlZXZrEVSDpQFXIgp5GyQBiD0FoPKHwaAwndA0IbTptujJxWi0tJg43amTAt1zyeACWFOoPxiAChspcA+QRsfNCVUd6CkiJQGHLhbXz+UocOGh7m0AaCIGAAK21gg831C3zLRLVylgpRKJQPv27H/xMCdhmAAKCoGgMI2OmjDoUOH0bdfv2zWIimHSgIOBBw5KvDHBoT4zFH+MQAUtpFBG+6z775ZLENSrpWkIgkAo8I0Vn4xABS2wHfyqNEGeamQpQIGgFHhAsAIfG4UDf8hC1t90IYj9hqZxTIk5VoqGezje8TI0YHHDwBlwMCgjZVfDACFrX/QhsOGhxoJLCliyVSwj++qqioGDhoU5tKBP3eUXwwAhS3wjThwoCFeKmTJRPCP7wEDQt3/jh4uEgaAwhb4Rqzr2zebdUjKsWQycDc+fepC3f/2ABQJA0BhqwrasK5PXTbrkJRjiRABoHfvUCv6VodprPxhAChsgRcBqnAPAKmgBR/HBxUVgT86ID0QUEXAAFDYAt+IpQE3E5GUHxIETwBlZaECQKjGyh8GgMIW+CluAJAKX9BegJJw978BoEgYAApb4F8BQswDlpQ3gt3HYWYQBL6o8o4BQJKkGDIASJIUQwYASZJiyAAgSVIMGQAkSYohA4AkSTFkAJAkKYYMAJIkxZABQJKkGDIASJIUQyVRFyDtSWNjIw8veoi1r79OMpVk1OgxTJ8+nfLyiqhLU8y9+OILPLV0KZs3b6Kuri8TJ05kn30/EHVZUrcZAJSXNmxYz0UX/gd/vOkGWltb3/Zn1dXVfPozn+MrX/s61dVuTa7cuu++hVzwve+y4pnl7/qzffbZl3PPO5+jjzk2gsqkzPgKQHln+bJlHH7oLP7w+9++6+EP0NLSwk9/8iOOPfoI1q59PYIKFVc//MHFzDv15Pd8+AM8//xz/POZ8/j++efluDIpcwYA5ZV169ZyxrxT+dvf3njfr33+uWc58/R/Yvv27TmoTHF3za+u4pIfXExXV9f7fu3ll/2Myy79aQ6qkoIzACivfPc757Jhw/puf/1zz67g8st+1oMVSbB+/d8y/q3+/150IatfeaWHKpLCMwAob6xd+zq333Zrxu2uuvIK2traeqAiKe3aX1+TcU9Ta2sr1/zqqh6qSArPAKC8sXDBvd3qXn2nrVu38uQTj/dARVLavffMD9juv7NciZQ9BgDljVfXrAncdvXq1dkrRHqHoD+ba15dEyjUSrlgAFDeaG5pDt62qSmLlUhv19zSEqhd665dtL3HTBYpHxgAJEmKIQOAJEkxZACQJCmGDACSJMWQAUCSpBgyAEiSFEMGAEmSYsgAIElSDBkAJEmKIQOAJEkxZACQJCmGDACSJMWQAUCSpBgyAEiSFEMGAEmSYsgAIElSDBkAJEmKIQOAJEkxZACQJCmGDACSJMWQAUCSpBgyAEiSFEMGAEmSYsgAIElSDBkAJEmKIQOAJEkxZACQJCmGDACSJMWQAUCSpBgyAEiSFEMGAEmSYqgk6gKkbLjuut+xZMniqMtQkWpva4u6BCnrDAAqCs8sX84zy5dHXYYkFQxfAUiSFEMGAEmSYsgAIElSDBkAJEmKIQOAJEkxZACQJCmGDACSJMWQAUCSpBgyAEiSFEMGAEmSYsgAIElSDBkAJEmKIQOAJEkx5G6AKgofPOpMxh44O+oyVKT+dMnn6Wx3S2AVFwOAisLgMfux78EnRl2GitQtPzwr6hKkrPMVgCRJMWQAkCQphgwAkiTFkAFAkqQYMgBIkhRDBgBJkmLIACBJUgwZACRJiiEDgCRJMWQAkCQphgwAkiTFkAFAkqQYMgBIkhRDBgBJkmLIACBJUgwZACRJiiEDgCRJMWQAkCQphgwAkiTFkAFAkg29eAAAAAJeSURBVKQYMgBIkhRDBgBJkmLIACBJUgwZACRJiiEDgCRJMWQAkCQphgwAkiTFkAFAkqQYMgBIkhRDBgBJkmLIACBJUgwZACRJiiEDgCRJMWQAkCQphgwAkiTFkAFAkqQYMgBIkhRDBgBJkmLIACBJUgwZACRJiiEDgCRJMWQAkCQphgwAkiTFkAFAkqQYMgBIkhRDBgBJkmLIACBJUgwZACRJiiEDgCRJMWQAkCQphgwAkiTFUEnUBSiUDiCVaaNEItnVBZf0QD2hrFm95nDgwCBta2l5uaFf4m9ZLkkCIJlITOsI9AtTgk74YRd0Zr8qqCgvm9IFiUzb7djRMhoYHvCy7QHbScqidUBXgOP1KIrthnMI9v10ASdHUK/i4xWC/VxujKLYbjib4PfavAjqVQ/wFUBheyJgu8ezWkX2PBmi7VNZq0J6N++1/29p1qqQFNgZFFeCLyNYr8ZDURSrWJlLsHvtY1EU2w0lwKtk/v08GkWxkt4tSTrJZ3IDP05+9/z8K5l9Px3AzEgqVZwkgCVk9rO5jABjdHLoo2T2/XQCsyOpVNJ7Gg2sp3s38HpgZCRVZuYauv+h9K2IalT87EX3e6g2AmOjKTMj/0X377XzIqpR0h6MIv2O8v1+8x8VVYEZSgL/AbSy+++nCfh0VAUqtvYi3Q2+p3vtKQrj4Q/pno3z2fO91gKcFVWBkt5fEjgduA1YC+x6679/Jv3OP5+7/XdnHPAT4FnSH0JbSb/yuAAYHGFdircEcBpwK2+/124HzqQw77WxwI+AZ4BmYBvpwX4XAvUR1qUe9P8AYe02n4RJzOUAAAAASUVORK5CYII=;rotation=-90;" parent="1" vertex="1">
          <mxGeometry x="-393.15" y="250" width="50" height="50" as="geometry" />
        </mxCell>
        <mxCell id="fxni8d-Tm6VKHtBTrwnm-9" value="" style="shape=image;verticalLabelPosition=bottom;labelBackgroundColor=default;verticalAlign=top;aspect=fixed;imageAspect=0;image=data:image/png,iVBORw0KGgoAAAANSUhEUgAAAgAAAAIACAYAAAD0eNT6AAAABHNCSVQICAgIfAhkiAAAAAlwSFlzAAAN1wAADdcBQiibeAAAABl0RVh0U29mdHdhcmUAd3d3Lmlua3NjYXBlLm9yZ5vuPBoAACAASURBVHic7N13fBzF2Qfw31yXTr13yZLcbbngbmywDTYtxqaYHkJCyhtSeAkJEAhJeAOBdMAhlCQEBxPAlAA21QXbuPeCLcu25CJZvetO1+f9Q5KRbZW73dnbvbvn+/noY1namXlkn26enZmdYZxzEBJsjLEoAJcDGA0gE0BW9589Hxb1ohuUD0AZgJ0ANgH4B+fcHazGGWMXAbgZwGQAEwHEBqttQoginACquz/O9Pr8EIBPOed2JRpllACQYGGMJQG4BsAiAAsARKsbkTD7AdzJOd+rZCOMMROAXwH4GQC9km0RQjSjE8CnAN4FsJJz3iiqYkoAiOIYY5cBeAjAbAAGlcNRihvAZZzzDUpUzhjTAVgL4BIl6ieEhAQvgPUAfss5Xy23MkoAiGIYY+MAPIWuu/1IcBxAiRLDdYyx+wD8UXS9hJCQ9QmABzjn+6RWoBMYDCEAAMZYPmNsGYDdiJzOHwCKADwiulLGWB6Ax0XXSwgJaQsA7GaMLWOM5UupgBIAIhRj7A4ApQDuQGS+vq5UoM450PaiSEKIOnToeq8t7X7vDbgwIbIxxnSMsScBLENkd1ZjGGOif/5JgusjhIQXC4BljLEnu9cL+YXWABDZGGMxAJYDWKh2LFpw6223PVdcXFwvqr7n/vrXOxoaGgpF1UcICWvvA7iNc94x2IXhuiKbBAljLBfAKgBj1Y5FC3Q6HQoKCr4vss4hhYVoaGgQWSUhJHwtBLCZMXY15/z0QBfSFACRrPvOnzr/XtLS0mAwiM2rs7KyhNZHCAl7YwGs6n6P7hclAESS7nmm5aDO/xzFxcXC6ywoKBCeVBBCwt5YAMsHWhNACQCR6gnQnP85EhMTMWv2bOH1xsfHY+7cucLrJYSEvYXoeq/uEyUAJGDdj5s8oHYcWqLT6bDw2mthNBoVqX/qtGnIz5f0qC8hJLI90N8jgvQUAAlI94YTpYjsR/3OkZ6ejmsXLUJGRoai7Xi9Xqz//HNs2rQJ9HtLCAmAA8AIzvnJ3l+kBIAEpHuHv4A3nAgnjDEkJycjMysLebm5mDBxInS64A2mVVdX4+DBgzhTVYXq6mq4XK6gtU0ICVn/5px/vfcXKAEgfuve2383BE4d6fV65OTmorCwEMnJyYiJiUGM1Qq9H4veGGOIiYkJaudLCCGieTwetLe3o729HXV1dThaVoby8nJ4vV6RzfgATOx9dgAlAMRvjLGPIWhvf7PZjMmTJ6Nk3DjJ8+ZWq5VWxxNCwpLb7caunTuxYcMGOBwOUdV+wjm/oucvlAAQv3Qf6fuZiLpKSkowfcYMWCzSlxGYzWZZ5QkhJBQ4HA6sXbMGO3fuFFXl5T1HCVMCQPzCGFsNYJ6cOvR6PebMnYvRo0fLjQWxsbFgjMmqhxBCQsXePXuwatUqEdMCaznn8wBKAIgfGGOJAOogY+tovV6PaxctQm5urux4LBYLzGaz7HoIISSUVFRU4LXly+UmAV4A6ZzzRlo9RfxxNWSeGzFn7lwhnb9Op6POnxASkYYMGYKrr75abjV6ANcAtBEQ8c+1cgqXlJTIHvbvYTKZhNRDCCGhaPyECZg0SfYJ4YsBSgDIIBhjZgBXDHphP8xmM6bPmCEsHqV22iOEkFAxd948uYug5zPGoikBIIOZA2DAE6UGctGkScJW6+v1enrmnxAS8SwWC2bLO3ckCsB8ejclg5E8dq/T6VBSUiIsEHrmnxBCulw0aRL0er2cKkZRAkAGI/kw+pzcXKEL9igBIISQLkajEYWFhXKqyKQEgAwmW2rBInkvzgvQ8D8hhHxl6LBhcopn0i0VGYzkBCA5JUVkHOds/ONwOHDmzBlUnzmDjo4OIfUL3RFD0P4awmLSWjyA9mISuCeK1mLSWjyA9mISFQ9jDDFWK2JjYxGfkICCggLFnl5KS0uTUzyLEgAyGMlTADExktcOXoAxBs45SktLsXvXLhw/flxY3YQQohS9Xo8hQ4ZgzNixGDt2rNAdTGNjY+UUpxEAMijpCYDVKiyI5uZmLH/1VdTX1wurkxBClOb1enHs2DEcO3YMmzdtwmWXX47i4mIhdctNAGhSlQxG8jN8/hzp648jpaV4bfly6vwJISGtrq4Ory1fjg9XrYLP55Ndn8yF0WYaASCa5fV6sX79ehzYv1/tUAghRJidO3eisbERNy5ZouqppjQCQDSJc45333mHOn9CSFiqqKjAijffFDISIBUlAEST9u/fj6qqKrXDIIQQxVRUVODjjz5SrX1KAIjm2Gw2bN60Se0wCCFEcTt37sSxY8dUaZsSAKI56z//HC6XS+0wCCEkKFZ/9hm4wD0W/EUJANGUExUVOHr0qNphEEJI0NTV1eHAgQNBb5cSAKIpe/buVTsEQggJuoOUAJBI5na7UVVZqXYYhBASdBUVFUGf+qQEgGhGZWUlvF6v2mEQQkjQeb1enDhxIqhtUgJANKO1tVXtEAghRDWtLS1BbY8SAKIZNptN7RAIIUQ17e3tQW2PtgImmtFpt0suW1BQgJQAjx/256EbnU6H6KgoSTGp8VjPQIIRT6T9zFr7eYHI+5m19vM2NDSgvLxcUlsdQb4JogSAaIZPxi9ySkoK8gsKxAXTzaDXIz4+Xni9hJDwVFZWJjkB4EHeFpimAAghhJAIRAkAIYQQEoEoASCEEEIiECUAhBBCSASiBIAQQgiJQJQAEEIIIRGIEgBCCCEkAlECQAghhEQgSgAIIYSQCEQJACGEEBKBaCtgQnpxuVzwdW/HaTQaYdDrhbfh8XjOnvut0+lgsViEtwEAnZ2dZ/cxt1gs0OmCl+9zztHS0oLOzs6gtUmUpdPpkJiYCLPZrEr7ra2tih0YFhUVhYSEBDDGFKlfqygBIBHP5/OhoqIC5cePo62t7ezX9Xo9MjIyMHnyZKSlpclup76+Hrt370ZlZSW8Xu/ZryckJGDUqFEYNWqU7E7a7XZj//79OHLkCDo6Os5+3Wg0YsiQIZgwYYKiZxscP34cX375JRoaGuDxeBRrh6gnLi4OWVlZmDx5MqIkHpTlr8rKSuzduxcNDQ1nk2alGAwGpKSkYPTo0SgqKlK0La2gBIBENJvNhq1btqClj3O4vV4vqqqqUFVVhXHjxmHKlCmS7xB27NiBPXv29Pm9lpYWbN68GaWlpbj88ssld9B1dXVYvXr1OR1/D7fbjbKyMhw7dgzTpk3DmDFjJLXRn87OTmzcuBEnTpwQWi/Rnra2NrS1teHEiRO4+OKLUVhYKLwNt9uNLVu2oLS0VHjd/fF4PKipqUFNTQ0qKipw8cUXKzY6pxW0BoBELKfTiQ3r1/fZ+Z9v37592LZtm6R2Bur8e2tqasLKlSthl3AscnNzM1atWtVn59+bz+fD5s2bJZ9W1hfOOT7++GPq/COMw+HA6tWrcfr0aeF1r127Nqid//nKy8vxySefaO7oY9EoASARa9/evQF1tvv370d1dXVAbdTV1fnV+few2Wz44osvAmoDANatWwe32+339Zs2bYLD4Qi4nb7s27cP9fX1QuoioWf9+vVCh+fLyspw8uRJYfVJVVtbi/3796sdhqIoASARqb29XdKdy65duwK6fvfu3QG3ceLECTQ1Nfl9/cmTJ9HQ0BBQG52dnQElJv1xuVwB/5uQ8GK324W8loCu0aQtW7YIqUuEnTt3Kr72QE2UAJCIdKaqSlK56upqv++cXS4XKisrJbVTUVGhyLW91dTUSCrXW319/TkLGklkqq2tFVJPa2srnE6nkLpE8Hq9YT26RQkAiUjtg8yV96fn8TZ/tLW1nX2kMFD+thHotb01NjZKjq9HOL85Ev81NDQImS8PdCQrGML5NU4JAIlIXhmPqPn7eFsgc/JS2wj02t58Pp/suy16zp8AXa9BOa/3Hlp8PWkxJlEoASARySzj8R6r1Sr0ur4E8nx1dHS0pDaio6NlP8ednJwsqzwJD7GxsTCZTLLr0eLrSYsxiUIJAIlIaampkspFR0cjMTHRr2vj4uIQExMjqZ2srCxFru0tVeK/geg6SOgT9TrQYmcbzq9xSgBIRErPyJB09zt8+PCArh8xYkTAbURFRaGgoMDv64cOHQq9hC2LA/1Z+pKQkICUlBTZ9ZDQVlxcLKQes9mM3NxcIXWJkJKSgoSEBLXDUAwlACQi6fV6lJSUBFQmJiYG48aNC6hMSUkJ4uLiAiozdepUGAz+b9JptVoxYcKEgNooLCwMKMnoD2MMl156aVDPGSDaMnToUCGvpR6zZ89W7byB3vR6PebMmRPW5wPQby2JWDm5uRg5cqRf11osFixYsCDgeU6DwYAFCxb4Pdowbtw4DBs2LKA2AGDixIl+718eGxuLmTNnBtxGf5KSkjBjxgxKAiJQcnKy0NcS0JXQXnLJJQElwaLpdDrMnDnT7+m+UEW/sSSijRo9GpOnTBlwUWBWVhYWLVokeX4yMTERixcvRnZ2dr/XWCwWXHLJJZg6daqkNgBg3rx5mDJlCoxGY7/XFBUVYfHixcIPcRk1ahQWLVqEpKQkofUSbdLpdJg4cSIWL14sZPHf+QoKCnD99dcjIyNDeN2DSUpKwuLFiyVN34UaOgyIRLy8vDxkZWWhuroa9fX16LTbodfrERsXh5zsbCGHncTExODqq69GXV0dTp48iZaWFng8HlitVmRlZSE/P3/Ajttf48ePx4gRI3DixAnU1NTAbrfDZDIhOTkZBQUFit7RpKSk4Lrrrjv779jQ0BDWj1BFmp7jgFNTU5GRkYHY2FhF24uPj8fXvvY11NTUnH09KXkccEpKClJTU5GZmRkxo1mUABCCrqH63NzcCxYgGSQsrhtIWlqakKOFB2KxWDBixAhV7mB0Oh2ys7MHHO0gxF+MMWRmZiIzM1PtUMJSZKQ5hBBCCDkHJQCEEEJIiJKxnqeREgBCCCEkREndCAzATkoACCGEkBCVKT0B2EUJACGEEBKixo0bJ2XPhE4Ar1ACQAghhISo5ORkzJ03L9BiD3POyygBIIQQQkLY1KlTUeL/NuXLADwN0FMAhBBCSEhjjGHRokW46eabBzqBtBrAtZzzOznnPoA2AiKEEELCwvDhw1FcXIyamhqcOXMGR0pLt5aXl78KYCeAvZxzZ+/raQSAEEIICRN6vR7Z2dmYPHkybr/jjpWc879yzred3/kDlAAQQgghEYmmAIhiXv33v6HX68/9MBjOfm4473v19fWS29q/fz8OHTokMPoujLGwPg+cECKWx+NROwS/UQJAzsEYMwEYCWBs94dkjY2NQmLyh8vlgsvlClp7hBAS6igBiFCs67a2AF919D0fw0CvC0IICXv0Rh8hujv88QDmAJgLYBaAOFWDIoQQohpKAMIYY2wUvurwLwWQpGpAhBBCNIMSgDDCGIsB8LXujzkAMtSNiBBCiFZRAhDiGGPRAK4GcBOAqwBIPhyaEEJIWOEDfZMSgBDEGLMAuBLAEnTd7VvVjYgQQkiooQQghDDG5gH4BoBrAcSqGw0hhJBQRgmAxnXP638dwA/Q9Xw+IYQQIhslABrFGBsK4B4Ad4Ee1yOEECIYJQAa0v2s/pXoutu/AgDtQUsIIUQRlABoAGNMD+AOAA8DKFY5HEIIIRGAEgAVdd/xXw/g/wCMUDkcQgghEYQSAJUwxq4E8BsAE9WOhRBCSFiifQC0hDE2C8ATAC5WOxYpGIBYkwFJUUYkWYyINxth0DHoGIOeAXrGoNOxrj+7/65nDHpd199Neh04A+weL9qcnq4Pl+erz50euLw+tX9Mv8Sl52LBT5YiNiVL7VAIIRpxdNMH2PiPx9QOwy+UAAQJY6wEwO8ALFA7lsEYdQyJlq4OPjHKhGSL8au/W7o6/EDoGIPRwGAy6KDzo6zT6zsnIWiwu1DRYkdFix0dLq/UH0u4ttrTWPXEt3DVgy8hZ+x0tcMhhGhAVFyy2iH4jRIAhXVv1fsrAP8LDf57G3QMubEWDImPRkF8FFKjTYgxGYQ8fqDXMZiNOhgNuoDKmfU6pEabkBptuuB7dTYXylvsqGi2o7zFjtoO58BjXAqztzTgnYdvxOy7f4XxC+9WMRJCCOnCOUdDQwMOHTo0mjE2GsBhzvkFQ6ua65DCSfc8/3MAClQO5azeHf6QhCjkxkYFfEc/aBt6BrNRD4Ne/FOMaVYT0qwmTMtOAADY3V5UtNhR3tyJ8hY7TrZ2wh3kKQSf14PPX3gEtUf3Yd4Pfw+DyRLU9gkhBADa29vx8Ucf4dixY3C73QBwW/eHjTH2CYAfcc6req6nBEABjLEMAH9B1wE9qjLoGHJ6Ovz4KOTFie/we5gMOpiMOugVqr8v0UY9RqfGYnRq187IXh/H/rp2bKlsRmljB3gQhwcOr12BxpOluOaRlxGXlhO8hgkhEe/AgQP46MMP4XA4+vq2FcB1AOYyxn7AOV8OUAIgVPdjfd8B8CSABLXiiDLoMS4tFqOSYxTt8HuYDDqYTTromPr7Ful1DBMy4jAhIw7NDje2VbVgS2UzmjrdQWm/7vgB/OfH87Hw0VeQOXJyUNokhES2iooKvPvOO/5cmgDg34yxas75WkoABGGMDQPwMoAZqrQPoDjRionpcRiZHKN4pw90DfVHmfR+LexTQ6LFiCuKUrGgKBVljTZsqWzG/to2uH3KDgt0tjXh3UdvxXWPv4mMYRMUbYsQEtlcLhc+eP/9QIowAP9gjI2lBEAAxthNAF6CCif0JVmMmJgejwnpcYg3B+e/U69jsJiUmeNXAgMwPNmK4clW2N1e7KxuxZbKZlS29TlUJoTL3o53H7kZ1//2LaQVjVWsHUJIZNu1axdaWloCLVYA4LuUAMjAGDMD+DOA/wlmu0Ydw5iUWEzMiEdBfFTQDgzQMQaLKfBV/VoSbdRjdl4SZucl4ViTDe+V1eJES6cibTltrXjn4SW48al3kZxPGz0SQsSrqqyUWnQaJQASMcYKAaxAEHfyy4uzYGJ6PMamxsKsD24nbDbqYDbpw+p0ouIkK34yrRB7a9vwQVkt6mwu4W042pvx9s9vwI1PvYfEnCLh9RNCItuZM2ekFp1ECYAEjLHF6Jrvjw9Ge0PiozF/SApyY4P/eJlexxBl1gd1ZX+wjU+PQ0laLDZXNuODsjrY3WI3G7K3NOCdR5bgpj+uRExyptC6CSGRTcLwf4+C0B3LVQFjzMgY+zOAdxCEzj/TasadY7LxrZIcVTp/i0mPmChDWHf+PXSM4eLcJDx8cTFK0sQv5Wivr8K7v7gZzo5W4XUTQogUlAD4iTEWD2A1gHuVbivJYsSSEZn4/sR8DE20Kt3cBfQ6hpgoA8zGyHt5xJkN+PbEPHy9JBvRRr3QuhtPHsG7j96C1uoTQuslhBApaArAD90b+3wMYJyS7cSYDJiTl4RJGfHQq/RMvcWkj8iO/3yTsxIwPDkGy/ZX4kijTVi9NUd2Y9n3ZmH8wrsxecmPYIlNFFY3IYQEghKAQTDGigB8CqBQqTYsBh1m5SRhRnYijCoNtzMGRJsNIfNoXzDEmQ34n0n5eO3gGWyvkjzPdgGvx41d7/wNu//7IjKGT0TBRXNQcNFcpA0tAWOUfBFCgoMSgAEwxsah684/Q4n6DTqGaVkJuCQ3CVEGscPNAcWhZ4g2G6CBjfw0R88Y7hibjUSLEZ8crxdaN/d5UX14B6oP78CWV3+HqLgk5F80BwUXzUH+xDmIig+dU8UIIaGHEoB+MMZmA3gfCi32y46xYMmITCRHGZWo3m9mow4Wk3rJR6i4ZmgaEi1GvHmoGj6FDhjobGtC6bq3Ubrubej0BgydeQ3GX3s3MkdMUqQ9QkhkowSgD4yxawG8DkCRpfczshOxYEiKavP8QNeQf5RZD2OQ9xMIZTNzExFvMeDlvZVwKXzioM/rwZEN/8WRDf9F+rDxmLDw2xg2ayF0BnUTRkJI+KAE4DyMsesBvAFA+G1xtFGP64dlYHhS8Ff296ZjDFaLdvfw17IxqbH40ZQC/HXHSXR6xO4X0J/asr34+A/3YOM/H0PJVXdi3DXfhCVWtbOmiAQ+jxvVR3ajcv8X4D6OhOxCJOUOpW2iiaooAeiFMTYHwHIo0PkPiY/CjSMyEWdS959cr2OwWmi+X478+Ch876I8/HXnScVHAnqzNdViy6u/w973/46Z33gYY+bfCvqP1DjOsfu/L2DLq7+D22G/4Nu542dh7v88SbtEElXQ+G83xth4AP8FYBZZr44Bc/OT8c2SXPU7fz11/qIUJkbj7gm5qmyS1NnWhNXP/ASv/+Rq1B0/EPT2iX96ToXc8Pdf9dn5A8DpvRvx6j2X4uAny4McHSGUAAA4u6//xwDiRNYbZzLgrrG5mJuXrPoe+gbq/IUbmRKDO0tyVPs3rTmyG//58QKse+5B2mFQg9b+9QGc3L1u0Ou8HjfWPfcg6ssPBiEqQr4S8QkAYywdXc/5p4usd3iSFT+YmI8h8VEiq5XEaNB1df5qBxKGJmTE4ZbRWaolAZz7sG/Vv/Cv78zAqT3r1QmCXODUnvU4+sUHfl/v9bjx0VPfg9fjVjAqQs4V0QkAYywWwEcAhE3AMQBXFqbijtHit5KVwmTUIdqsfhzhbHpOIr4zIQ9mFY9J7mxtxLuP3ord/31BtRjIVzb8/VcBl2mqPIbqwzvFB0NIPyI2AWCMMXQd5ztBVJ16xnDTyEzMzNbG9q5Ggw5R9Ix/UIxJi8VPphUiJdqkWgzc58WGl36JT//0I3jd4o82Jv6pO7YfDScOSypbdXCz4GgI6V/EJgAAHgCwQFRlRh3D7aOzMCZF/ElyUuj1jO78gywzxoyfTi/EsGR1H/M8tOZNrHhgEWxNtarGEakOr10huWzt0X0CIyFkYBGZADDGpgH4P1H1WQw63DU2R5WT+/qi0zFYzfSEpxqijXrcMykf14/MQLyK/wc1R3bjtR8vQNPpo6rFEIl8Xg+OrH9XcvnohFSB0RAysIjrJRhjCQD+A0E/e4xJj2+MyUGGVejTg5IxBlgtelrtryIdY7g0Pxkzc5OwtbIZO6tbUdFih0I7CPfL1lSDdx5Zgpv+sBKxqdnBbVxpnKOl+gTqy79EZ1sjUgvHILVwNAwmRTbv9NvJ3Z/D3tIgubzU/QBsTTWoO/4l2mpPITG7EKmFY+gsCTKoiEsAALwEoEBERRaDDneNyUG6Vjp/AFaLATrq/TXBqGOYlZeEWXlJ6HB5cai+HQfr21HaYAvaLoIdDdV45+ElWPL798OmQzj6xUqs+9tDsLeceziTTm/AyLk3YPa3fw2zVZEjPAYlZ/gfAFIKRgZ0fe3RffjsL/f2ueYgc+RkzL/3L7TJEOlXRE0BMMa+C+AGEXUZdAy3j8rWTOcPAFEWvSob05DBxZj0mJKdgG+Oz8WT84bjx1MKMG9ICjJjlH/9NFcdx7uP3gJXZ4fibSnJZW/Hh099F6t+e/cFnT/QNfz+5WevY9n3LsGpvRtUia9868eSy0fFJyN33Cy/r9+87Ld4/b6r+l1wWH14B5b/cC72vPei5JhIeIuYBIAxNhLAn0XUpWPATSMyUaCBZ/x7WEx0sE+o0DGG4iQrFg1Px88vLsaDM4twUWa8oiM3dcf244PH7gzZpwOctja888hNKNvw3qDX2ppqsOqJu9HRWB2EyL5y9IuV8LickssPn70IOr1/g7JffvofbH/jaXDfwCNJHpcT6198FJv+9bjkuEj4iqQe4zkAQnrshcXpGJkcI6IqIQx6BrMxkv4rw0t2rAXfGJeDR2YVY0ZuomKjOKf3b8LqZ+9XpG4lOW1tePcXN6PmyO6AyqwJ8s96eO2bssqPnHujX9fZmmoD3mdgx4pnKQkgF4iIXoMxdjOAS0XUNTc/GZMy1Jlf7AsD6Fn/MJEabcIto7Pw60uGYW5BMkwKjOgcXvMmyja+L7xepUjp/HtU7FiDM4e2KxDVhdrrq1B5cKvk8ok5RUgfNt6va3e/+wKctsC3ft6x4llseuWJgMuR8BX2CQBjLAbAH0TUNTzJijl52lpIZTHRsb7hJt5swOIRGXj44mLkKzDNtGbpT9HRENzhcSnkdP49asr2CIyof4fXvgU5j3n4e/cPADVl0v89drz5DCUB5KywTwAAPAJA9jNQCWYDbhieoan99A16BhMN/YetpCgj/nfqEFySLzbpdHa04pM//VBWh6U0EZ0/0LX2IRhK5az+Zwwj5vi3NplzH+qPyzs0iJIA0iOsew/G2DAA/yu3Hj1juHlkFqIM2hlqp6H/yKDXMdwwMgPfmpAr9PV3et8X2PXu88LqE0lU5w8A3Kv845a1R/ehqfKY5PI5Y6YhLi3H7+s590luq8eON5/B5mW/lV0PCW1hnQAAeAaA7M3ZryhMRU6suhuMnI+G/iPL+PQ4/GxGIXLjxL0ON7/yhOZ2ChTZ+QNA2tASIfUM5PCa4Cz+AwDGdEgtHCOrvR7b33iakoAIF7YJAGPscgjY639USgymZyUIiEgcGvqPTCnRJtw3rRCz8pKE1Of1uPHFy8J2xJZNdOcPAOlD/VtYJ5XP68GRDf+VXN5gMqN45jUBlUkfOk5ye+frSgKeFFYfCS3h3Is8JLcCi0GHhUXpImIRyqyBY4aJOgw6hiWjMjFvSIqQ+sq3fYqqL7cJqUsOJTr/nLEzkDNmurD6+nJy1zp0tjZKLl84dQHM1riAykxY9F0Yo8SdO7L9jb9QEhChwjIB6D7sZ47cehYUpCJGY/PsBj2DQU9D/5Fu0fB0zMgRc+z0F/9UdxRAic7faInG5ff+GUofiiF369+R85YEXCYuLQcX3/mwrHbPR0lAZArLBAAC7v5zYy2YlKmd5/170N0/6XHz6CxMyAjs7rEv1aU7cWzLhwIiCpwSnT8Yw7wf/A7xGfni6uyD09aG8m2fSC4fFZ+M/ImXSio77pq7UDTtCslt92X7G3/B5n8/JbROom1hlwAwxkYD+JqcOnSM4x4GoAAAIABJREFU4dqh6Zp65A+gu39yLsaAO0tykCdgr4DN/3pi0G1lRVOq87/8R3/y+7E6OY5+8YG8rX8vWez31r8XYAxXPfQSCqfKXuZ0ju2v/5mSgAgSdgkAgAcBeX33jOwEzRzv2xvd/ZPz6XUM3xiXI3vXwKbKYyj9/B1BUQ1Oyc5/9PxbxNU5ANnD/wGs/u+L3mDENT//u/iRgNf/jC2v/k5onUSbwioBYIzlA7hZTh3RRj3mamy3P4Du/kn/UqNNuHFkhux69n+4TEA0gwuHzr+trlLW4smk3KFCVvPrDEZc/dBLwpOAbf/5EyUBESCsEgAAXwcgcUyty8zsREX2YJeL7v7JQKblJMpeD1B9eAcaT5YKiqhv4dD5A0DpuuBt/TsYSgKIVNrr6eS5XU7hKIMe0zT2zD/QNcxLd/9kMEtGZcFskPcrvf8j5UYBwqXzB2QO/zOGEXOuFxcMeiUB068UWm9XEvB7oXUS7QibBIAxNgXAMDl1zMxOhFmDd/8mmW/qJDLEmPSYVyBvf4DStW/B4+wUFNFXwqnzrynbg+bK45LL54yZjthU2ceTXEBnMOLqB19UIAn4IyUBYSqcehZZd/8Wgw7Ts7V39w8ARkoAiJ/mFiTDKmO6yGlrw5EN7wmMKLw6f0D9xX8D6UkCiqdfJbTebf/5I7YuF3KoKtGQsOhZGGMGyFz8N0Ojd/9GvU7pvUxIGDEbdJhflCqrji8/fU1QNOHX+fs8bpStl7P1rwVDLw5s699A6QxGXPXgC8KTgK2v/YGSgDCjvR5PmvkAJL/r6RnD1Eyt3v1T708CMysvCQkWo+Ty1Yd3orOtSXYcLnt7WHX+AHBi1zpZ/zZF066AKTpWYER9O5sEzLhaaL1bX/sDtr5GSUC4CJcEIPD9NHsZnmSVNWyqFMZo+J8EzqhjuELGKADnPpzctVZ2HJ8//3BYdf6A/OH/EQoO/59PZzDiqgeeF58ELP8DTuyU//og6guX3mW+nMIXZWhvy1+AOn8i3bScBFlJbcWONbLar9ixGodkHpN7Dg10/k5bq6ytf6MTUpA/8RKBEQ1OqZGA1c/8BE5bq9A6SfCFfA/DGBsLIFNq+ViTAUMTxZ2sJRKt/idS6RnDeBn7ApzcvQ6c+ySX3/iPX0suewENdP4AcHTjB/C6XZLLy9r6Vwad3tCVBAR47PBAOhqrseud54XVR9QRDj3M5XIKT0iPg06D0+yMdT3/T4hUF8k4zMrR3oKa0l2SyjptbWiqPCa57XNopPMHtL36fzA6vaFrOkBgElBdulNYXUQd4ZAAyBr+n5gu/zQ1JRg0+EQCCS3FiVbEmaXfcUqdBqgvPyhrl7yzNNT5t9WeRtWh7ZLLJ+UNQ1pxicCIAteTBIh6CqHu6H4h9RD1hHQvwxizAJgttXxmjBkpUSaBEYljoLt/IhNjwEQZ61sqD2yWVM7daZPcZm+WmHhkjpospC65tLT1rxw6vQEZwycKqcvj6oTP6xFSF1FHSCcAAGYCkHwWanFCtMBQxNLT1r9EADnTAPUVX0paB5BaNEZym7052lvw9oPXiZtOkOHw2rekF2YMIy4Vu/WvVHveexEb//GYkLpShoxSZU0DESfUE4DxcgoXJWhz8R/N/xNRChKikChxTwB3pw0tVRUBl4tJzkR0grzNiHrYmuu6koDTR4XUJ0XNkd1orpK+9W/u2BmITc0SGJE0e957EetffFRYfenF8k8zJOoK9QRguNSCBh1DfrzkwQNF0fw/EakoUfpIV135AUnlxi+8W3Kb57M11+EtFZOAUHr2vz+iO3+90YRx13xTWH1EHaHe00hOAPLiomDU6F02zf8TkfJkJLp1x6Qt9Jp0wz1CzrvvYW+pVyUJ8HncOKLxrX8HI7rzB4Bpt96P5HzJb79EIyI2ASii+X8SIWQlAMeljQDo9AYs+MlSmGPEbbJ1Ngk4VSaszsGc2LUWjvZmyeWLpl8JU1SMwIgCo0Tnnzt+FibdcI/QOok6QjYBYIzFA0iXWl7TCwBpBIAIlBtngU7iiVL1EhMAAEjKHYrrn3hLfBLw0PVBSwIOrQndZ/8V6fxLZuLaR5eB6bS3dToJXMgmAACGSS2oY0C61SwyFmF01PkTwUx6HTJipL3eHe0t6GxtlNx2WtFYhZIA5UcCnLZWVGz/VHL56ITUoG/920Oxzv9Xr8Jg1ubaKRK4UE4AJA//J1lMmp1n19PZv0QBeXEWyWXbG87IaluZJKABbz10HRpPHhFW5/nKNr4ve+tfNe6UqfMn/orIBCDdqs3NfwBAF8r/I0SzcmWsA2ivr5LdvlJJwNs/v16xJEDWs/8ARs4L/vC/Ep1/ztgZ1PmHqVDubqQnANHaHP4HaAqAKEPqXgAA0NFQLSSGUEoC2mpP4YyMrX+T84cjrWiswIgGp1Tnv+jXy6nzD1MRmQCkaXgEgBYAEiXEyzgTQMQIQA9lpwNKhdV5eO2KkNr6lzp/IkVIJgCMMQZgqNTymh4BoDUARAHxskYA5K0BOJ8SSUBnayPeeuh6YUnA4bVvSy7LmC6oW/9S50+kCskEAEAuJJ4BoGMMyVHS3wyVxFjXByGixZr0kl9bIkcAemg5Cagu3YWWM+WSy+eUzEBMSqasGPylTOc/neb8I0SoJgDFUgtGG3WavctmGo2LhD4dY4g1SZsGsDXXC46mi1aTgFKZW/8Ga/hfuc5/OYwW7e6TQsQJ1QRA8ik+UQbtbmBB0/9ESfFmiYcCOeyCI/mKUknA+//3DXicnQGX9XncOLLhPcltG8xRKJ55teTy/qo6uBXrX/ql0Dqp8488oZoASB7D13ICQCMARElxEhcCepzKJQCAMklAa/UJfPGvxwMuV7Fzjaytf4uDsPWvx+XAZ0/fJ2uR4vmyx0yjzj8CRWACoN0fmbp/oiSph1+5JdxJB0qJJGDfB/8M+PCgwzK3/h0x9wZZ5f2x572XZK1ROF/2mGlY9OvXqPOPQNrtDQcm+Tk+bY8AqB0BCWdS1774PG74PG7B0VxIdBLAuQ9VX271+3pnRysqdnwmuT1rYhryJyi/9W/VwS3C6qLOP7KFagIQniMAlAEQBcl5ebkVngboIToJqDvq/3HGZRvfC4mtf6Ue0Xw+6vyJdnvDgUlPAIzaHQGgRYBESXLOmVByIeD5RCYB9hb/n2AIha1/fV4PHO0tsuvJHj2VOn8SsgmA5CkAOmyHRCo5L32P0yEuED+ISgJSi8b4dV1rzUmZW/+OQGqhf23JodMbkJwneRNUAN2d/2P/oc6fhGwCIHkEwOsTt3KWkFAiZ/8Lg0n6aYJSiUgC0ovH+XXd4RB59h8A0ob69zP1he78SW+RlwAIfHSGkFAiZ4rJGCV56w1Z5CQBCVlDkDt+ll/Xlq6TufXvnOsklw/UmAW3grHA37rPdv4q/V8S7QnVBEDyFICPEgASodxe6a99U7Syz7YPRFISwBguv/cvfo1cVJfuRMuZCsnx5YybiZjk4Gz9CwCZIyZh/MJvBVQmizp/0odQTQBkjACIDIOQ0OHweCWVM1qiJd1xitSTBMSmZg9+MWOYdutPkD16ql91y138NyrIJ/8BwIyvP4SMYRP8urbgorlYTJ0/6UOoJgCS49b0GgBan0gU1OnxSSpnio4VHIk0aUVjccff1qPkqjv7XdEYn1mAG377Dqbder9fdXo9bpRt+K/kmAzmKBTPUH7r3/MZLdG46Y8rMfPOn0Nv7HtA1BQVg3k//D0WPUadP+mb9EPC1dUotSCtASD+cHt9aHV6YNAxmA06WAz6kM/PpI4AKL21bSBMUTGYe89TGHfNXThzaDtqj+1HZ0sDUgvHIH3oOOSOnxXQgsWKHZ/JeqyueMZVqnWuTKfH5CU/wvBLFuH0vk2oLz+I1tpTSMwuQmrhaOSNnwVrUoYqsZHQEKoJQJ3UgpoeAdBwaOGu0+PF/tp27K5pRVWbA21Ozzn/HVFGPYoSolGcFI2LMuORYNHmkdIDkT4CoJ0EoEdy/ggk54/AWJn1lK6R+ex/ELb+HUxceh5Gz89TOwwSgkI1AaiVWrDd7REZh1Bazk3CVafbi1XH6rHpdBM8A/wHdLq9OFjfjoP17figrA4TMuJwWWEKsmOD/3icVA6pCYCGRgBEcrS3yNv6NykdeeNnC4yIkOAK1QRA8ghAm1O7CQCn6Ymg4QC2Vjbj/bI6dLgCe014OcfO6lbsqWnD1UPTcNmQlJA4x6FT6hSARtYAiFa+/VN4ZZxxMOLS64Ky9S8hSom8BCDAN/tgov4/OKo7nHj9yzMob5a3va2Xc7xfVouyRhu+PTEXJr1219Ta3F7J01/hmgA0nToiq3wwTv4jREnafccaWD0ASeOZDo8PLq+0oVClUQKgLLfXh/fLavHUpuOyO//eShs78PyuU3Br9HUFAPU26YfcmMJ0BXlzlfQjdVMKRiJ1yGiB0RASfCGZAHDOvQCapJZv1eg0AKdVgIo51NCBx784js/KGxR5EuRokw0v7Tmt2UWmDXYZCUCYjgA4O6Sv/g/m1r+EKCUkE4BukhcCanUaQKN9R0hrc3rw8t5K/G3nSTR2Su8E/XG4oQMv76vU5G6T9TISAGOYLgLMHDlZUrlgb/1LiFJCOQEIu4WAtAhQHC/n2HCqCb/ZeAy7a1qD1u6+2ja8dvCM5sZy5CQA5jAdAcgZO11SuYJJc+j5ehIWQnURICAjAdDsFIDWeo0Q5PFxbKlsxmflDWh2SF/hLce2qhZYDDrcMDJ4+8MPpt7ulFzWqMF9AETIGTsTKQUj0XDisN9lGNNhxp0/VzAqQoInlBOAU1IL1tikvxkqjXN557ZHKpfXh02nm7G6okETIzzrTzbB5eW4YWSGJp4OkLMIMCY5PO929UYTrvzZ8/jPvQvgcTn8KlNyzTdo8R8JG+q/M0l3UGrBMx3+/bKrgaYBAuPw+PBpeQN+uf4o3imt0UTn32NLZTN+v6UcVe3qvt463V7Y3NL2AACA5LxhAqPRluT84Zj/v0/7tdBx9Pxbcel3fxOEqAgJjlAeAZCcADQ73HB4fLAYtJf/+HhoZ2XBYnd78fnJRqw/2QS7jM5NaTUdTvxhSzkWDU/H7PxkVc4TkDX/b40L+/nuYbOvRfaYqfj8hV/g6BcfXPD9pLxhmHzjDzFyzg00PEfCSignAIcAeAEEvBUXR9coQGFCtPCg5OoaAaA3mf60uzxYd6IRG041wSlxa9tg8/g43jpcg02nm3FFUSomZMQHtR+RkwAk5Ybv3X9v1qQMXP3QS7A11aLxZCmaK48jKj4ZibnFSC0YRR0/CUshmwBwzh2MseMAJL1DnelwajIBoEcBL+TjHIcbOrC1qgUH69oH3LNfy6o7nHh5XyU+PFaP+UUpGJ8eF5T1AXL2AEgK4+H/vliT0rv2+J9widqhEKK4kE0Auh2AxASg2qbNdQBa3UhGDdUdTmytbMaOM61oV2nvBp2OwSf4/6TW5sS/91fhdX01RqZYMS4tDiNTYxBrUubXUc4IQDjP/xMS6cIhAbheSsEzHX0/CdDscKPD7YXN5en6s/tDx4Aogx6JFiNGJcfAoFNmSFB0ZxNqOlxe7KpuxbaqZpxuUy9JG5qfjmd+fgeOnarFDx//tyJtuL0+7K9tx/7adgCAxaBDSrQJKVEmJEebkBptQmJU17HDLm/XFtZOjw/27tek0+uD1ahHjMmAGJMemTFmZMVYoD/vtVkn4wmASBsBICSShHoCIHkhYIPdhU6PFw2dbpxs7cTJtk6cauv0a7W01ajHlMwEXJQRhwSz2HPhI3EEwMs5DtV3YFv3EL8SW/X6y2wy4KffvAr333UVzCYDLp0yArWNrfjN8+8r3rbD40NlmwOVMhIfvY4hK8aCvHgLcuOikBdvkTUFkJw3XHJZQoi2hXoCcEBqQQ7gya3lkjobm9uLdaca8fmpRhQmRGNiehxGpcTCKGhUwOvjF9zFhRsOoLKtEzvOtGLHmdaAj+RVwpwpI/HMw7ejOC/9nK8//N2FqGloxd/fWq9SZP7z+jhOt3XidFsngGZZdRmjrIhNyRITGCFEc0I9ATgGoBVAvJTCcu80OYDjLXYcb7HDcrwOY1NicVFGPHJiLbLq9YVpAtDY6cKRRhuONNpQ1mjTRKcPAKlJsXjqvptwy9XT+r3m6YduR11TO95fuzuIkakrKXcorX4nJIyFdALAOfcxxjYCuEbtWBweH3bUtGJHTStSo02YmB6P0SkxSLIEPkXg9XGInVhQR4fLi7KmDpR1d/pyhqKVwBjDXYtn4fEf34CEuIGfCNHpGJb99jv49qP/xIpPtgcpQnUlR8gjgIREqpBOALqtgwYSgN7q7S58UlGPTyrqkWQxojjRiqGJ0ShMiIbZj8e+QnUdgMvrw/Fme/ddfgeq2hyaOxSnx+jibCx95OuYNq7I7zJmkwGv/PbbKMpLw5MvrVQwOm1Iovl/QsJaOCQAn6sdwECaHG5sr27B9uoW6BhDbqwFxYnRGJpoRXaspc8tf3whsL8NB9DqcKPW5sKJFjtKG22oaLFrPnmJtpjw8HcX4kd3zIdBwjP4jDH88vuLUJiTinv+bxncHu3uQigXPQJISHgLhwRgL4AWAAlqBzIYH+c42db1xMGak40w63VIt5qRYTUhw2pBhtWEdKsZZr1OM4cCdbq9qLO7UGtzos7mQr3NhTp71+cubwhkKt3iY6LwnSVz8INbL0Nacpzs+u5YOBP5WSm46+G/40ydvMV2WkWPABIS3kI+AeheB7AewLVqxxIop9eHU92PH3atZezaBDjRYkR2nAU5cRYkRZkQZzIg1mxAnNmAWJMeOsGZgcfH0WB3oc7W3dHbXai3OVFrc2lmoZ5U6cnx+NHtl+PuGy9BnDVKaN2zJw3H7rcfw0N/ehMvv7tRaN1qM5gsiEvPVTsMQoiCQj4B6PY5QjAB6AtH17RBk8ONA3XtF3yfAbCa9Ig1dSUEVpMBBsag0zHoGaBnDHodg46x7s8Bl5fD4fHC6fHB4fHB4fXB4fHC4enaWKbD7UG4HUJYlJuG/73zCtz+tRkwK7TDHtA1svDco3fihgWT8f3HluHkmQbF2gqm6MQ0tUMghCgs5BMAxpgRGlsEqCSOrtX1HS4vqvvZzTCSjRuRh/u/cSUWX34R9Lrgnas4d+oo7Hrr13j21c/wzPLP0NxqC1rbSmirPYXVT9+Hy378JzBG51MS4i9ZR7oHed6XhfL584wxBuDfAG5TOxairtmThuP+u67C5TNGqx0K2mydeO61NWGRCBBCgmfq1KlYcMUVAZV57Ne/ltxeqI8APAXq/CMWYwzXXDoeP73rSkweW6h2OGfFWaPw4LevwfdvnYe3PtmB99fuwbrth+Fyh/Z6CkKIsmLj5C9QDkTIJgCMsVsA/FTtOEjwjRiSiSVXTsWSK6agKFe7c9Vx1ih887rZ+OZ1s9Fuc+CTLw7gvXW78ckXB9Cu0dMoCSHqiY2NDWp7IZkAMMbSADyrdhwkePKzUnDjgslYcuVUjB2ao3Y4AYu1WnDDgsm4YcFkuNwerNt+GO+v3YPtB8pRUVkPWyet5yAk0uXkBPe9LSQTAABLASSrHQRRVkZKPG6YPxk3XjEFUzQ0xC+XyWjAgpljsWDm2LNfq29qR3llHSoq61FR1YBjJ2vx2qotKkZJCAmmtLQ0JCYmBrXNkEsAGGNfA3Cj6HqzU+NRVd8quloSoMR4KxbPuwhLrpiCWRcNhy4MD0XqS2pSLFKTYjG1pGtrYofLLTkB0DGGtKQY1DRe+BgpIUSbRowYEfQ2Qy4BAPBLkZUNzU3FT267FBOH52DKXX8WWTXxU6zVgmsuHY8bF0zBZdNHw2jQqx1SSDMY9Njx8n145cMdePqNDahv7lA7JELIAEwmE6ZMnRr0dkMqAWCMzQdwkYi6irJTcP/tc7D40rHQMYZTNdK3czXoddAxBlcY7wsvkjXKjMljh2DmhGGYOXEopo0rQpTZpHZYYcVsMuA7i6bjjisn4Z8fbMOzb25EU5td7bAIIX2YMXMmoqMHPpFUCSGVAAB4SEQlC6aNwEs/XwKL6atDd+Vsh5CRHIeNL/wQG/eVY832MqzZeRSVdS0CIg0PyQkxmDFhKGZ2f4wfmS/pIB4SuCizEffccDFuumwCbnr4FRw4Xq12SISQXlJSUjB9+nRV2g6ZBIAxVgTgUrn13DhvPJ6+b/EFHRCXeXCtNcqEK6aNwBXTuuZxjpyqw5odR7FmRxm2HTwZUaMDBdkpmDF+KGZOHIoZE4ZixJBMtUMKOaI36EpJsOK/v/8Wbv/lq9hy4ITQugkh0kRFReHmW26B0Wgc/GIFhEwCAAHb/X5n0XT833evBOtju0XRGyIOz0vD8Lw0fP/6mXC43DhwrBp7j1Zhz5Eq7Dt6BscrG+AL4V0Ye8THRqMoNw1Txg45e5eflRbclazEP7HRZrz5+J24+4k38MnWUrXDISSimUwm3LhkCZKSklSLIZQSgKvlFJ4yOg+/+d5V/X5f3h3XwGUtJiMmj8rD5FF5Z7/W0enE/mPV2FtWhYPHq1F+phEnzjRpbp7WoNchLzMZQ3JSuz6yU1GQnXL284S44M9bEenMJgP+8cjNmPntp3GyOjyPMSZE6+Lj43HzLbcgPT1d1ThCIgFgjEUDuERqeR1jePx7A+cPcqcAAhUTZcaMsQWYMbbgnK+32Rw4Ud3U9XGmCZVNdpyubUZzmx0tbTY0t9vR2m6Hzyc9XsYYTEY9jAY9DAY9LCYjstMTz3bqX/2ZgpyMpKAeqkOUZzLo8eg3F+Bbj7+udiiERJxRo0fjyiuvhNVqVTuU0EgAAAwDIHmZ+M3zJ2Dc0KwBr9HKaHyc1YKS4iyUFHfFa01Ogc5w7vwQ5xxtNgda2+1oabOj3eaAXq+DydjVoZuMBhh7/Wk06GHs7vBNRgN16CFA6dfj12aNxtTR+dj25UllGyKEAACGDBmCufPmITs7W+1QzgqlBECyB74+b9BrtHoqYl9hMcYQHxOF+Jgo5GXShohEmoe+cRkW/fQfaodBSFhhjMFqtSI2NhYJCQkoKirCsOHDERMTo3ZoFwiVBGCo1IJZKXHISBr8gAU5/b9GcwdCBjS+OAM6xiQvRr31tttQXFwsOCpCSLCEyliw5DGTUXkpsLe0wuf1DXhdsNcAEKImj8sFn82GnNTgHj9KCNGOUEkAJMc5piANPo8HtqZmuGz2/of6Ndv/azYwEoJ8Xh8629rQ2doGzjmG5UifQtLqtBkhxD+hMgUgWWy0ufszDqfdDpfDAbM1GgaLBb13A5DzZkZvhEQ00a8pzn1w2Trh7uw8J6VMjI2SUSe97gkJZaGSAEh+pzl+puncinw+ONo7wGx2GCwWGC0m6PUG7d5nazYwEgq8LjfcDgfcLlefi1XKKhtViIoQogWhkgA0SC14fgLQg/t8cNvtcNvt0BsMcNk7JQdHiLZwODts8Did8Pn6X/vi4xxHTkv+1aIRAEJCXKgkAMckFzwz+G5nXo8Hzk6H1CYUfgqA3mRJgDjg6hw8oa2oboHD5ZHcjMVikVyWEKK+UFkEeFxqwcY2O1bvLh/0Oq3ezWgzKqK0YLwc3954SHJZvV6vqQ1NCCGBC5UE4Iicwr9/YxO8MrbOJSTcVDa04eWP90gun52dDYMhVAYQCSF9CYkEgHNeD0Dyu9WxM01Ysf7LwdqQWr2yNBoWCW2/e2OTrCOq8/PzBUZDCFFDSCQA3VbJKfznt7fgVF2rqFjOQZsIkVCyft8JrNpaJquO/IICMcEQQlQTMQlAQ6sdSx57s99Vz1odAKAhACLSqm1H8d2/rJRVh06nQ25urqCICCFqCaVJvG3oWgswXGoF9a123PL4W/jH/YswoTjjnO/RXTzREiWmpF5dvR+/Xva55L3/exgMBny4SlY+TgjRgJBJADjnnDH2FwB/k1NPq82Jrz/5Dh65fTZumDUKer2uu345scmJiBBltdudWPredvz9w91C6nO5XNi3b5+Quggh6gmlKQAAWAZA9tZldqcbP//HGsz72TK8s/EwvD5OiwBJ2LE73Hju/R245L6XhXX+hJDwETIjAADAObczxp4G8JiI+k7XteKnL36Kv76/HZdPLBRRJSGq4wBeWrULL6zaheZ22uGSENI3ptk7334wxiwADgIoUjuWHulJsTjw2s8UqdsSnwCjRfqBLSQ0tdk6kX7xD9UOgxASxkJtCgCccweAH6gdR2+hlkQRQgghIZcAAADn/GMAr6sdByGEEBKqQjIB6PZtdE0FhDcaXCCEEKKAkE0AOOcdABZCwFMBcnm8/R+5Kh9lAJGIZpUIIUoL2QQAADjnFQCuB6DqUmenW/qRqoQQQogaQjoBAADO+XoAVwJoVysGp4wz1QkhhBA1hHwCAJxNAi4D0KRG+x6vD16fktMAhBBCiFhhkQAAAOd8O4BZAA6p0b5iowA0F0wIIUQBYZMAAADn/BCASQCeD3bbSiUAdEgRIYQQJYRVAgAAnPNOzvn/ALgOQHWw2u2kdQBEIMbUjoAQEu5C6iyAQHDO32WMfQLgPgA/AxCrZHvKTQHQCEAkYlA+A8jLy8O3vvUtpKSkKN4WIUQZ99xzj+SyYZsAAF2HBwH4DWPsBQAPA7gLQJwSbTldbiWqpW2GIxRTcAhgxIgRuPfee3H99dfDYAjrtwBCwp6cBCDspgD6wjmv55zfCyATwDcBbBbdhoNGAIhAovt/nU6H6dOnY/ny5di8eTNuuukm6vwJiXAR9Q7QPSLwMoCXGWMjAVwFYC6A2QBi5NSt1GZANAIQmUSMACQlJWHu3LmYP38+5s6di+TkZAGREULCRUQlAL1xzg8DOAzgj4wxA4ApAJYDKJBSn2JPAXDaXyASyen/zWYzVq5ciYkTJ0Kni4hBPkKIBPTuAIBz7uGcbwZQIbWOTqcyawDgoxEAEpikpCRMmjSJOn+pf5ktAAAgAElEQVRCyIDoHeJczVIL0hQA0YqEhAS1QyCEhICInQLoR4vUgjQFQERqarFJLpuYmCgwkshQXl4Om63r39xqtaKwsFDliAhRHiUA55I8AkBPARCRahtbJZelEQD/eDwevPLKK1i6dClOnDhxzvcKCgrwgx/8AHfeeSc9LUHCFk0BnEvyCICD9gEgAtU0tEkuSyMAg2toaMDChQtx//33X9D5A8CJEydw//33Y+HChWhoaAh+gIQEASUA55I8AtDS7hAZx1mcThmMSDUNknNRGgEYhNPpxM0334wtW7YMeu2WLVuwZMkSOBzK/H4ToiZKAM4l+V23oaVDZBznolGAiFPbKH0EgBKAgS1duhS7du3y+/o9e/bgj3/8o4IREaIOSgDOJXkEoLHVLjKOc9A0QOSpbZC+BoCmAPrndruxdOnSgMs9//zzcDqdCkREiHooATiXJkcAKAGIPDW0CFARmzZtQktL4L/mHR0d2LxZ+A7ihKiKEoBzSR4BaGiV/tjWYLjXq1jdRJvkjABQAtC/srIyyWWPHj0qMBJC1EcJwLlkjAAolwD4KAGIODWUACiis7NTclkaiSNaU1NTI6e4nRKAczVJLdjS3gmvQiv2fV6F9hggmtRhd+J0teSXIiUAA8jNzZVctqSkRGAkhMh37NgxOcVPUgLQC+fcCeCMlLI+znG6VvqjWwOhKYDIsvNghaxkMikpSWA04WX27NmSzkjQ6XSUABDNOX78uJzilAD0QfJEX9mpepFxnEVTAJFl+wHpv9Tp6en0FMAAUlJScO211wZc7uabb4bValUgIkKkKy8vl1P8BCUAF5KcABw7rVQCQFMAkWTbfukJwMSJEwVGEp4effRRxMXF+X19RkYGnnjiCQUjIkSaI0eOyClOIwB9kD4CoFACwH0+WoAUQbYfkHwqNSUAfigoKMDLL7/s1x291WrFCy+8gPj4+CBERoj/ampqsG7dOjlV0AhAHyQ/J3T0tHJ7htM6gMhw/HQdGprbJZefMGGCwGjC19y5c7F69WrMmDGj32tmzJiB1atXY/bs2UGMjBD//O1vf4PL5ZJTxUk65upCkkcADlXUwOXxwmTQi4wHQNc0gI5OJQt72/fLmtOjBCAAI0aMwKpVq7B792589tlnqKysBADk5OTg8ssvp9EUolltbW14+eWX5VThAnCYepQLHQfAAbBAC9o6Xdi8rwKXXlQsPChaCBgZ5CwAzM/PpycAJJg4cSJ19iSkPPDAA2hvlz5SCGAV57yFpgDOwzl3ADgttfyn22UtyuiXV95QDwkRW2WMAFAnRkj4W7p0KV5//XW51fwLoJ0A+1MqteCn25RJADwuJy0EDHN2hwsHyyTnnjT8T0iY+/TTT/GrX/1KbjV1AD4EKAHoz2qpBU/VNOPIyTqRsXThHF4XnUYWznYfOgGPV/oGQDQCQEj4Wrp0KW677TZ45U8HL+ecewBKAPqzUk5hxUYBHA5F6iXasGbrIclldTodxo8fLzAaQogWtLW14Y477sAvfvELeDxC9oT5V88nlAD0gXN+GIDkydhPtkmeQRiQh0YAwtpbn+yQXHbo0KG0Ux0hYaSyshKPPvooSkpKsHKlrHvS3nZxzvf3/IWeAujfSgA/klJw1+FKNLfZkRgXLTQg7vPB63JCbzILrZeob+/hkzh2qlZy+ZKSEjidlCBGmp51QcH68/zP1Yihr7VQUuvw+Xzwer3wer3w+XzweDxn/97ztd5/7++j93U9dfRV1t82mpqa8Pnnn4sY7u/NB+De3l+gBKB/qyAxAfD6fPh4aylumS9+TtbtdFACEIbelHH3DwArVqzAihUrBEVDCAlDz3DOv+j9BZoC6N/nADqkFn555XZxkfTicdBdXrjhnOPtT+UlAIQQMoCjAH5+/hcpAegH59wF4DOp5feWVWF3aaXAiLpwnxdet1t4vUQ92w+U41R1o9phEELCkw/AXZzzzvO/QQnAwGStvPj7+1tFxXEOj5OeBggny97bpHYIhJDw9RfOeZ9vMpQADOxDdG0LLMn7Gw6iocUmMJwulACEj4bmdry2covaYRBCwtNOAI/0901KAAbAOa8BsEFqeZfHi2UfiZ/b9Xk8NA0QJl5c8TkcLvq/JIQItwHAvL6G/ntQAjC4pXIKv7Jyh6zd3frjssk6CIJogNPlwQtvyjrPmxBC+vIRgCs4520DXUQJwOD+C0Dyar7qxjZ8uFn6Dm/98Tid8HnozjGUvfHRNtQ1Dvj7SQghgVoB4NqB7vx7UAIwiO49k/8mp45n39yoyEE+TpvkpxSJBjy7XPJDJoQQ0pd/AriFc+7X3SElAP55CYDkB/D3HT2Dt9ftH/zCAHkcDvjE7A1NguzDDftx8Kj4x0QJIRHJDuCHAO7mnPu9fSAlAH7gnNcDkHUA8+Mvf6bIYi8XjQKEHI/Xh5//+U21wyCEhIetACZwzpfyAIeaKQHw37NyClfVt+Jvb28WFctZbkcnfGL3iyYKe2nF5zhyokbtMAghoa0WwM8AXMw5L5NSASUAfuKc7wIg64HtZ97cgPpm8XfsNAoQOlrb7fjN8++rHQYhJHTtAPB1AHmc898HMuR/PkoAAiNrFMDW6cKTy9aIiuUsd6edRgFCxOMvfoCmVkrYCCF+cQDYDeAVAPcDmMI5n8I5/3f3dvWyMCVWp4crxpgRQCmAQql16HU6rH3u+xhZkC4uMADG6GhYYuOF1knEOnaqFhOvfxRuj6xkzQdAS89/Sj6a0mg0iozjHIwxxeoONpdL1vu8E0DPPwbr4/PefyficXT9zvb+0wag5byP5vP+Xg3gIIBjcu7wB0MJQIAYYzcCkLWCa2bJELz91F3QiXyTYgwxKalgOr24OolQ1/3oGXy0UfbTIN/hnL8kIh4RGGOS30BWf/axyFDOioqOgdlsUaRuNUyaNElyWc55QG8y7KvMabBkoa+/a/la4KsOmPfzubDvc87F7/6mAIPaAYQazvkKxthmADOk1rFpfwX+uuIL/HDJLJGBwdHWhqiERHF1EmH+/tZ6EZ3/IXQ950uIInqtIqc7wwhAawCkuU9uBU8uW4M9ZVUiYjnL43TA7Rh08ycSZKUV1fjZH94QUdUDSg4HEkIiCyUAEnDOt0HmvgBujxffe/JN2Dplr+M4h7O9DdxHfYRWOF0e3Pngi+h0yv5/Xs85l3U8NSGE9EYJgHQPQcbugABQcaYJDz4n9j2d+3xwtLUKrZNI98gzb2N/2Wm51XAAPxUQDiGEnEUJgESc8xMAnpZbzxuf7cE7n4vdJtjjdMLdaRdaJwncp5sP4q+vrRZR1Rucc/HnShNCIholAPI8AaBebiU/e/YDnK5tERDOV5ztbeC0N4Bqqutb8O1H/yniEKh2dO32RQghQlECIAPnvBXAo3LrabM5cPsvX0WbzSEgqi6cc5oKUElrux0L7/mLqKN+7+ecy55DIISQ81ECIN8LAGSP8x4+UYs7frUcLre40/08LpoKCDaHy43r731W1El/qznnL4qoiBBCzkcJgEzdz83eCaBRbl1bDpzAd59cAZ/AzZmc7W20TXCQeH0+3PGzF7Bp91ER1XUAuFtERYQQ0hdKAATgnJ8B8B0Rdf1/e/cdXlWVNX78u+/NvemdktAC0kE6iigoiAUpdhFxHPtYXkVn7F0Z7AV1dBxnbCiigg1Bqg1QqkqTXlRAOoSWhJR79/vHjUpJws05+9yW9XmeeX6vkrP2+mGSs+4ua3/+3TLuftncyYDAUoDZ/QWiYjf98x0mTF9oKtydWutfTQUTQojDSQFgiNb6Y+B1E7HemjCPZ0d/YyIUAL6SEg7skSLASQ/+62Pe+nSmqXBfA/8xFUwIISoiBYBZtwJrTAR68u0vGTX5BxOhACg9UETx/n3G4ok/PfPmJJ5+Y6KpcNuAy7Rc0iGEcJgUAAZprfcDlwJGdvLd/sI43hg/10QoAEoK9lNSWGAsXk3n8/u59fF3eeDFj4yFBC7WWpvtES2EEBWQAsAwrfU8YJiJWH6tufvlCQx/c5qJ8+RAYFNg2QFzxw1rqoKiYgb9/SVeHfO1ybB3a62/MRlQCCEqIwWAMx4DvjEV7MUPZnDTMx/bvUf+D0V7d+Ozd8d4jbZlxx5Ou/opJs4w2sHxQ631MyYDCiFEVaQAcED5jW3nA8tNxRz75UKGPPgO+4tsXT8QoDVFu3fhLyu1H6uGWbZ2Eydf9igLlxvdoL8cuNJkQCGEOBopAByitc4HzgK2mIo5/ce1nHP762zL3287ltaawvx86RFQDV/PW86pVzzOhi27TIbdBZxfvn9ECCFCRgoAB5Wf4+5PoKmLEUvWbqbvLa/ywwr73WG130fR7l1ov99AZrGrtMzHsH9/ytk3jmDP/iKToQuA/lrrFSaDCiFEMKQAcJjW+kfgYgI7vI3YuG03A297jWdHf4PP5svbX1ZGYf4utF9mAiqybO0mel72KI//bwJlPqOFUilwgdZ6jsmgQggRLCkAQkBrPRG40WTMMp+fJ9/+knPveION2+w1+fGXlVKwcye+UtkT8Du/XzNi5GROHDKMRSvWGw8P/FVrPcV0YCGECJYUACFSfqnLY6bjzl36K71ueJlPpi+xFUf7fRTl76SsWI4Irtu4ndOveYp7n/+Q4hJzlzMd5Gat9ftOBBZCiGBJARBa9wNvmQ66t+AA1z0+hpue+cjWKQGtNUW78ykpqLn70f734TccP+hhZi0wcqFPRe7TWv/bqeBCCBEsKQBCqLy961XAS07EH/PFQk646nlGTf7B1o2Cxfv3Be4OqEHdaL/7cTV9rnqSoY+OosDEUcsjaeAWrbXxWSAhhLBCScvx8FBKPQI86FT8Nk1yeOTavpzSuanlGG6Pl8SMTJQrduvEBct/5eGXPmHqrJ+cHKYMuEpr/Y6Tg4SDUsryL5Avpk02mcofEpNSiI9PcCR2OHTt2tXys1prZTAVEWOkAAgjpdRQ4HnAsR/S045rwcPX9qVFo9qWnne53SRmZOGKizOcWXgtX7eJYf8ex7ivfjTWZrkSB4BBWuvxTg4SLlIAOE8KAOGU2PqtHmW01i8qpfKBN3Dov8UX81fxzY9r+MtZXbn90t7UyUyp1vN+n4/CXTtISM8gLgZ+qf7y2w6G/+cz3ps4G7/f8eJ3LzBQaz3D6YGEEKK6ZAYgAiilBgJjAEffsN44N2effCzXnH0CnVs1qPbzcQkJJKSmR+WSwLqN23nh7Sm8+clMY3cqHMUvwLla60WhGCxcZAbAeTIDIJwiBUCEUEqdAnwGpIVivE4t6nPtud05++Rj8ca5g35OKUV8ShqepCQHszOjoKiYT774gZGffst3C1Y7PdV/sC+AwVrrnaEaMFykAHCeFADCKVIARBClVEtgLNAuVGPWzkzh8n7H8dd+x5GTnRr0c26Ph4S0dFxxHgezs2b2wjWMHPctH0/7nn0FIe9r8DRwT/mFUDFPCgDnSQEgnCIFQIRRSiUC/wKuDuW4LqXo3KoBfU9oRd/urYPeNOhNSsabkopS4f098+umHYyZPI93PvuO1b9uDUcKBQR2+o8Jx+ChppRKALoA31qNMfjiQeYSOkicx4PbHTvbm0aOHGnn8R7AD1pr6fAljiAFQIRSSl0GvAIkh2P8Y+pn/1EMHNemIe4q1v2V201CalpINwnuyN/H9Pkr+Hrecr6eu5x1G7eHbOwKrAAu0lo7epYw3JRSnYDLgJOAjoA3vBmJIJUCC4FZwCit9fdhzkdECCkAIphSqjWBJYG24cwjKy2JE9s3oV3TXNo1y6Vd01zqZh25XBAXn0B8ahoud/B7CoK1r+AA3y1YzdfzlvPN3OUsWb0xlGv6lfEDI4D7Y/UTllIqDjgPGErg06SIfrMJzDJ+qLWWC0BqMCkAIpxSKgn4N3B5uHM5WK2M5PKCoB7tmuaSl5NJdnoy2elJpGWk4U1Kxu2p3gfEAyWlrNuwnbXrt7Jm/VbWbtjGmvXbWLN+K5u27Y6EF/7BVgNXaq2/C3ciTlFKdQNeJ8wFqHDMSuDqWP4eFlWTAiBKKKUuJ/BpMzPcuRxNgtdDrYwksjNSqJOVTq3sNBK8Hg6UlHKguJTiklKKS8oO+ucy8vcWROJLviIaeBG4V2tdGO5knFC+D+WfwN+RduGxzg+8TGDjakG4kxGhJQVAFFFK1QaeBK7Awe6BolLLgBtiubGPUqouMAXoEO5cREgtBU7XWm8OdyIidKQAiEJKqZMIbBAM2XHBGm4X8BDwH621I/cDRwKlVB6BHgbNwp2LCIt1wGla65/DnYgIDSkAolT55qybgUeA4A/wi+ooI7D/4mGtdX64k3GSUqopMB2oH+5cRFj9BpyitV4b7kSE86QAiHJKqXoE9gY4c6i65poI3Ka1XhHuRJymlIonsDO8U7hzERFhIdA9Vk+2iD9JARAjlFIvAzeGO48YsUdrnRHuJEJFKfUigdkkIX73qtb6+nAnIZwlO3xjx75wJyCij1JqAPLyF0e6Til1QbiTEM6SAkCIGkoF+jc/Ee48RMR6QillvquXiBhSAAhRc12INPkRlWsGDAl3EsI5UgAIUQOVf/p/MNx5iIh3v8wCxC4pAISomboDx4Y7CRHxWgCnhDsJ4YzYuTOzBivv2T7Q6vNt8mpTUupjzaZdBrMKPaUULfPq0K1tI9o1rcftL46zGipZKXUFMFLH7jGZfiaCZGVl0b59e9q2bUtSUpKJkJVyu93Ex8c7OkYsKCgoYNGiRSxYsIAdO3aYCNkP+MpEIBFZ5BhgFFNK1SGwiesKbLQGvmPQSVw/sCtb8wuYtXQ93/20nu+WbmDb7shuDe6Nc9O+eT1OOLYx3do24vi2eWSmJgKwZ/8Bml/4qN0hvgVu1FovsRso0iilfsTGuf+4uDiGDh3K9ddfj9uB2x8rkpaWRlycfGYJls/n4/nnn+fJJ5+ktNTWpX/LtdZtTOUlIocUAFGovAvgTcDDQLrdeL8XAIdb/dtO5q/cxPJft7N8/XZWbthJYXH4bg9NSYznuDYN6XZsHicc25jOLeuT4PVU+LWGCgAIdAN8EXhIa73fRMBwK+/3vxmLRaPX6+W9996jY8eOZhOrgsvlIiOjxrRmMOr7779nwIABFBcX2wnTSGu9wVROIjJIOR1llFKnEnghOb57u3n9bJrXz/7jn/1as37rHpat386K9Tv4Zetutu7az9b8/WzNL6CkzGd7zDi3i5zsNBrVzaBB3Qwa1gn8v+2a5tL2mBzcrpBvW4kD/gFcrJT6u9Z6bKgTcEBTbMwY/eMf/wjpyx/A46m40BNH17VrV+69914eeughO2GaAVIAxBgpAKKEUqoR8CyBo1th4VKKxjkZNM7JoN/xzY/48/x9RWzJL2Bb/n4KikspKfVBnIdSDcWlZZSU+ijz+UlK8JCSGE9KUjwpiV5SEuNJTYonMy2JnOzUcLzkg1EfGKOUmgrcpLVeHe6EbMi1+mDdunW5+uqrTeYSlFAtM8Sqm266iVdeeYUtW7ZYDVHHZD4iMkgBEOGUUgnAHcDdgLO7rGzKTE0kMzWR1o1q/fHvEtPSiIv3hjEr484AliilngIei9J+6TlWH2zXrh2uMBRo4RgzlrhcLjp16sSkSZOshpACIAbJT1UEU0qdQ+AO+mFE+Mu/hokHHgCWKqWM7KYPsdpWH2zRooXJPIImBYB9rVu3tvN4raN/iYg28lMVgZRSLZVSk4FPgSbhzkdU6hjgc6XUJ+VLNNFir9UHN2/ebDKPoMlmZft+++03O4/LXSMxSAqACKKUSimfWl4CnBnufETQzgWWK6XuUkpFw261TVYfXLp0qck8gubz2d9gWtMtXrzYzuPhqfyEo6QAiBBKqUuBVQTW+6PhJSIOlUSgJ8MipVSvMOdyNJY/Cq5evZp58+aZzCUoMgNgz6xZs1ixYoWdEJZ3D4rIJQVAmCmlOiqlvgVGYWN3duSqcb+4WwNfK6VGKaUsb7ZzmOUZAK01d955J4WFhSbzOaqSkpKQjhdLCgoKuPHGG+0WUTIDEIOkAAgTpVSWUurfwA/ASeHOxyk1+JPbpcAKpdTNEXiZys/ANqsPb9iwgcGDB7NmzRqDKVXN5/Ph9/tDNl6sWLlyJf379+fXX3+1EyafwOykiDFyDDDElFIu4G/Ao0BWmNNxXA0uACDQpfFF4Eql1A1a67nhTghAa+1XSk0ArrIaY+nSpQwcOJALL7yQDh060Lp1axISEgxmeaT4+HgSExMdHSMWFBYW8tNPP/HDDz8wevRoux0AASZorctM5CYiixQAIaSUOgn4FzZ6sEedGv3+/0MnYLZS6n/APVrrSLh1aRw2CgAITMuPHj2a0aNHG0pJRKhPwp2AcIYsAYSAUipXKfUOgctlas7Lnxo/A3AwRWDmZ6VS6iqllOVWvIZMA0K7kC+iUREwJdxJCGdIAeAgpZRHKXUHsBL4S7jzCQct67aHqwW8DnyrlGofriS01kXAK+EaX0SNf2utpVCMUVIAOEQpdSaB8/xPAalhTqdKazc7NyMtBUClTgR+VEqNUEqF6/vjUQIbvISoSD6B7xERo6QAMEwp1UQp9SkwGWgZmjFdJNWqZ/n5SXNXU3DAmWNWfl/0FQBKuQjs1XScG7iVwGmBi0Mx4MG01vnAY6EeV0SNx8q/R0SMkgLAEKVUolJqGIHe/eeEatysZh3oNWwMrS8cajlGUUkZ42c7c8rH7/cRjp2Av9iY1UjIrEPv4R+S2TRkM/T1gPeVUtOUUqFutv8vwFaHGBGTVhD43hAxTAoAA5RSFxL4gXkAcPYsVLn49Gy6XPc4vR5+n8xjjiW9ob33xtjpDrV41Rq/P/QFwKjJ31t+1puSQUbjNvR+5AM6XT0Mb0q6wcyqdBqBmwaHK6VCct5Na11MoGDdHYrxRFTYA5xb/r0hYpgUADYopdoopb4AxgIhuQxGud0063s5ZzwzmbyTz4PyzeTpDVsSn55tOe7CtVtY/dtOU2keQpeF9ghxUXEpH39tve95fHp5ewalaHLqIM54ZjKNT7ngj79rh3mB+4BlSqkBoRhQa70KuBiQhvvCDwzRWq8MdyLCeVIAWKCUSldKjQAWAX1CNW7ttifQ5/FxtL/sHjxJh+4bU243eT3PtRV/zDfOzAKUlYa2APh0+hL2FVr/8FKnbfdD/tmbmknnvz3KKQ+OJr1RK7vpBasxMF4pNU4plef0YFrrqQT2I8i5zZrtDq31xHAnIUJDCoAgKaWaKqVuVEqNAzYQ+GUZkkZKSdm5dLvlBXre+xZp9ZtV+nV5p1xga5xPvltBaZn5D4G+EPdxHzX5B1vP1z/hrAr/fXaLTpz66Ee0v+we4hKSbY1RDWcTmA24RynldXIgrfVLBGYCipwcR0SkA8ClWuvnwp2ICB0pACqhlEpVSp2tlHpZKbUGWAO8TOAXckiObbk98bQ670ZOf2YS9Y8/+u3AqfWOIbuF9T5D+fuK+OLHdZafr4yvrAwdon0AK9dvY/6y9Zafz2zanuTaDSr9c+UqX4J5djINuve3PE41JRHYrb9VKfWZUuo2pVQXJ+4Y0FqPBXpi48ZAEXV+A3pqraWlYw0jBUA5FdCl/JPWN8BOAu1SbwSahjqf3M6nctpTE2hz4VDc3uD3FdqdBRjj0GZAX1loZgFGTbL36b9BJZ/+D5eQUZvjb3qWHve+SWpuE1tjVkMGMBB4Bvge2KWUmqCUukMpdZypgkBr/QPQFXiTwJqwiE1+Av+Nu2qtre+aFVFL1eRWreXXtZ4BnAmcDtQOb0aQktuYDpfdR90OPS09X3agkIn/14OyA9aad7mUYubzV5GTlWLp+cp4EhNISDEb83AlpWW0u/Rp8vdabFymFH1f+Iqk7OrdyuwvK2X152+w4tNX8JUcsDa2GfsItJueDnwD/GD3EhelVFvgcQKFh4gd4wncS+HQ8R8RDWpUAVC+htqDwAv/TKA9gR7tYReXkESr826kWd/LccV5bMX68b/38cv0jyw/3/6Yujx4WS86NTN3nb3LHUdyVoaxeIdbuX4b970ykRkL1lqOkdW8I70eft/y84U7NrFo5HA2//iV5RiG7QdmESgGpgPztdalVgIppboAFwHnEqIGV8K4lcCnwNjyWR5Rw8V8AaCUakngZX8G0AsI2e6tYDU8aSDtLrmDhMw6RuLtXLWA6Y9cYiuGUnB291bcefFJxmYDkrOzcLnMrjrl7yviqXe+ZOTn8ymz2XWww+UP0PSMS23ntGXBNywaOZyC7RttxzKskEMLgnla62qvzSilWhP4eWpEoIlRPSCXwBFGEX4lwGZgU/n/1gNTtdbLw5qViDgxVwAopdIJHM37/VO+40eorEpv1IqOVzxAdssuxmNPu7M/+36z/mn4d4neOP42oCvX9u9CotfeoYeE1FQ8CfG2cwIo8/l5a8I8nh71Ffn77G9ad3vi6ffyTDzJaQayA1/JAVaOe5VVE17DX2bpQ3coFAGz+bMgmCvNX4SoOaK+AFCBpu1d+fOF340QHc+zypOcRtuLbqVJn4tRLuMbuQFYPfFNlrz7pLF4dTNTuLRPOy7o2cbyjEBcvJfENHsv2Py9hYz5ciFvTZjP2t922Ip1sEY9zqbrDU8Zi/e7/Zt/YeHIYWxbMst4bAccAObwZ0EwR2sd1k0NQgjnRGUBoJTKJnAcry+B9qlZ4c2oejxJaRx/07OWN/oFo3jvTibddAp+n9kmPC6l6Nk+j0GntOW0zscQ567GlL5SpGRnoarZUc+vNTMXrGPU5O+ZNGs5JQ70Kjj5gXeo1eo443F/t3HOJBa89gClRfsdG8MBxcBcAvfBf661XhTmfIQQBkVNAaCUSiOwAWkwgZe+vZ1yYaaUi7aDb6PFgKsdG2PO8zezaf40x+JnpSYyoHsLurduSKfmudROTzrqM8EuA+zZf4AfVmxg9pJf+OjrxWzc5lyr+tTcJrxU81wAACAASURBVJz+zCTH4mufjyWjn2TN5LcdGyNENhO45XISME1rLfcHCBHFIroAUEolAwMIvPTPAswsIEeQhicOoPO1w6t11j9YWxZOZ9bT1xmPW5mGtdPo1DyXzs1zad+kLrUzkslISSAp/s9aze3xkJTx5+U6xSVl5O8rYueeApas3cz8ZeuZt2w9q9ZvJ1Tfm+2G3Enz/lc5Ert47y7mvngLO5bPdyR+GPmAr4ERwCQdyb9IhBAVisgCQCmVAfwDuAUwsysrgmU0aUv3f7xMYpa5Y3cA2u9j8i19KNq1xWjc6vLGuclISSA9OYG05HgOlPnJ31tI/r4iiorDu0HO5Y7jrJdmEJ9mfhUpf91PzHn+Zop2bjYeO8IsA54F3pVNhEJEj4gqAMqn+W8F/k6g61mNEZ+ezQm3/ovsFp2Nxl029gVWfPqK0ZixpH63vnQb+rzxuL/O+ISFbzyMr7RGvQ+3AC8BL8vygBCRLyJaASulUpRS9wI/A49Qw17+AMV7djLz0cv5+asxRuPmnXJ+qK6xjUqNe19kNJ7fV8bCt/7JD6/eU9Ne/gA5wHBgpVLKXiMKIYTjwl4AKKUuBNYBjxJlu/lN85eVsuD1B1n45iPGdu8n12lI7TbdjMSKNUm161P32BONxSves5NvH72CddPeNRYzStUBRiulJiulQnZRghCiesJWAJTftvcmMJYI6MEfrPScPNr3v4K+d/yb7DxnOqKu++I9vn3sSor37jISr3GvC43EiTWNe11obHYkf+1ivrrvfHaslDtVDnIm8JNS6k6lVET35hCiJgrLHgCl1InAO8AxIR+8mryJKTRofxJ5XXrTuHMv0nMb//FnJUX7mfLMTaydM9mRsZOyc+l+279Jz2ttK46vtJiJ/9eT0oK9hjKLfsrl5qwXvzbSfvmXbz5k4VvD8Jc6c+Nhs5MG0GHAlWxaOpeNS2axefn3lIX30iErFgLnaa1/CXciQoiAkBYA5Z8CHgTuBZxpgWeXUtRp2o68zr3I69ybeq27Vn05j9bMfvcZ5r7/HDjwd+n2JtDlusdocEI/W3EWjfwna6fW+KnpP+R27k332+xtjvT7ylg0cjg/f2n9AqGqKOXixL/ezXGDhh7y731lpWxZ+SO/LZnFhiWz2LxsfrQUBFuBs7XW88KdiBAihAWAUiqFwE1UfUIyYDUkZ9ahUedegZd+p1NITM+udow1sz5nynNDKS0qcCBDaHn232gz6FYCnY+rb8+vy/ny3vMMZxW9ut/2Crmde1t+/sDu7cx9YSg7Vy0wmNWf4lPS6XfXf8gLIkdfWSlbV/7Ixp9ms3HxLDYtn09Zsf37ERxSBFyqtf4k3IkIUdOFpAAob907ETje8cGC4PZ4qde2G4079yavcy9qNWljJO7OX1fw2bDL2bPlVyPxDpfTqRfH3fg0nqRUS89/dd/57P5lmeGsok9CZh3OevFry/cw7Fq9kDnP38yB3dsNZxZQq0kbBt7/Juk51u6x8peVsmXVAjYumcXGJbPZtGxepBUEfuAOrfVz4U5EiJrM8QJAKVUfmAqYectalNWgWfmn/N40bH8icfGJjoxzYN9uJj7xN9YvnOFI/NTcJnS/7RVSDtqLEKx100az8K1h5pOKMq3OvYE2F91i6dmfv/yARW8Pd+yGv5Ynn8vpt44w+v3pLytl6+qFbFg8i99+ChQEpQcKjcW34SVgqHQRFCI8HC0AlFLNgGlAY8cGqYQnKY1GHXvSpEtv8rr0JrV2/ZCNrf0+Zrz2CAvG/deR+J6kVI77v2fI6XhKtZ4rLdzLxP87GV90rBc7Qyn6jviCpGp+P/jLSln41jB++XqsM2m53PS48n66nH+DI/EP5i8rZeuaRWxcPIuNS2aFuyB4Qmt9T7gGF6Imc6wAUEq1AGYAdR0Z4IjxXGQ2bUfd9j2p0+4k8toeR1aytWtrTVn+5Ri++Nft+BzYHa6Ui7YX/50WA6+t1nPfv3In67/9zHg+0aJOuxPpcfcb1XrmQP425jx/M7vWOHMZXmJaFv3u/i8NO/RwJP7R+H1lbF29KLBksHgWm5bPc2wvSyVu1FpLu0ohQsyRAkAplUrgGlF759eCkHnMsTTqcQ4NuvcjPi2wec+tFLlpabgioAPellULmDD8KvY71A++Qff+dPnbo0FfJrR9+TxmDv+rI7lEg25Dn6d+t75Bf/3OlT8w98VbOLB7hyP51GnajgH3v0lanQaOxLfCX1bKbz/NYd28afw8fxq7N/3s9JA+4Hytdc2tTIUIA+MFgApc9v4xgat7HZGYlUOjHmfTqMc5pNZvesSfZyclkez1OjV8tRXkb2PC8KvYvMKZJjEZjdtwwj9eJik79+hfrDVTbjuTgq3rLY/30EMPER8fz+LFi1m4cCGrV6/G5/NZjlcZpRTNmjWjS5cudO7cGaUUd9xxh+V48WlZnPXSDFzu4HrSrJs2msXvPGasK+PhWvcZRJ+bnibOG9mXXG5bu4TFE0ey8puPnVwqKARO1VrPdWoAIcShnCgAHgCM7zRTbjcNuw8g7+TzqNXm+EqPw8XHxVE3JbxT/xXxlZXy1ct3sXTqaEfix6dl0+3WF6jVsutRv3bluFdZOmaE5bHOPfdcnn322T/+ubCwkKVLl7Jw4UKWLFnC5s2b2b17N/n5+ezdu7fK4sDtdpOWlkZ2djaZmZnUr1+fDh060KVLFzp27Ehq6p8nHm699VZGjhxpOe/m/a+i3ZA7j/p1/tISFrz5ML9O/9jyWFVxueM4+dpH6DjwakfiO6WkcB9Lp73HvA9eoGjPTieG2A5001o7PuUghDBcACil+gPjAaNz7zmdetFuyJ2k1jt648Cc1FS87sjsMQSwaPwbTP/fg458qnS54+hw+f006TO4yq87kL+NSUN7o/3WPrUnJCQwZ86cQ17OldFas2/fPvbs2UN+fj779+8nJSWFzMxM0tPTSU1NRSlFQkICSUlJlcYpKCigVatW7N+/31LOAKc/M4nU3Kpb0xft2sKcETeTv26J5XGqkpRRi/73vEb9Y09wJH4olBTu4/sPX+LHT151ogHRNwRmAuRkgBAOM1YAKKUaAYuBdCMBgdT6Tenw1/uoE+SFLQkeD3WSk00N75iNS2bx+WPXUGSo1//hmvS5mA6XP1DlVPesZ65ny4JvLI8xbNgwLr30UsvPH87lcpGRUfklkO+88w5Dhw6t9M+Pplar4zj5gXeq/JodK+Yz94VbKd7ryKdbclp0YsB9b5BSK4ilmiiwf+dmZvzvIVbNNL50/zet9f9MBxVCHMrkZUBPY/Dln9fzXE4d/lHQL3+AlAha969Kg3YncsnzU6jdpK0j8X/+8gNmPnp5lS8yuxcEjRlj9tpiv99PaWnlZ+vffvttW/GPdu3v2invMPOxKxx7+bc9YwgXPTUuZl7+ACnZufS7+7/0udn4PoanlFKx8xclRIQyMgOglDoZmG4/nUDv+45XPkTeydVrW+tSivrp6WbXHhxWVlzE1BG3OPEJCoDE7Fy6/+NlMhof2YNJ+3xMvPlkim2s5Y4fP542bcz1d/J6vaRUsH9j2bJlnHTSSZbjepLT6PfyTNyeI19SvtJiFrz+EOtnfmo5flXccR5OuW447ftd7kj8SLH956V8/ti17N60zlTIT7TW55sKJoQ4ku0ZABXYjfeigVzwpmbS65H3q/3yB0j2eqPq5Q8QF59Iv7v/y4l/vcdyj/+qFO3czPRHhrBh1udH/Jlyu8nrae+gxtixZpvilJaWUlFBavfTf6MeZ1f48i/cuZnpD1/i2Ms/OasuFz75Scy//AFqN2nLkBencky3M0yFPE8pJQWAEA4y8da5FuhgN4g3JYOe975FeqNWlp5P8lRxY1+EO/7iWzj7wZF4Lfb4r4qv5ADzX76Nn957Bq39h/xZns1lgHHjxlFcXGwrxsG01pSUHNo0qbi4mA8++MBW3Ma9jpz+375srqN3I+S2Po4hL0wlt9XRT2XECm9iCv3veY2G7a3P1hzmJaVUZJ+RFCKK2SoAlFIZwHC7SXhT0ul575ukN2ppNQ+8ccGd7Y5UTY4/ncEjJpFZQV8DE1ZNeI1ZT19PaeHeP/5dam4Tslt2sRxzz549TJ061UR6fzi8ABg/fjy7d++2HC+zafsjvq/WTHqLbx+/ipJ9+ZbjVqV9/yu46ImPSc4KSRPMiOL2eBn4wFvUadrORLhcYIiJQEKII9mdAbgGqGUrgTgPJ931Gul51psGxrvdUTf9X5GsBs0YPGISjbue6kj8rYtm8PWDg9h30DptpG0GLC0txe//c6bCzrl/gCYHbf4LzIbczuJRT1g+AlkVt8fL6beM4NQbn8AVF70zUnZ5k1I5d9ho0i1cWFUB60c/hBBVslwAlHf8u85uAm0uupXMY+x9WkiI8k//B4tPTuOch0fR9cKbHIm/f/MvfPPgoD+OANbv1pe4BOtHJ2fPns2GDRvMJFfu91mAtWvX8t1331mOE5eQRIPu/QEo3P4b3zx8CRtmTTCS4+FSauUy6KnPaHvGJY7EjzZJGbU5f/gHJKZl2Q3VsXyTsRDCMDszAH2AZnYGr932BFr0v8pOCCDQ/S+WKOWix5X3c9Zd/3Hk2uLSov3MfvZGVo57lbj4xD9eklZorY1vBvx9X8GoUaMq3BQYrAbdBxCXkMS2n2bx1f0XsOfX5aZSPHScdt0Z8sI06rbo6Ej8aJWek0ePKx8wEcra3c1CiCpZPgaolPoQuMDqwN6UdPo88RmJmfbXSRukp0fExT9O2LZ2CeP/eQX7tv/mSPwGJ5xFkz6Dmfmo9Z3qOTk5zJw5E5fL3EmGpKQkOnTowLZt2yzH6D1sDNuXz2fpB885MuUP0Omca+l59UNB3y9Q42jN+//ox5ZVC+xE8QFNtda/GspKCIHFGYDyJh3n2Bm4zYW3GHn5u5SK2Zc/BG6LG/LCVOo2t33QokIb50xi8agn8CSnWY6xZcsWZs6caTArmDBhgq2Xf0rdRqye+BY/vfe0Iy//OG8CfW9/iVP+9k95+VdFKXrd8BjY+xl1AzcYykgIUc7qR7bLAcu/9RIyatvefPY7TwT3/TclMT2bhh16OhZ/z6/LKS3Ye/QvrILpzYDvvvuuref3b13PxjkTDWVzpF7XP0qr3ma+h2NdTotOtD296vspgjDARC5CiD9ZLQD62Bm0ef+rcHnMtO2NMzjtLKz74osv2LXLzN0GmzdvZsaMGUZiOcWTGPl3TkSSky6/j3gbs0xAG6VUbVP5CCEsFABKqTjA8lVm3tTMo95WVx1SAESGsrIyPvnkEyOxxo4de8hRQBH9kjJq0e6sy+yEUMAphtIRQmBtBqAjcGTD9iA1PeMvRne2SwEQOUwsA/j9fuOnCkRkaHai9dMm5XoZSEMIUc7K29PWYnSDbn3tPH6EmrAHIFqsWbOGBQts7fZm5syZbNq0yVBGIpLktOhESratS/56GUpFCEGIC4Ck2vVJNdzqVmYAIovdWQC7ff9FBFOKpieeZSeC7AMQwiArb88TrQ6W08FsQ69YPwIYjSZMmEBhYaGlZ3fs2MGXX35pOCMRSZp172fncQUYu2lIiJquWgWAUiobsHx4P6ej2T088uk/8hQWFvL550dePxyMjz76iLKyMsMZiUjSoF13ElIz7YRoayoXIWq66r5BLd/Y4/J4qd3W8uGBCsXJ+n9EsroMYLqXgIg8yuWm6Qln2gnRxlQuQtR01S0ALP/wpTdsidubYPXxCnlkBiAi/fjjj6xZs6Zaz8ydO5dffvnFmYRERKnXppudx61fGyqEOETIZgDSHLjnXpYAIld1j/K9//77DmUiIk1WoxZ2Hm9ZfhOpEMKmkBUApnf/gxQAkeyTTz4Jej1/z549TJkyxeGMRKTIamjrEtEkIM9QKkLUaFFdAEgPgOB0Pu96GrTrHtIxd+7cGfSO/k8//fSPK4BDJaNeE7m+N0zik9NJzrJ1EZgsAwhhQNAFgFIqBWhodaDUemYLADkCGLzE9GzOHz6GDv2vCOm4wW7qC/XZ/ybH9eGS5yeTniMfJMMlq2FzO4/LRkAhDKjODEArAudwqz+Ix0tynQZWHq2UTP9XjyvOQ+8bn+C0m5/BHecJyZgzZ85k69atVX7NwoULWblyZUjyQSmOH/x3zn7oHeKT00MzpqiQzQJAZgCEMKA6b1HLP3QpdfNQLrPT9VIAWHNs379w4RMfk5ThfEM1n8/Hhx9+WOXXhOrTvzcxhQH3vc6Jl92FUvK9E25ZjVraeVwKACEMCEkBkNbA1qafCkkPAOtyWx/HkBemUrd5B8fHGjt2LFrrCv+soKCACRMmOJ5DZoOmDB4xyW4XOmGQzAAIEX4hKQBMr/+D9ACwK6VWLhc99RmtT73I0XE2bNjAnDlzKvyz8ePHW24bHKxjup3JJSMm233hCMNs/vfIVErlmMpFiJoqNAVA/WOsPlopWQKwL84bz5m3/YuTr3nY+BLNwSrbDOjo9L9SnHDp7Zz9wFt4k1KdG0dYkpxZx+4+DJkFEMKmoN6iSikvYPljvBMzALIEYE7n867nvGGjiU9xZmPclClT2Lt37yH/bsWKFSxevNiR8eKT0zj7gZGcMOR2kJMiEUuWAYQIr2A/RjcH4qwMoJSLlNzGVh6tlEsp3PKL3ahGnU5hyPNTyM6ztTmrQsXFxUd0Bnz77beNjwOBl8rgEZM4ptsZjsQX5tjsCCgFgBA2BVsAWP5hS67TALcn3urjFZLpf2ek5zZm8LMTadrd1p3tFRoxYgRffPEF27Zt4/XXX3dk+r9Z934MHjGJTAeaTgnzZAZAiPAK9lN9RHUAlALAOZ7EZAbe9wZzRj/LnPeehUp28FdXUVER1113nZFYh1PKRffL7uT4QbfIlH8UyWpoawZAmgEJYVOwb1LLP2yy/h+FyjfQDbjvdTyJyeHOpkrxyemc8/Aojr/4Vnn5R5nsRrZmAHKVUtLNSQgbHF8CkBmA6NWsez8GPzuRdMN7OEzJzmvFkBem0LjrqeFORViQVqchcfauCJdlACFsOOqbVAXaplneGZZaz/wRQOkBEDrZeS25ZMRkGnU6JdypHKJ5j4EMfi5yixMRBKVkH4AQYRTMm7QxYLlMlxmA6JeQmsF5w0bT+bzrw50KyuWmx5UP0P+e/+FJSAp3OsImuRRIiPAJZhOg5So7MbMunsQUq49XSCmFWwqAkFMuNydf8zC1j2nLl/+6nbKS0F7fC4FCpN9dr0bcbISwTmYAhAifYAoA6xsA5dN/zGl96kUkpGYx7pG/GDshEAxPQhKDnvrM7tlxEWGkABAifIJ5m0ZUC2BZ/w+/Jsf1oesF/xfSMU+98Ql5+ccgm0cBGyulEk3lIkRN42wB4MQRQCkAIsKJf72bem2OD8lYbU8fTOs+g0IylgitjHpNcLktNRmFwO8vqQqFsMjhGQDpARCrXO44zrrzPySkZjo6TnZeK3rf8LijY4jwccV5yLB3kkM2AgphUZUFgFIqF7DcbCNN9gDEtNTa9Rj09GeOXbXboF13zh/+AXHxMssby2wuA8g+ACEsOtrb1HJ17U1JJz4t2+rjlZI9AJElq2FzLhkxmRYnn2MuqFIcN2goFzz2IclZdc3FFREpy15HQCkAhLDoaItvEbX+L0cAI5MnMZl+d71KbquuzB71FCWF+yzHSs7K4bShz9LkuD4GMxSRTE4CCBEezhUAMv1f43Q651qOPfNSVs34lMWT3mbrqoVBPaeUi7wuvWjX9zKaHH+6nU1hIgplNbJ1BXVzpVSc1rrMVD5C1BQOzgCYPwIoBUDk8yQk0faMIbQ9Ywjb1i5h/YLp7Nmynr1b17Nny3qK9uwktXY90uo2JK1uIzJyG9O0+1mk1q4f7tRFmGTWbxq4yMlaXwkv0BRYaTYrIWKfYwWAExsAZf0/utRp2o46TduFOw0R4TwJSaTVrs/ebRuthmiNFABCVFulb1SlVCaQYzVwav1mVh+tlBwBFCI2yUkAIUKvqo/Uln+o3N4EkrJzrT5eKVkCECI2yUZAIULPkQIgtd4xgTU9w6QAECI22WzzLM2AhLDAmQLAgfV/hRQAQsQqmzMArZRy4BOHEDHOoRkAaQEshAiezT0AyUBDQ6kIUWNUVQBYnlZLayA9AIQQwUtIzSApo5adELIPQIhqqvCtqpRKAvKsBpVbAIUQ1WVzGUD2AQhRTZX1AWhJYNm92lzuOFLqWq4dKuVkDwBfaQn5G9eQ/9s69m5bT1bDltQ/thvexBTHxhTCpLKSYras/IGtqxeRnFWXzPpNyWrQDE9icrhTC1pWo5ZsXDLb6uMyAyBENVVWAFj+YUrOyUM5sF7v1B6A1d9OYPp/H2D/zs2H/HvlctOg/YmcPvQ50urK8qKITMX79/DVy3exZvZEfKUlh/yZNymV7n+5k44Dr0K5In8PjRwFFCK0KvtYHVEtgMH8EoDfV8Znwy7n88evOeLlD6D9PjYsnMm7N5/GmtkTjY4thAmbV/zAuzf3YeWMT494+QOUFO5j+n8fYPQtZ1K0Z2cYMqweKQCECK3K3qrWNwBGyRHA70Y+xrq5U476dcUFe/j80WvYtnaJ0fGFsKNw93Y+ffCSoNrnbl/3E1NHDLXaaz9kbBYA2Uqp2qZyEaImMD8D4EQLYMMv//ULpvPDx68E/fVa+/nqpTsj/heoqDlmvPYIxQV7g/76n+d/ycIJbziYkX0p2bl4k1LthJCNgEJUwxFvVqVUHGD5Le7ILYCG1/+XTB5V7Zf5llULWDNnktE8hLBi1/pVrPj6w2o/t3TKaAeyMUuWAYQInYo+WjcDPJaiKRX51wBrzcbF31l6dPvapebyqCa3x2v92Thr/zljnTsuOv9Ot/9s7ftw+y/LOLBvt+FszJICQIjQqejNavmHKKlWPdzeBBvpVMxkAbBz/SqK9u6y9Ozu39Yay6O6ajW2/rvNzrOxzM7fS1ajlgYzqZ58q9+HWrN5+XyzyRgmtwIKEToVvVktr6M50QAIwGNwCaBw93bLz+6r4LRAqNRt3sHGsx0NZhI76lj8O/UkJJFZ35nTLsHYv8P692Hh7h0GMzFPmgEJETpGZwCcOAEAZmcASg8UWH7WE59oLI/qSqvbiEwLf785LToRn5LuQEbRL6d5RxJSM6v9XMMOPVEqfJ0p42x8H5YU7TeYiXk2C4D6SilbuwiFqEmMFgBO3AIIZguAkkLrvwA9CeHtqnb6rSOq9eJxe7ycfusIBzOKbp7EZPrc9FS1nolPTqP3DY87lFFwvDa6+9kpgEMhPTePOG+8nRCyDCBEkA55m5RfqdnKarBouAPA1gxAmNuq1mtzPJ3Pvz7orz/xr/eQnWf5P2eN0LzHQFr1vjC4L1aK3jc8Rmrtes4mdRR2ClE7BXAoKOUiw94HCSkAhAjS4W/XRkCS1WBOLAGYXP8HKCmyXgB4Eyz/1RjT86oHOf2W56q8pyAxLYsB975Gl/NvCGFm0evM216k59UPVnnSIrV2Pc4f/kHwxYKD7BSikT4DAHISQIhQOfwuAMubaOLTs/Ekp9lM50iRNQMQGZcDtT1jCA079GTxxJFsXbOIbWsW43K5qdu8I3VbdKTDgCtJypCmaMFSykWX82+kSdfT+GnqaLauXsi2tUvwJqZQt3kHclp2psOAq4h34PvbCjuXVJXaKIBDRTYCChEahxcA1jcAOnQCwHgBYGcGIIJuVkur25AeV94f7jRiSlajFpx8zcOBf9AalKULMR1nawkgKgoAOQooRCgc/na1vgGwgfkWwGC+ALDzCzDcewBECEXoyx/Ak2h9KSoalgCyG9kqAJoopWztIhSipjBXAERBDwCw9wvQztSrEKbY+T6M9E2AABn1jrFzfbEbsFVBCFFTmCsAHGqM4o6gJYBwHwMUAmJ/E6Db4yU9J89OCNkHIEQQ/ni7KqXqAllWAzmxByDO5cL0RKydRiiyBCAigdfWHoDInwEAOQkgRCgc/PHa8g+NJymVhMw6BtI5lOn1f5AZABH9bM0ARMEmQJACQIhQMFIAOHEDIJi/BhigxM4egCTZAyDCz9YxwChYAgDbGwGlABAiCGYKAIdaAHsibgYg/I2AhIiLT7R8F0FZSTF+X5nhjMyzeRSwhVLK/KcHIWKMoRmA6OgBAPbWQCOpD4Co2ewUo9EwC5DZ0Nax4nggfNc1ChElDn7DWt45Gw23AP6u9ECh5WdlD4CIFHb2AZQURn4B4E1MIaVWrp0QsgwgxFG4AJRSaYDlG06iZQ+Ar6wUf1mp5eflFICIFDVhH4B0BBTCWb9/xLb8w+L2xJNUp4GhdP7kxBFAO+v/dtZdhTDNzhJAtBwFlI2AQjjLdgGQktvEkRejrP8LUTk5CnhU0gxIiKOwXQA4dQLAiSOA0gNAxAo7BWkNWQJoZSoPIWLV7wWA5WrZsfV/RzYAyj0AIjbYuZo6Gu4DANszAKlKKfNrk0LEENszAE6dAIi4HgCyBCAiiJ0ZqWiZAUhMzyYxzXJ3cpB9AEJUyaWUSgCaWA3g2BJAhO0BkCUAEUnsLAFEyyZAkJbAQjjJReDqTEtvW+Vyk5LT2GhCv4u4JYAkKQBE5LCzBFBaZL0XRqjZ3AcgGwGFqIILG1Vyct2GuOI8BtMJcLtcKGX6ECCUyCZAESNqwiZAgKxGMgMghFNc2NoAGD3r/2DvF5/sARCRxE5BGi2bAEGWAIRwkgsb6//R1AIY7LVAtXMHuxCm2eoDEE0zAA1b2nm8dnmXUyFEBVyA5cXEaDoCCHZnAOQYoIgcNWUTYGqtXLuzb+mmchEi1tgqAFJyLU8eVMnlwPo/2DsGKJ0ARSSxdQwwSjoBAqAUmfZmGqVyF6IStgoAb0qGwVT+5MQGQLA5AyBLACKC1JQZAICk9Fp2HpcCQIhK2CoA4mxcSFIVpwoAW30AZAZARJAaMwOA7Z89+cEVohIRWQBE5hKAQuV2AgAABi1JREFUfJAQkcObZKMVcBRtAgTby2/ygytEJWwVACUFew2m8idnXv/2fvHJDICIJDVpBqC4YJ+dx6UAEKISLmCX1Yf3rl9pMJU/lfr9zsS11QjImdkOIaywU5DaaYgVDjvXr7DzeHT9f1aIEHIBS6w+vGfDKoOp/KnU53Mkrp09AHIKQESSOG8CymXtymzt91FWcsBwRs7wlZawe9MvdkJY/v0mRKyzVQBsXzbHYCp/cqoAsNMDXfoAiEhjqx1wlMwCbFo6F+23/PtgH/CrwXSEiCm2CoBtP81m/9b1BtMJKHGqALBzGZAcAxQRxlY74Cg5Crhk8jt2Hv9Ja61N5SJErLFVAKA1P3/xnrlsyvm1Nj4L4Cstwe8rs/awUrIHQEQcT6L178lomAEo3L2DtbMn2Qmx2FQuQsQiF7AOsDw3/vNXYyjcsclcRuX2l5QYjWerB0BCEjh0NFEIq+wcTY2G+wDmvT8CX1mpnRCy/i9EFVxaaz8w12qAsgMF/PCfu8HwTFtBSQkmZ+9s9QCQ6X8RgWJ5CWDD4u9YOOENu2Hmm8hFiFj1+607r9kJsn35PFZ9bvuH9RB+rSkotVX9H0KuAhaxxtaNgBG8BFBcsIdpI26x+6FiidZ6nqmchIhFvxcAHwLb7QT66f1nWDdttP2MDrK/uNhYLDtnn+UeABGJ7MxMRWovgKK9u/jongvZu22j3VCvmMhHiFjmAtBalwD2PsJrzcK3hrHa4ExAic/HPkNFQKn0ABAxxmOjHXAkzgAU7NrC2DvPYdta20v3+4FRBlISIqa5Dvq/XwVst+BbMvopvnvqbxQYOh64+8ABIycCpA2wiDW2ZgAiaROg1iyd+h6jburDrg2rTUQcpbW21T9YiJrgjwJAa/0zMMVE0K2LZvDFXQNZNvZ5Crf/ZiuW1pqdhdYb+PzOXhtgKQBE5LG3ByD8mwC138f6BdP54PYBTHvh7xTt2Wkq9L9NBRIilsUd9s+PAmdy6MyAJb7SYlZ8+h9WfPofspp3pEG3vqTWb0ZiVg6J2TnV6qxX4vOx+8ABMhISLOdj7yZAKQBE5LF3CiC0MwBa+ynM387+nVvYt+M31i+Ywepvx5t86f9ugtZajv8JEQR1+FE7pdTTwO3hSUcIezyJydRp2o66zTvSoufZ5LTsHLKx/b4ylk57j01L57F1zSLyN6whcMpWhEg+cKzW2nxjEiFiUEUFQDzwPXBsWDISwhClXHQ+73q6X3YXcd54R8fa+esKpjx7s4kNbMK6S7XWZo8iCRHDjigAAJRSHYF5gCfkGQlhWG6rrgx6epzl2/OOZsvKHxl75zl2u9YJez7SWl8Y7iSEiCYVrvVrrRcCD4c2FSGcsXnF98wf+5IjsX2lJUwdcYu8/MNrG3B9uJMQItpUtdnvSWBaqBIRwklzRz/D7k0/G4/7/Yf/MnV0TVhTClyhtd4R7kSEiDaVFgBaax8wEBgfunSEcIavrJQNi2Yaj/vL918ZjymCdgA4T2tt68pAIWqqKo/7aa2LgQuAD0KTjhDO2bp6kdF4fl8Z29f9ZDSmCFoB0F9r/Xm4ExEiWh3eB+AIWutSpdQQAlcGX+l8SkI4Y8Pi79YDb5qKt2Xlj5llJcVDTcUTQdsN9NNazw53IkJEswpPAVT4hUopYARwi6MZCeGc17TW15oKppSKA/YB1jtUieraBvTVWi8IdyJCRLugO/7pgFuBM4BVzqUkhGO+NxlMa10GLDQZU1RKA68DbeTlL4QZ1W75q7WeBrQHHgCKjGckhDNKgC8diCsb0Jy3GOihtb5Ga228d7AQNZWlnv9a62Kt9XCgLSCbcEQ0eERrvcaBuE8Cyx2IKwLX+t4GdNFazwp3MkLEmqD3AFQZRKkTgSHARUAd2wGFMGs20LP8aKtxSqluwAzA60T8Gmg+8D4wWmu9JdzJCBGrjBQAfwRTyg30AS4BzgPSjQUXovr8wHPAA1rrA04OpJQ6FhgJhO72odiyhMBL/32t9bpwJyNETWC0ADgkcOBSoZOAxkADoGH5/37/v9McGVjUdPuBHwls+BujtZ4bqoHLTwVcBfQAugCtMHC1dozwA1uAjcCGw/63RGu9Ioy5CVEj/T8ZjtwRpXrQ0QAAAABJRU5ErkJggg==;direction=north;" parent="1" vertex="1">
          <mxGeometry x="-393.15" y="916.85" width="43.15" height="43.15" as="geometry" />
        </mxCell>
        <mxCell id="fxni8d-Tm6VKHtBTrwnm-11" value="" style="endArrow=none;html=1;rounded=0;" parent="1" edge="1">
          <mxGeometry width="50" height="50" relative="1" as="geometry">
            <mxPoint x="-400" y="800" as="sourcePoint" />
            <mxPoint x="690" y="806" as="targetPoint" />
          </mxGeometry>
        </mxCell>
        <mxCell id="fxni8d-Tm6VKHtBTrwnm-12" value="" style="endArrow=none;html=1;rounded=0;exitX=1;exitY=0;exitDx=0;exitDy=0;entryX=1.001;entryY=0.156;entryDx=0;entryDy=0;entryPerimeter=0;" parent="1" source="HfGgFGkd712wuSvMLE6i-7" target="HfGgFGkd712wuSvMLE6i-1" edge="1">
          <mxGeometry width="50" height="50" relative="1" as="geometry">
            <mxPoint x="280" y="590" as="sourcePoint" />
            <mxPoint x="330" y="540" as="targetPoint" />
          </mxGeometry>
        </mxCell>
        <mxCell id="fxni8d-Tm6VKHtBTrwnm-13" value="Cadastrar empresa" style="rounded=0;whiteSpace=wrap;html=1;" parent="1" vertex="1">
          <mxGeometry x="47.54000000000002" y="220.64" width="120" height="60" as="geometry" />
        </mxCell>
        <mxCell id="fxni8d-Tm6VKHtBTrwnm-38" style="edgeStyle=orthogonalEdgeStyle;rounded=0;orthogonalLoop=1;jettySize=auto;html=1;exitX=0.5;exitY=1;exitDx=0;exitDy=0;entryX=1;entryY=0.5;entryDx=0;entryDy=0;" parent="1" source="fxni8d-Tm6VKHtBTrwnm-14" target="HfGgFGkd712wuSvMLE6i-22" edge="1">
          <mxGeometry relative="1" as="geometry" />
        </mxCell>
        <mxCell id="fxni8d-Tm6VKHtBTrwnm-14" value="&lt;font style=&quot;font-size: 18px;&quot;&gt;+&lt;/font&gt;" style="rounded=0;whiteSpace=wrap;html=1;" parent="1" vertex="1">
          <mxGeometry x="96.31" y="260.64" width="22.46" height="20" as="geometry" />
        </mxCell>
        <mxCell id="fxni8d-Tm6VKHtBTrwnm-20" value="z" style="rounded=0;whiteSpace=wrap;html=1;" parent="1" vertex="1">
          <mxGeometry x="-460" y="1010" width="1136.26" height="560" as="geometry" />
        </mxCell>
        <mxCell id="fxni8d-Tm6VKHtBTrwnm-22" value="" style="rounded=0;whiteSpace=wrap;html=1;" parent="1" vertex="1">
          <mxGeometry x="-498.72" y="1010" width="52.46" height="560" as="geometry" />
        </mxCell>
        <mxCell id="fxni8d-Tm6VKHtBTrwnm-23" value="&lt;div style=&quot;text-align: center;&quot;&gt;&lt;span style=&quot;background-color: initial; font-size: 24px;&quot;&gt;Cadastrar Empresa&lt;/span&gt;&lt;/div&gt;" style="text;whiteSpace=wrap;html=1;rotation=270;" parent="1" vertex="1">
          <mxGeometry x="-581.6800000000002" y="1280" width="218.39" height="39.2" as="geometry" />
        </mxCell>
        <mxCell id="fxni8d-Tm6VKHtBTrwnm-45" style="edgeStyle=orthogonalEdgeStyle;rounded=0;orthogonalLoop=1;jettySize=auto;html=1;exitX=1;exitY=0.5;exitDx=0;exitDy=0;entryX=0;entryY=0.5;entryDx=0;entryDy=0;" parent="1" source="fxni8d-Tm6VKHtBTrwnm-25" target="fxni8d-Tm6VKHtBTrwnm-44" edge="1">
          <mxGeometry relative="1" as="geometry" />
        </mxCell>
        <mxCell id="fxni8d-Tm6VKHtBTrwnm-25" value="" style="ellipse;whiteSpace=wrap;html=1;aspect=fixed;fillColor=#17E000;" parent="1" vertex="1">
          <mxGeometry x="-366.55" y="1110" width="38.73" height="38.73" as="geometry" />
        </mxCell>
        <mxCell id="fxni8d-Tm6VKHtBTrwnm-37" style="edgeStyle=orthogonalEdgeStyle;rounded=0;orthogonalLoop=1;jettySize=auto;html=1;exitX=1;exitY=0.5;exitDx=0;exitDy=0;entryX=0;entryY=0.5;entryDx=0;entryDy=0;" parent="1" source="fxni8d-Tm6VKHtBTrwnm-29" target="fxni8d-Tm6VKHtBTrwnm-13" edge="1">
          <mxGeometry relative="1" as="geometry" />
        </mxCell>
        <mxCell id="fxni8d-Tm6VKHtBTrwnm-39" style="edgeStyle=orthogonalEdgeStyle;rounded=0;orthogonalLoop=1;jettySize=auto;html=1;exitX=0.5;exitY=1;exitDx=0;exitDy=0;entryX=0.5;entryY=0;entryDx=0;entryDy=0;" parent="1" source="fxni8d-Tm6VKHtBTrwnm-29" target="HfGgFGkd712wuSvMLE6i-22" edge="1">
          <mxGeometry relative="1" as="geometry" />
        </mxCell>
        <mxCell id="fxni8d-Tm6VKHtBTrwnm-29" value="&lt;font style=&quot;font-size: 18px;&quot;&gt;x&lt;/font&gt;" style="rhombus;whiteSpace=wrap;html=1;" parent="1" vertex="1">
          <mxGeometry x="-138.68" y="232.46000000000004" width="40" height="37.54" as="geometry" />
        </mxCell>
        <mxCell id="fxni8d-Tm6VKHtBTrwnm-32" value="Empresa já cadastrada?" style="text;html=1;align=center;verticalAlign=middle;whiteSpace=wrap;rounded=0;" parent="1" vertex="1">
          <mxGeometry x="-174.91000000000003" y="192.54999999999995" width="112.46" height="40" as="geometry" />
        </mxCell>
        <mxCell id="fxni8d-Tm6VKHtBTrwnm-41" value="Não" style="text;html=1;align=center;verticalAlign=middle;whiteSpace=wrap;rounded=0;" parent="1" vertex="1">
          <mxGeometry x="-80.00000000000003" y="250.64" width="60" height="30" as="geometry" />
        </mxCell>
        <mxCell id="fxni8d-Tm6VKHtBTrwnm-42" value="&lt;div&gt;&lt;span style=&quot;background-color: initial;&quot;&gt;Sim&lt;/span&gt;&lt;br&gt;&lt;/div&gt;" style="text;html=1;align=center;verticalAlign=middle;whiteSpace=wrap;rounded=0;" parent="1" vertex="1">
          <mxGeometry x="-190.00000000000006" y="330" width="60" height="30" as="geometry" />
        </mxCell>
        <mxCell id="fxni8d-Tm6VKHtBTrwnm-43" value="Realizar o cadastramento da empresa" style="text;html=1;align=center;verticalAlign=middle;whiteSpace=wrap;rounded=0;" parent="1" vertex="1">
          <mxGeometry x="-397.71999999999997" y="1060.64" width="103.25" height="39.36" as="geometry" />
        </mxCell>
        <mxCell id="fxni8d-Tm6VKHtBTrwnm-47" value="" style="edgeStyle=orthogonalEdgeStyle;rounded=0;orthogonalLoop=1;jettySize=auto;html=1;" parent="1" source="fxni8d-Tm6VKHtBTrwnm-44" edge="1">
          <mxGeometry relative="1" as="geometry">
            <mxPoint x="-40" y="1129" as="targetPoint" />
          </mxGeometry>
        </mxCell>
        <mxCell id="fxni8d-Tm6VKHtBTrwnm-44" value="Preencher formulario de cadastro" style="rounded=0;whiteSpace=wrap;html=1;" parent="1" vertex="1">
          <mxGeometry x="-270" y="1099" width="120" height="60" as="geometry" />
        </mxCell>
        <mxCell id="fxni8d-Tm6VKHtBTrwnm-53" value="" style="edgeStyle=orthogonalEdgeStyle;rounded=0;orthogonalLoop=1;jettySize=auto;html=1;entryX=0;entryY=0.5;entryDx=0;entryDy=0;" parent="1" source="fxni8d-Tm6VKHtBTrwnm-48" target="fxni8d-Tm6VKHtBTrwnm-55" edge="1">
          <mxGeometry relative="1" as="geometry">
            <mxPoint x="120" y="1129" as="targetPoint" />
          </mxGeometry>
        </mxCell>
        <mxCell id="74GbfcYVGOJZ3fSlfZuy-19" style="edgeStyle=orthogonalEdgeStyle;rounded=0;orthogonalLoop=1;jettySize=auto;html=1;exitX=0.5;exitY=0;exitDx=0;exitDy=0;entryX=0.5;entryY=0;entryDx=0;entryDy=0;" parent="1" source="fxni8d-Tm6VKHtBTrwnm-48" target="fxni8d-Tm6VKHtBTrwnm-44" edge="1">
          <mxGeometry relative="1" as="geometry">
            <Array as="points">
              <mxPoint x="-55" y="1070" />
              <mxPoint x="-210" y="1070" />
            </Array>
          </mxGeometry>
        </mxCell>
        <mxCell id="fxni8d-Tm6VKHtBTrwnm-48" value="&lt;font style=&quot;font-size: 18px;&quot;&gt;x&lt;/font&gt;" style="rhombus;whiteSpace=wrap;html=1;" parent="1" vertex="1">
          <mxGeometry x="-75" y="1110.59" width="40" height="37.54" as="geometry" />
        </mxCell>
        <mxCell id="fxni8d-Tm6VKHtBTrwnm-49" value="&lt;span style=&quot;font-size: 14px;&quot;&gt;Dados validados?&lt;/span&gt;" style="text;html=1;align=center;verticalAlign=middle;whiteSpace=wrap;rounded=0;" parent="1" vertex="1">
          <mxGeometry x="-110" y="1149.3600000000001" width="110" height="30" as="geometry" />
        </mxCell>
        <mxCell id="fxni8d-Tm6VKHtBTrwnm-51" value="Não" style="text;html=1;align=center;verticalAlign=middle;whiteSpace=wrap;rounded=0;" parent="1" vertex="1">
          <mxGeometry x="-158.68000000000004" y="1040" width="60" height="30" as="geometry" />
        </mxCell>
        <mxCell id="fxni8d-Tm6VKHtBTrwnm-54" value="&lt;div&gt;&lt;span style=&quot;background-color: initial;&quot;&gt;Sim&lt;/span&gt;&lt;br&gt;&lt;/div&gt;" style="text;html=1;align=center;verticalAlign=middle;whiteSpace=wrap;rounded=0;" parent="1" vertex="1">
          <mxGeometry x="-39.99999999999999" y="1100" width="60" height="30" as="geometry" />
        </mxCell>
        <mxCell id="fxni8d-Tm6VKHtBTrwnm-61" value="" style="edgeStyle=orthogonalEdgeStyle;rounded=0;orthogonalLoop=1;jettySize=auto;html=1;" parent="1" source="fxni8d-Tm6VKHtBTrwnm-55" target="fxni8d-Tm6VKHtBTrwnm-60" edge="1">
          <mxGeometry relative="1" as="geometry" />
        </mxCell>
        <mxCell id="fxni8d-Tm6VKHtBTrwnm-66" value="" style="edgeStyle=orthogonalEdgeStyle;rounded=0;orthogonalLoop=1;jettySize=auto;html=1;" parent="1" source="fxni8d-Tm6VKHtBTrwnm-55" target="fxni8d-Tm6VKHtBTrwnm-65" edge="1">
          <mxGeometry relative="1" as="geometry" />
        </mxCell>
        <mxCell id="fxni8d-Tm6VKHtBTrwnm-55" value="&lt;font style=&quot;font-size: 18px;&quot;&gt;x&lt;/font&gt;" style="rhombus;whiteSpace=wrap;html=1;" parent="1" vertex="1">
          <mxGeometry x="106.30999999999997" y="1110.5900000000001" width="40" height="37.54" as="geometry" />
        </mxCell>
        <mxCell id="fxni8d-Tm6VKHtBTrwnm-57" value="&lt;span style=&quot;font-size: 14px;&quot;&gt;Dados Duplicados?&lt;/span&gt;" style="text;html=1;align=center;verticalAlign=middle;whiteSpace=wrap;rounded=0;" parent="1" vertex="1">
          <mxGeometry x="71.31000000000003" y="1080.0000000000002" width="110" height="30" as="geometry" />
        </mxCell>
        <mxCell id="fxni8d-Tm6VKHtBTrwnm-64" style="edgeStyle=orthogonalEdgeStyle;rounded=0;orthogonalLoop=1;jettySize=auto;html=1;exitX=1;exitY=0.5;exitDx=0;exitDy=0;entryX=0.5;entryY=0;entryDx=0;entryDy=0;" parent="1" source="fxni8d-Tm6VKHtBTrwnm-60" target="fxni8d-Tm6VKHtBTrwnm-63" edge="1">
          <mxGeometry relative="1" as="geometry" />
        </mxCell>
        <mxCell id="fxni8d-Tm6VKHtBTrwnm-60" value="Retornar que essa empresa já foi cadastrada" style="whiteSpace=wrap;html=1;" parent="1" vertex="1">
          <mxGeometry x="276.30999999999995" y="1099.3600000000001" width="120" height="60" as="geometry" />
        </mxCell>
        <mxCell id="fxni8d-Tm6VKHtBTrwnm-62" value="&lt;div&gt;&lt;span style=&quot;background-color: initial;&quot;&gt;Sim&lt;/span&gt;&lt;br&gt;&lt;/div&gt;" style="text;html=1;align=center;verticalAlign=middle;whiteSpace=wrap;rounded=0;" parent="1" vertex="1">
          <mxGeometry x="181.31000000000003" y="1100" width="60" height="30" as="geometry" />
        </mxCell>
        <mxCell id="fxni8d-Tm6VKHtBTrwnm-63" value="" style="ellipse;whiteSpace=wrap;html=1;aspect=fixed;fillColor=#FF3D44;" parent="1" vertex="1">
          <mxGeometry x="519.9999999999999" y="1368.81" width="35" height="35" as="geometry" />
        </mxCell>
        <mxCell id="fxni8d-Tm6VKHtBTrwnm-69" value="" style="edgeStyle=orthogonalEdgeStyle;rounded=0;orthogonalLoop=1;jettySize=auto;html=1;" parent="1" source="fxni8d-Tm6VKHtBTrwnm-65" target="fxni8d-Tm6VKHtBTrwnm-68" edge="1">
          <mxGeometry relative="1" as="geometry" />
        </mxCell>
        <mxCell id="fxni8d-Tm6VKHtBTrwnm-65" value="Enviar dados para o banco de dados do sistema" style="whiteSpace=wrap;html=1;" parent="1" vertex="1">
          <mxGeometry x="66.30999999999997" y="1245" width="120" height="60" as="geometry" />
        </mxCell>
        <mxCell id="fxni8d-Tm6VKHtBTrwnm-67" value="Não" style="text;html=1;align=center;verticalAlign=middle;whiteSpace=wrap;rounded=0;" parent="1" vertex="1">
          <mxGeometry x="85.08000000000001" y="1149" width="42.46" height="20.64" as="geometry" />
        </mxCell>
        <mxCell id="74GbfcYVGOJZ3fSlfZuy-5" style="edgeStyle=orthogonalEdgeStyle;rounded=0;orthogonalLoop=1;jettySize=auto;html=1;exitX=0.5;exitY=1;exitDx=0;exitDy=0;entryX=0.5;entryY=0;entryDx=0;entryDy=0;" parent="1" source="fxni8d-Tm6VKHtBTrwnm-68" target="74GbfcYVGOJZ3fSlfZuy-3" edge="1">
          <mxGeometry relative="1" as="geometry" />
        </mxCell>
        <mxCell id="fxni8d-Tm6VKHtBTrwnm-68" value="Finalizar cadastro da empresa" style="whiteSpace=wrap;html=1;" parent="1" vertex="1">
          <mxGeometry x="267.53999999999996" y="1245" width="120" height="60" as="geometry" />
        </mxCell>
        <mxCell id="fxni8d-Tm6VKHtBTrwnm-71" value="Cadastro feito" style="text;html=1;align=center;verticalAlign=middle;whiteSpace=wrap;rounded=0;" parent="1" vertex="1">
          <mxGeometry x="535.4799999999999" y="1368.81" width="134.12" height="39.36" as="geometry" />
        </mxCell>
        <mxCell id="fxni8d-Tm6VKHtBTrwnm-72" value="" style="ellipse;whiteSpace=wrap;html=1;aspect=fixed;fillColor=#FF3D44;" parent="1" vertex="1">
          <mxGeometry x="590" y="872.5" width="35" height="35" as="geometry" />
        </mxCell>
        <mxCell id="fxni8d-Tm6VKHtBTrwnm-74" value="&lt;span style=&quot;font-size: 14px;&quot;&gt;Notificar setor de manutenção para a correção da maquina&amp;nbsp;&lt;/span&gt;" style="text;html=1;align=center;verticalAlign=middle;whiteSpace=wrap;rounded=0;" parent="1" vertex="1">
          <mxGeometry x="527.54" y="820" width="147.5" height="50" as="geometry" />
        </mxCell>
        <mxCell id="74GbfcYVGOJZ3fSlfZuy-6" style="edgeStyle=orthogonalEdgeStyle;rounded=0;orthogonalLoop=1;jettySize=auto;html=1;exitX=1;exitY=0.5;exitDx=0;exitDy=0;entryX=0;entryY=0.5;entryDx=0;entryDy=0;" parent="1" source="74GbfcYVGOJZ3fSlfZuy-3" target="fxni8d-Tm6VKHtBTrwnm-63" edge="1">
          <mxGeometry relative="1" as="geometry" />
        </mxCell>
        <mxCell id="74GbfcYVGOJZ3fSlfZuy-9" style="edgeStyle=orthogonalEdgeStyle;rounded=0;orthogonalLoop=1;jettySize=auto;html=1;exitX=0.5;exitY=1;exitDx=0;exitDy=0;entryX=0.5;entryY=0;entryDx=0;entryDy=0;" parent="1" source="74GbfcYVGOJZ3fSlfZuy-3" target="74GbfcYVGOJZ3fSlfZuy-8" edge="1">
          <mxGeometry relative="1" as="geometry" />
        </mxCell>
        <mxCell id="74GbfcYVGOJZ3fSlfZuy-3" value="&lt;font style=&quot;font-size: 18px;&quot;&gt;x&lt;/font&gt;" style="rhombus;whiteSpace=wrap;html=1;" parent="1" vertex="1">
          <mxGeometry x="307.53999999999996" y="1367.5400000000002" width="40" height="37.54" as="geometry" />
        </mxCell>
        <mxCell id="74GbfcYVGOJZ3fSlfZuy-4" value="&lt;span style=&quot;font-size: 14px;&quot;&gt;Deseja cadastrar um funcionario&lt;/span&gt;" style="text;html=1;align=center;verticalAlign=middle;whiteSpace=wrap;rounded=0;" parent="1" vertex="1">
          <mxGeometry x="197.54000000000002" y="1371.3100000000002" width="110" height="30" as="geometry" />
        </mxCell>
        <mxCell id="74GbfcYVGOJZ3fSlfZuy-11" style="edgeStyle=orthogonalEdgeStyle;rounded=0;orthogonalLoop=1;jettySize=auto;html=1;exitX=1;exitY=0.5;exitDx=0;exitDy=0;entryX=0.5;entryY=1;entryDx=0;entryDy=0;" parent="1" source="74GbfcYVGOJZ3fSlfZuy-8" target="fxni8d-Tm6VKHtBTrwnm-63" edge="1">
          <mxGeometry relative="1" as="geometry" />
        </mxCell>
        <mxCell id="74GbfcYVGOJZ3fSlfZuy-8" value="Cadastrar funcionario" style="rounded=0;whiteSpace=wrap;html=1;" parent="1" vertex="1">
          <mxGeometry x="263.77" y="1484.44" width="127.54" height="65.56" as="geometry" />
        </mxCell>
        <mxCell id="74GbfcYVGOJZ3fSlfZuy-10" value="&lt;font style=&quot;font-size: 18px;&quot;&gt;+&lt;/font&gt;" style="rounded=0;whiteSpace=wrap;html=1;" parent="1" vertex="1">
          <mxGeometry x="316.31" y="1530" width="22.46" height="20" as="geometry" />
        </mxCell>
        <mxCell id="74GbfcYVGOJZ3fSlfZuy-16" value="&lt;div&gt;&lt;span style=&quot;background-color: initial;&quot;&gt;Sim&lt;/span&gt;&lt;br&gt;&lt;/div&gt;" style="text;html=1;align=center;verticalAlign=middle;whiteSpace=wrap;rounded=0;" parent="1" vertex="1">
          <mxGeometry x="316.31" y="1420" width="60" height="30" as="geometry" />
        </mxCell>
        <mxCell id="74GbfcYVGOJZ3fSlfZuy-17" value="Não" style="text;html=1;align=center;verticalAlign=middle;whiteSpace=wrap;rounded=0;" parent="1" vertex="1">
          <mxGeometry x="347.53999999999996" y="1360" width="60" height="30" as="geometry" />
        </mxCell>
      </root>
    </mxGraphModel>
  </diagram>
</mxfile>
